<svg id="logo-svg" data-name="Layer 2" xmlns="http://www.w3.org/2000/svg" viewBox="0 0 457.7 291.98">
    <defs>
        <style>
            .prefix__cls-106,
            .prefix__cls-122,
            .prefix__cls-128,
            .prefix__cls-132,
            .prefix__cls-138,
            .prefix__cls-152,
            .prefix__cls-169,
            .prefix__cls-20,
            .prefix__cls-7,
            .prefix__cls-70,
            .prefix__cls-77,
            .prefix__cls-96,
            .prefix__cls-99 {
                stroke-width: 0
            }

            .prefix__cls-7 {
                fill: #6a875c
            }

            .prefix__cls-20 {
                fill: #211619
            }

            .prefix__cls-70 {
                fill: #e3cc0f
            }

            .prefix__cls-77 {
                fill: #231619
            }

            .prefix__cls-96 {
                fill: #4db959
            }

            .prefix__cls-99 {
                fill: #e9ebbf
            }

            .prefix__cls-106 {
                fill: #3eba58
            }

            .prefix__cls-122 {
                fill: #f5de04
            }

            .prefix__cls-128 {
                fill: #22171a
            }

            .prefix__cls-132 {
                fill: #efe3aa
            }

            .prefix__cls-138 {
                fill: #281e1a
            }

            .prefix__cls-152 {
                fill: #201518
            }

            .prefix__cls-169 {
                fill: #3bbb52
            }
        </style>
    </defs>
    <g id="prefix__Layer_1-2" data-name="Layer 1">
        <path class="prefix__cls-152"
            d="M110.24 136.99c-5.36-11.76-6.15-23.98-2.53-36.22 6.48-21.95 21.03-35.98 43.14-42.07.82-.22 1.71-.2 2.57-.29 3.46-.91 6.97-1.32 10.55-.98 4.9-.24 9.65.75 14.37 1.89 1.74 1.42 4.05 1.03 5.96 1.94 19.53 9.31 31.74 24.21 35.09 45.88.15.95.62 2.22-.61 2.43-1.28.23-.85-1.22-.98-1.93-4.36-23.17-17.28-38.93-39.95-46.28-.09-.03-.15-.15-.23-.22-4.86-.77-9.73-1.51-14.68-1.24-1.59.52-3.08 2.42-4.83-.01-.43-.59-.15 1.47-1.25 1.18-3.61 1.1-7.61 1.56-10.76 3.43-9.68 5.76-20.5 10.5-24.26 22.67-.08.25-.35.43-.54.64.08.21.05.4-.1.57-.89 3.33-1.64 6.7-3.33 9.75.47 2.6-.9 5.05-.63 7.63-.99.91-.37 4.39-3.51 1.98-.81-.62.08 2.87-2.15 2.09-.47 3-.78 6.02-.64 9.07 2.75 15.95 9.31 29.69 23.06 39.1 7.37 5.05 15.49 8.15 24.31 10.19 22.68 5.26 51.87-11.62 58.26-41.57.9-4.23 1.42-8.5 1.39-12.84 0-.98-.25-2.59 1.25-2.47 1.21.1.61 1.59.61 2.44.08 29.35-19.78 53.7-48.82 57.93-22.58 3.3-40.8-5.86-54.87-23.54-.12-.15-.1-.41-.14-.62-2.74-3.06-4.46-6.68-5.75-10.53z" />
        <path class="prefix__cls-152"
            d="M127.3 97.22c3.98 3.93 4.98 13.52 1.92 18.17-.54.83-1.05 1.63-2.22 1.58-1.56-.08-2.16-1.22-2.73-2.4-2.41-4.99-.96-13.24 3.03-17.35zM141.96 144.2c-.13 1.28-.81 1.93-2.13 1.84-2.78-.17-6.2-4.59-5.59-7.26.22-.99.7-1.81.99-1.8 2.76.18 6.93 5.33 6.73 7.22zM143.64 82.97c-1.22.89-2.76 1.66-4.01.03-1.25-1.62-.61-3.05.87-4.17 2.49-1.88 5.19-3.36 8.97-4.18-1.48 3.64-3.15 6.37-5.83 8.32zM158.27 161.68h6.25c-2.47 1.35-4.37.79-6.25 0zM155.75 159.32c-1.74-.61-1.7-1.64-1.3-2.98 1.23-4.16 4.87-4.3 8.24-4.91l.76-.03c2.66-.2 5.26-1.15 7.98-.66-1.5 7.02-8.4 11.1-15.68 8.58zM173.35 134.64c-6.87 3.37-13.88 2.73-19.89-1.8-8.02-6.06-10.37-14.77-8.6-24.32 1.61-8.7 7.49-13.89 16.03-15.84 12.34-2.82 23.83 6.69 24.57 20.16.04.76 0 1.51 0 2.27-.36 8.78-4.11 15.6-12.11 19.53zM195.42 89.93c-3.78-1.51-7.09-3.64-8.56-7.69-.77-2.11-.12-3.28 1.54-3.2 2.98.16 8.96 6.54 8.78 9.4-.07 1.09-.43 2.03-1.76 1.49zM193.91 135.92c.91-4.32 2.02-8.52 6.21-11.13 1.28-.8 2.96.49 3.96-1.24.4 5.97-1.26 10.87-5.68 14.62-.89.75-1.88 1.65-3.16 1.09-1.42-.63-1.59-2.09-1.33-3.34z" />
        <path class="prefix__cls-96"
            d="M376.82 213.97c-.7 9.46-8.17 15.7-18.81 15.74-20.42.07-40.84.02-61.25.02-67.3 0-134.61 0-201.91-.03-3.31 0-6.67.28-9.84-1.12-.48-1.71-1.7-3.06-2.33-4.71 0-.16 0-.32-.04-.47-.05-.42-.18-.84-.28-1.26-.1-.4-.19-.8-.19-1.22 0-.09 0-.19.02-.28 0-.05 0-.09.01-.14 0-.02.01-.04.01-.06.05-.24.09-.47.13-.71.11-.66.19-1.33.21-1.99.03-.77-.02-1.55-.2-2.32-.03-.58-.05-1.16-.06-1.74-.07-3.81.36-7.62-.03-11.42-.14-1.42-.13-2.8.52-4.1.41-.45.63-.89.72-1.32.14-.62.01-1.23-.23-1.83-.2-.54-.5-1.08-.77-1.62-.75-4.28-.35-8.58-.34-12.88 0-23.93.02-47.86.03-71.79 0-1.91-.37-3.9.73-5.68.24-.42 1.71-.77.07-1.35-1.04-1.45-.79-3.12-.79-4.71.02-20.07-.09-40.14-.01-60.21.04-9.42 3.04-12.64 12.41-13.27 4.83-.33 9.68-.46 14.5.38 2.02.35 4.07.14 6.12-.14 1.89-.26 3.9-.59 5.5.99.16.25.26.5.3.76.04.18.04.36.01.54a2 2 0 01-.28.73c-.11.07-.22.15-.33.23-.1.07-.21.15-.3.22-1.36 1.06-1.87 2.16.25 3.62 1.41.98.37 3.38 2.14 4.22.06.04.13.06.2.09.02.04.03.08.04.12.75 2.17-1.14 3.98-.89 6.08-.05.37-.08.73-.06 1.04.02.53.17.94.6 1.12.09.03.19.06.3.07.12.02.24.02.38.01.19-.01.4-.04.65-.1 1.61-6.19 6.25-7.53 11.86-7.76 6.93-.28 13.79.74 20.7.67 17.6-.16 35.19-.97 52.8-.66 3.98.07 7.22 1.15 9.35 4.69-.81-2.45-2.43-3.95-5-4.65-1.56-.43-3.25-.26-4.71-1.07-.31-.28-.52-.55-.63-.78-.02-.03-.03-.05-.03-.07-.22-.52.01-.9.46-1.14.26-.15.61-.25.99-.3 1.41-.18 2.33-.78 3.02-1.93.07-.08.15-.15.23-.21.07-.06.14-.12.21-.16.02-.02.03-.03.05-.03.07-.06.15-.11.23-.15l.15-.06c2.37-.9 5.07-1.37 6.19-3.96.08-.14.13-.29.18-.45.01-.01.01-.02.01-.03v-.02c.05-.13.08-.26.12-.4 1.88-1.81 3.98-1.34 6.1-.58.49.2.88.45 1.19.73.18.17.34.35.46.55.49.75.57 1.71.35 2.8-.05.41-.43.93.4 1.03.9-.25 1.82 0 2.64-.91 1.28-1.43 2.52-2.21 3.64-2.35.35-.05.69-.03 1.01.04.49.11.95.36 1.37.74 1.65 1.48 1.12 4.71-1.13 6.89-.3.29-.77.38-1.01 1.06 1.26 0 2.27-.32 3.15-1.13 2.55-2.32 3.01-2.21 4.31.91 0 .01.01.01.01.02.11.28.27.55.4.82.01.01.02.02.02.03.4 1.13.63 2.3.77 3.48l.15.42c.12.34.26.67.41.98.25.52.54 1 .9 1.38.53.57 1.22.96 2.16 1.05.26.03.54.03.84.01 4.09.81 6.06.08 7.58-2.78.75-1.41.86-2.83.22-4.29-.4-.91-.9-1.79-.88-2.8 0-.13.02-.27.05-.41 0-.04.01-.09.02-.13 2.7-1.73 3.71-4.65 5.22-7.23a14.03 14.03 0 01.84-1.33c2.94-.9 5.91-.95 8.76.21 1.37.55 2.49 1.41 3.17 2.64.26.45.46.96.57 1.52.03.08.04.17.06.25.33 3.23-1.8 5.44-3.41 7.8-9.21 13.46-18.94 26.54-28.77 39.54-2.87 3.79-5.48 7.76-8.28 11.6-.7.97-1.39 1.92-2.28 2.69-.2.19-.42.36-.65.52h-.01c-.13.09-.26.18-.4.26-1.92.43-2.68-1.03-3.55-2.23-1.9-2.62-3.57-5.4-5.58-7.95-10.66-13.5-24.12-23.07-40.97-26.72-20.02-4.34-38.4.16-54.47 13.03-12.16 9.74-20.1 22.2-22.97 37.6-3.67 19.74 1.69 37.28 13.9 52.77 10.14 12.85 23.15 21.57 39.36 25.07 11.31 2.44 22.33.79 33.22-2.44 9.56-2.83 18.29-7.15 25.65-14.01 1.1-1.02 2.3-1.85 3.79-1.54.28.05.58.15.88.3.08.07.17.14.25.21 9.52 7.98 17.94 17.1 26.78 25.78 3.76 3.71 7.54 7.42 11.21 11.22 4.62 4.8 10.23 6.91 16.82 6.89 13.05-.05 26.11-.03 39.17-.01 1.62.01 3.25-.07 4.82.41.3.09.6.21.9.35.25.15.5.28.76.41.49.26 1 .49 1.49.75.47.41.93.83 1.37 1.27.4.38.8.78 1.19 1.18.43.41.86.83 1.3 1.24 5.64 6.02 12.23 10.24 20.75 10.52 11.67.39 19.34-3.43 23.85-16.04.83-2.33.85-4.88 2.03-7.11.07-.06.15-.11.22-.16.2-.14.4-.25.59-.35 1.46-.71 2.84-.27 4.17.84.02 3.89.31 7.79.02 11.65z" />
        <path class="prefix__cls-122"
            d="M268.34 112.48c-1.16-4.21-.43-8.11 2.39-11.5.73-.88 1.64-2.1 2.95-1.42 1.17.62 1.63 1.97 1.58 3.32-.04 1.4-.23 2.79-.35 4.18h.18v4.54c.01 2.16-1.21 3.61-3.15 3.91-2.02.32-3.11-1.28-3.6-3.04zM276.68 133.44c.6 1.71-.31 3.28-1.8 4.08-1.66.89-2.45-.54-3.32-1.88 1-.31 1.73-.43 2.36-.76.68-.35 1.22-.93 1.05-1.81-.17-.85-.98-.9-1.53-.77-1.06.26-2.73-1.7-3.21.82-.01.05-.4.09-.58.03-.54-.19-.45-.67-.36-1.07.43-1.92 2.1-1.97 3.53-2.14 2.52-.31 3.25 1.75 3.86 3.5zM283.85 143.98c.54.62 1.44 1.25 1.02 2.19-.45 1.01-1.64.84-2.45 1.09-2 .05-5.27-2.92-5.26-4.69.01-1.29 2.58-2.47 3.78-1.57 1.1.82 2 1.93 2.91 2.98zM281.81 89.99c.27-1.76 1.07-3.58 3.45-3.64 1.75-.04 2.71.87 2.63 2.53-.11 2.17-1.61 3.11-2.79 3.39-2.46.12-3.49-1.01-3.29-2.28zM298.47 152.77c2.27-.17 4.2-.31 6.13-.46-1.23 2.12-2.98 2.32-6.13.46zM300.13 83.15c.12-1.99 1.42-2.79 3.28-2.7 1.85.08 3.53.56 3.36 2.91-.15 2.06-1.57 2.87-3.31 3.07-2.11-.26-3.45-1.13-3.33-3.28zM319.41 101.18c10.43 10.55 8.2 25.36-.2 32.8-7.22 6.4-18.25 6.89-25.49 1.15-5.07-3.23-8.78-7.45-9.82-13.6-1.69-6.72.67-12.37 4.67-17.59 6.78-9.98 22.42-11.27 30.84-2.76zM332.77 95.91c-.12 1.46-.83 2.88-3.03 2.85-2-.03-4.1-2.43-4.03-4.64.06-1.98.97-3.2 3.16-3.17 2.35.04 3.9 1.78 3.9 4.96zM332.76 141.14c.07 2.1-1.12 3.1-3.1 3.47-1.57-.11-2.64-.98-2.58-2.61.07-1.73.89-3.1 2.91-3.19 1.61-.07 2.72.51 2.77 2.33zM336.42 110.44c0-1.72.93-2.92 2.73-3.01 2.06-.1 2.82 1.24 2.96 3.3-.03 1.4-.58 2.46-2.46 2.43-1.88-.03-3.23-.66-3.23-2.72zM342.13 125.66c.15 2.09-1.05 3.25-3.04 3.27-1.64.02-2.97-.88-3.02-2.66-.06-2.04 1.36-2.95 2.84-3.38 2.16.03 3.11 1.05 3.22 2.77z" />
        <path class="prefix__cls-122"
            d="M335.36 82.94c-15.97-15.05-38.13-17.35-55.78-5.83-1.1.72-2.2 1.45-3.3 2.17-13 8.88-18.97 21.45-19.4 36.93-.32 3.27.26 6.48.77 9.68.67 3.4 1.22 6.83 3.07 9.85.07.32.07.66.2.95 7.87 18.04 27.53 29.49 47.14 28.64 19.44-.85 42.82-18.55 43.41-45.65.31-14.59-5.54-26.79-16.11-36.74zm-26.49 78.61c-16.56 1.5-34.51-6.59-43.26-23.04-.9-1.7-1.54-3.61-3.34-4.68-.06-.02-.12-.03-.18-.05.81-3.79-.4-7.05-2.9-9.99-.04 0-.09-.01-.13-.01 1.57-2.67 1.51-5.11-.18-7.3.18-.11.37-.27.54-.5.29-.46.49-.97.56-1.51 1.56-12.06 6.99-22.12 15.8-30.41.76-.71 1.48-1.45 1.66-2.51 1.19.3 1.83-.26 2.13-1.36 1.61.41 2.79-.59 4.07-1.29 7.36-4.07 15.25-6.55 23.63-5.53 27.32 3.34 45.04 28.79 39.42 54.59-4.07 18.64-19.04 31.89-37.82 33.59z" />
        <path class="prefix__cls-122"
            d="M376.29 31.31c-3.36-3.4-6.82-6.84-11.77-7.57-5.31-.78-10.64-1.65-16.1-1-2.24.26-4.46.73-6.75.72-5.43-.01-10.76-1.16-16.32-.34-8.63 1.28-17.4-.81-26.12.15-.64.08-1.28-.24-1.92-.24-4.92.01-9.89-.84-14.7.88l-.39.24c-.36.21-.73.4-1.1.58-1.06.51-2.15.95-3.13 1.58-.3.2-.59.41-.86.64-.37.33-.7.69-1 1.13-1.93 3.86-4.14 7.55-6.68 11.04-12.48 17.26-24.96 34.53-37.73 51.58-.16.23-.33.45-.5.68-.04.04-.07.09-.1.13-1.9 2.4-1.02 4.93-.27 7.41 3.22 10.53 3.25 21.28 2 32.06-1.1 9.53-4.85 18.06-10.36 25.88-1.37 1.95-3.18 3.81-2.77 6.52 0 .05.01.11.02.16.11.31.24.59.39.86 1.08 1.95 3.16 2.96 4.68 4.49 10.65 10.74 21.51 21.27 32.03 32.14 4.66 4.81 9.99 7.15 16.69 7.16 8.74.01 17.48.25 26.22.2 5.65-.03 11.3.31 16.92-.26l.54-.06c.36-.08.67-.19.92-.32 1.02-.55 1.24-1.49 1.27-2.52.02-.51-.01-1.03-.01-1.55-.18-.83-.3-1.65-.34-2.49-.03-.54-.03-1.09.01-1.66.44-6.45 2.44-12.29 6.34-17.44.05-.07.1-.13.15-.2.05-.1.1-.19.15-.28.96-1.57 2.75-2.07 4.15-3.01 5.53-3.68 11.51-5.79 18.3-4.59 1.36.24 2.77.62 4.1-.19.04-.03.07-.06.11-.09.11-.1.21-.2.31-.31.74-.77 1.36-1.72 2.67-1.48-.91.32-1.53.86-1.58 1.79-.01.13 0 .28.01.44.01.04.01.08.02.12.25.64.76.94 1.41 1.05.38-.08.75-.12 1.1-.12a6.283 6.283 0 011.98.26c2.17.63 3.89 2.32 5.76 3.69 1.22.89 1.63 1.85 1.41 3.06v.02c-.01.06-.02.12-.04.19-.04.17-.09.35-.15.54-.06.9.2 1.72.7 2.44 3.03 4.35 4.65 9.19 5.13 14.45.06.77.24 1.57.95 1.96.17.09.37.16.61.2 1.35.59 2.77.18 4.15.29.09-29.38.22-58.76.27-88.14.04-22.91-.36-45.83.17-68.74.11-4.75.39-9.49-.95-14.13zM315.23 176.3c-17.39 2.08-32.51-3.59-45.34-15.47-8.13-7.53-14.15-16.42-17.54-27.03-.41-2.61-.82-5.23-1.23-7.85l-.39-5.86-.03-3.1c.47-6.69 1.67-13.23 4.06-19.52 7.19-16.01 19.5-26.29 35.85-32.06 5.09-1.61 10.46-1.62 15.62-2.76l8.36.93c15.2 2.6 27.22 10.57 36.65 22.41 13.4 16.83 16.23 35.87 8.6 55.67-7.75 20.09-23 32.06-44.61 34.64z" />
        <path
            d="M81.61 269.57c-1.09-.32-1.99-.83-2.07-2.13-.44-2.89-2.34-5.51-1.23-8.72.37-1.07-1.13-1.96-1.76-2.94-1.98-3.08-1.13-7.51 1.78-9.15 7.87 2.94 16.06 1.84 24.16 1.94 1.6.02 3.26-.12 4.53 1.18.94.74 2.05.51 3.1.51 5.79 0 11.59-.06 17.38.04 2.41.04 4.65-.7 6.99-1.01 33.26-1.57 66.54-.35 99.8-.75 10.59-.13 21.14.96 31.72.7 3.23-.08 6.42-.53 9.67-.54 11.12-.05 22.22.98 33.33.46 15.75-.74 31.49.44 47.24.04 6.26-.16 12.55.07 18.44-2.6.73-.33 1.47-.27 2.19.09-.05 2.54.68 5.3-1.95 7.14-1.22 2.96-3.98 2.89-6.5 3.3-6.01.98-12.07.35-18.09.25-15.02-.24-30.03-.17-45.05-.04-6.15.05-12.35-.54-18.46-.04-10.14.83-20.24-.68-30.38.08-8.25.62-16.56-.05-24.85-.11-11.41-.09-22.85.47-34.24.23-31.02-.63-62.03 0-93.04-.35-6.03-.07-12.04 1.42-18.08.03 1.68 1.19 3.57 1.09 5.43 1.09 12.43.02 24.86-.09 37.29.04 11.55.12 23.11.55 34.63.33 20.63-.38 41.26-.08 61.89-.41 5.63-.09 11.19.96 16.81.69 19-.89 38.01-.87 57.01-.39 3.85.1 7.74-.35 11.57.58 2.06.5 3.89-.91 6-.88 14.04.25 28.09-.2 42.14.27 4.41.15 8.86-.11 13.08-1.74 1.12-.43 2.24-.81 3.45-.34.61.08 1.92-2.29 1.75.59-.23 3.88-1.5 6.9-5.58 8.05-1.22 1.75-3.01 2.36-5.03 2.45-2.27.11-4.54.07-6.8.07-88.58 0-177.16 0-265.73.02-2.13 0-4.32-.41-6.37.54-1.59 2.5-4.1 1.08-6.2 1.43z"
            fill="#46bd5a" stroke-width="0" />
        <path
            d="M397.69 19.66c2.25 3.3 3.66 6.91 3.89 10.93.65.96-.21 1.59-.51 2.35-.5 1.27-.33 2.32 1.02 2.97-.02 30.37-.05 60.74-.05 91.11 0 44.2 0 88.4.07 132.6 0 2.54-.16 4.09-3.25 4.59-3.51.57-4.42 3.35-2.02 5.87 2.66 2.79 2.47 5.58.86 8.56-4.02 7.46-10.31 11.78-18.71 12.78-3.63.43-7.32.31-10.98.54-2.03.13-3.13-.51-2.86-2.71.04-.32 0-.65 0-.97-.07-4.26-.07-4.28 4.23-4.53 9.02-.53 15.82-4.41 19.86-12.76 1.23-2.55 1.29-5.19 1.29-7.88 0-36.1-.02-72.2-.02-108.31 0-40.1-.03-80.2.01-120.31 0-4.92-.97-9.42-4.16-13.28-.92-1.11-1.51-2.12.3-2.92 2.37-2.8 4.76-1.29 7.15-.03 1.22.68 2.29 1.75 3.88 1.39z"
            fill="#4abc5a" stroke-width="0" />
        <path
            d="M115.35 11.87c-8.91-.04-17.82-.2-26.73-.05-3.44.06-5.6-.94-6.17-4.48.22-3.49.88-4.2 4.36-4.34 2.42-.09 4.88-.29 7.14.93.93 1.15 1.81 1.06 2.62-.15 1.08-.85 2.34-1.03 3.67-1.04 12.58-.07 25.16-.02 37.74.02 16.41.05 32.82-.27 49.22 0 12.31.2 24.62.01 36.93.09 10.44.06 20.91.02 31.33.22 13.7.27 27.36-.46 41.05-.3 16.07.19 32.16.22 48.24-.03 2.71-.04 5.37.48 8.07.41 1.63 1 3.25 1.37 4.84-.12 6.01-.67 12.04-.35 18.05-.28 1.57.02 2.66.75 2.97 2.4.01.11.05.23.03.32-1.94 6.39-1.94 6.36-8.48 6.35-76.84-.02-153.67-.03-230.51-.04-.97 0-1.94.1-2.91.15-.54.56-1.2 1.05-1.96 1.04-6.52-.04-13.13 1.36-19.51-1.1z"
            fill="#4dc35b" stroke-width="0" />
        <path
            d="M64.6 129.82c.05 19.67.12 39.34.15 59.01.03 22.7-.05 45.4.08 68.09.08 13.28 9.32 24.8 21.72 26.44 6.38.84 12.95.2 19.43.33 1.05.02 2.91-.78 3.04.76.19 2.3.92 4.73-.11 6.99-.34.74-1.37.47-2.1.46-6.47-.08-13.01.37-19.38-.47-3.73-.5-7.55 1.33-11.1-.7-.91-1.46-2.32-2.27-3.82-2.97-5.66-3.04-10.43-7.11-14.12-12.4-.79-1.14-1.74-2.2-1.88-3.67.77-1.77-.86-2.45-1.61-3.53-1.38-2.37-1.27-4.98-1.26-7.57.07-18.36.09-36.72-.05-55.08-.11-14.78.21-29.56.06-44.34-.02-1.83-.15-3.67.28-5.47 0-.79 1.97-1.29.33-2.35-1-5.48-1.08-10.97.33-16.35.85-3.23 2.97-5.74 6.1-7.2 1.29-.6 2.62-1.13 3.92.01z"
            fill="#4dc25b" stroke-width="0" />
        <path
            d="M83.58 21.5c2.94-.76 5.92-1.09 8.96-1.09 57.62.01 115.24.01 172.86.03 3.16 0 6.42-.12 7.77 3.71 1.43 1.7 1.64 3.35-.22 4.9-.88-2.93-3-4.16-5.9-4.21-2.11-.03-4.23.08-6.35.13-.89.9-2 1.27-3.23 1.25-7.54-.11-15.07.43-22.63.07-3.18-.15-6.29-.34-9.4-.94-1.66-.24-3.33-.67-4.99.05-.25.25-.54.42-.87.53-9.42.56-18.84.56-28.27.49-1.61-.01-3.22-.11-4.82.19-5.18.26-10.35-.06-15.53-.1-7.95-.06-15.9-.47-23.85-.3-.3.09-.6.14-.91.17-8.14-.18-16.28-.05-24.42-.04-.47-.09-.86-.35-1.26-.58-1.18-1.76-2.86-.44-4.14-.4-8.12.24-16.23-1.27-24.35-.05-5.75.86-7.82 2.66-8.19 8.38-.31 4.84-.27 9.7-.25 14.55.05 11.86-.13 23.72.18 35.59.15 5.47-.2 10.97-.09 16.47.01.65-.11 1.3.52 1.76.24.13.32.25.25.38-.08.13-.16.2-.24.2-1.18 3.22-.59 6.57-.59 9.84 0 12.06.24 24.13.1 36.18-.14 12.64.17 25.3-.37 37.95-.11 2.49-.21 5.14.75 7.6-.73 1.28.49 2.56 0 3.84-.55 1.04-.92 2.08-.66 3.31.98 4.72-.09 9.43-.04 14.15-1.44.73-.16 1.66-.19 2.5-.03.94.32 2.03-.83 2.56-1.31.61-2.29.21-2.88-1.13-1.17-8.59-.56-17.22-.57-25.83-.03-37.68 0-75.37-.02-113.05 0-9.91-.16-19.82-.43-29.74-.15-5.67.5-11.38.53-16.79-1.21 1.84-1.4 4.37-2.12 6.72-1.19 1.96-3.06 1.79-4.95 1.57-.53-9.4 3.39-16.31 11.63-20.8z"
            fill="#ece8bd" stroke-width="0" />
        <path
            d="M292.47 283.8c6.7-.04 13.39-.13 20.09-.08 1.6.01 3.91-.92 3.97 2.25.06 3.12-1.36 5.36-4.02 5.66-1.5.17-3.02.25-4.53.24-28.08-.03-56.16-.11-84.24-.13-15.86 0-31.71.08-47.57.12-10.67.03-21.33.06-32 .06-.62 0-1.24-.19-1.86-.29.77-3.15.51-5.93-2.72-7.65 7.64-.1 15.28-.24 22.91-.29 5.28-.03 10.56.08 15.84.13.84.27 1.72.17 2.58.17H289.9c.86 0 1.73.12 2.57-.19z"
            fill="#4bc25a" stroke-width="0" />
        <path
            d="M347 241.66c4.62-.06 9.25-.42 13.85-.11 5.95.39 11.22-1.18 16.33-4.68.05 2.57.2 4.68-.93 6.63-.62 2.51-2.66 3.32-4.82 3.75-2.64.52-5.31.89-8.04.88-75.48-.05-150.96.05-226.44-.06-13.52-.02-27.03.02-40.55.04-2.27 0-4.54.07-6.79-.33-1.89-.54-3.73-1.15-4.59-3.19-.76-1.81-.57-2.9 1.79-2.78 5.27.26 10.57.28 15.82.22 8.94-.1 17.88-.1 26.81-.19 2.69-.03 5.39-.2 8.08.18.16.06.31.05.46-.03 19.76-.32 39.52-.15 59.28-.16 49.16-.01 98.33-.05 147.49.05.76 0 1.51-.02 2.24-.22z"
            fill="#43b752" stroke-width="0" />
        <path
            d="M24.26 50.46c.39.34.82.65 1.16 1.03 7.29 8.23 14.98 16.12 21.85 24.72 1.21 1.51 1.59 2.43.1 4.01-7.33 7.76-14.55 15.61-21.79 23.46-1.05 1.14-1.72.74-2.6-.2C15.57 95.64 8.14 87.83.68 80.05c-.62-.64-1-1.03-.32-1.83 7.68-9.04 15.34-18.1 23.01-27.15.2-.23.52-.37.89-.62z"
            fill="#f5dd05" stroke-width="0" />
        <path
            d="M378.69 5.15c-2.07-2.22-4.72-.87-7.06-.99-4.92-.25-9.87.01-14.81.07-1.11.7-2.18.57-3.24-.12-17.97.02-35.94.03-53.91.08-8.97.03-17.94.1-26.91.23-9.24.14-18.5.28-27.72.09-28.04-.57-56.09-.14-84.13-.41-16.09-.16-32.17.17-48.26.09-5.35-.03-10.7 0-16.04.28-.88.54-1.78.56-2.71.13-2.41-.04-4.85-.19-7.22-.41-2.78-.25-3.53 1.16-4.24 3.14C79.7.11 79.7.04 87.5.04 165.28.01 243.06 0 320.84 0c18.15 0 36.29 0 54.44.03 5.84 0 5.84.03 3.42 5.12z"
            fill="#ecebbe" stroke-width="0" />
        <path
            d="M375.57 256.41c-5.76 4.09-12.39 3.59-18.92 3.57-13.93-.03-27.86-.11-41.8-.17-.22 0-.47.07-.64-.02-1.39-.71-1.38 2.37-2.57 1.12-1.21-1.27-2.58-.69-3.84-.97-1.19-.26-2.44-.47-3.59.65-.7.68-.85-1.12-2.04-.92-1.91.33-3.93.11-5.9.12-19.97.09-39.95.49-59.92.21-27.43-.38-54.85.07-82.28.02-20.93-.04-41.86-.23-62.79-.38-3.03-.02-6.08-.09-8.5-2.34-.48-.44-.87-1.07-.61-1.73.26-.66.94-.33 1.41-.25 9 1.58 18.07.5 27.09.56 29.71.2 59.41.18 89.12.22 26.67.04 53.34.19 80.01.02 27.63-.18 55.26-.31 82.89-.03 4.14.04 8.44-.02 12.24-2.28 1.31.6.72 1.66.63 2.6z"
            fill="#2b2018" stroke-width="0" />
        <path
            d="M89.55 246.13c4.36 1.16 8.79.38 13.19.39 52.28.08 104.55.09 156.83.12 34.24.02 68.49.04 102.73.04 4.87 0 9.72-.26 13.95-3.18.56.99.66 2.08.64 3.18-3.74 3.02-8.23 3.63-12.77 3.69-14.26.17-28.51.04-42.77-.14-13.28-.17-26.56-.09-39.84.02-28.07.21-56.13-.36-84.2-.19-17.07.1-34.13 0-51.2.07-3.98.02-7.96.33-11.94.51-9.03.36-18.06.66-27.08-.16-4.78-.83-9.59-.22-14.39-.3-5.09-.08-10.2.04-14.73-2.86-1.37-.29-2.7-.64-3.52-1.94-.63-1-1.41-2.12-.52-3.21.8-.97 2.02-.56 2.96-.07 2.57 1.32 5.33 2.15 8.03 3.13 1.41.98 2.9 1.54 4.63.92z"
            fill="#2d1c16" stroke-width="0" />
        <path
            d="M87.02 268.66c-.3-.73-1.86-.89-1.18-1.96.58-.92 1.79-.47 2.72-.48 25.61-.07 51.22-.14 76.82-.15 56.63-.02 113.26 0 169.88 0 9.18 0 18.36.03 27.54.09 3.04.02 6.02-.25 8.94-1.12.72 1.56-1.24 2.05-1.31 3.29-1.65 2.82-4.63 2.43-7.14 2.6-9.21.65-18.43-.17-27.65.06-1.94.05-3.85.09-5.75.53-1.21.06-2.41-.16-3.61-.29-2.11-.36-4.21-.28-6.3.2-6.18-.96-12.42-.4-18.63-.6-9.15-.29-18.31-.33-27.47.02-7.41 1.23-14.87.55-22.3.54-32.42 0-64.85.02-97.27-.03-14.48-.02-28.98.43-43.44-.16-6.06-.25-12.06.19-18.08.08-2.25-.04-4.62-.09-5.78-2.64z"
            fill="#282418" stroke-width="0" />
        <path
            d="M43.9 218.06l.06 52.64c-1.5.93-2.42-.08-3.32-1.03-7.67-8.14-12.63-17.47-13.71-28.86-.52-5.46-.34-10.71.82-16.01.35-1.6.77-3.13 1.75-4.47 2.95-.96 3.44-3.06 2.65-5.76.47-4.22 2.11-7.69 6.15-9.62.33.02.54.33.86.39-.28-.11-.42-.34-.55-.61.5-1.91 1.64-2.46 3.43-1.68 1.67.79 1.64 2.28 1.65 3.82.02 3.73-.24 7.46.21 11.18z"
            fill="#4fbd5a" stroke-width="0" />
        <path
            d="M64.6 129.82c-5.46 1.18-8.62 4.54-9.19 9.93-.5 4.69-.45 9.4-.22 14.1.18.27.16.54-.04.79-.06 13.02-.16 26.04-.17 39.06 0 16.04-.02 32.08.14 48.12.08 8.15-.5 16.32.45 24.46.1.87.12 1.73.83 2.36.85.77 1.21 1.68.82 2.81 4.11 6.42 9.4 11.6 16.02 15.41.5.91.86 1.81-.06 2.69-8.8-2.61-21.45-15.21-21.64-26.55-.36-20.95-.06-41.9-.19-62.85-.12-19.42-.15-38.85-.21-58.27-.01-4.17.62-8.14 3.2-11.61 1.46-1.96 3.22-3.49 5.54-4.24 4.63-1.5 5.03-1.16 4.72 3.79z"
            fill="#e4e4b3" stroke-width="0" />
        <path class="prefix__cls-106"
            d="M87.02 268.66c2.43 1.08 4.99 1.17 7.6 1.17 45.5.02 91 .08 136.49.08 13.95 0 27.89-.15 41.84-.21.42 0 .83.19 1.25.29 2.02-.22 4.13 1.13 4.69 3.02-18.8 0-37.59 0-56.39.02-15.34.01-30.69.05-46.03.06-26.26.02-52.51.05-78.77.01-5.59 0-11.23-.02-16.08-3.52-.17-.83-.23-1.47 1.02-1.28 1.45.22 2.93.25 4.39.37z" />
        <path
            d="M452.08 78.61c2.13 2.85 2.17 6.11 1.25 9.26-.93 3.15-3.49 4.47-6.74 4.52-10.37.15-20.75.26-31.11.55-2.47.07-3.23-.77-3.1-3.15.2-3.77.16-7.55.23-11.33.9-.9 2.02-1.12 3.25-1.16 8.3-.26 16.58-.87 24.89-.67 3.89.09 7.7.48 11.34 1.98z"
            fill="#4ebe58" stroke-width="0" />
        <path class="prefix__cls-99"
            d="M83.55 224.03c1.66 1.14 3.61 2.19 1.46 4.55-7.27-3.13-10.91-9.04-12.53-16.45-.79-3.61-.55-7.32-.55-10.98-.04-31.42-.04-62.84-.04-94.26 0-.54.07-1.07.11-1.61 1.65.13.37 1.58.92 2.04-.1-2.45-.82-5.04.09-7.62.35-.99.53-2.33 1.9-2.19 1.21.12 1.15 1.36 1.2 2.31.06.97.39 1.89.54 2.84.36 10.01.17 20.02.09 30.03-.04 4.96.69 9.9.34 14.85-.9 12.57-.03 25.16-.24 37.74-.12 7.32.29 14.65.29 21.98 0 2.52.44 4.9 1.55 7.19.54 1.11 1.37 2.18 1.07 3.63-.3 1.42.34 2.48 1.61 3.22 1.06.62 1.67 1.66 2.21 2.73z" />
        <path
            d="M278.23 22.3c1.37-2.65 4.12-1.01 6.04-1.94 22.32.03 44.63.05 66.95.09 4.1 0 8.21-.12 12.29.14 6.66.43 11.55 4.66 12.79 10.72-2.45.08-3.78-1.9-5.42-3.16-2.67-2.06-5.56-2.95-8.89-3.44-6.49-.95-12.84-.66-19.33.01-3.51.36-7.37.56-10.94-.98-.78-.34-2.03.6-3.05.58-6.16-.16-12.32 1.66-18.53-.39-1.47-.48-3.69.56-5.59.54-6-.07-12-.14-18-.32-1.38-.04-2.53.41-3.73.89-1.85-.37-3.93-.36-4.59-2.73z"
            fill="#ece7c3" stroke-width="0" />
        <path
            d="M30.47 220.2c-6.07 19.05-1.3 35.48 12.11 49.79.33.36.92.48 1.38.71.19 1.23.76 2.42.29 4.12-14.66-11.34-21.55-26.01-20.19-44.22 1.09-14.63 7.22-26.7 19.84-35.46v6.64c-.88.49-.54 2.56-2.37 1.83-1.84-1.17-2.01.7-2.76 1.52-2.74 2.75-5 5.8-5.88 9.68-1.43 1.52.08 4.35-2.42 5.39z"
            fill="#e8e6ba" stroke-width="0" />
        <path
            d="M75.28 103.49c-.08-1.68-.16-3.36-.25-5.32-2.47 3.65-1.59 7.59-1.95 11.62-1.04-1.58 0-3.29-1.09-4.51-.02-20.99-.03-41.98-.05-62.97.89-2.29 2.29-1.6 3.74-.64 1.39.72 1.46 2.05 1.47 3.36.11 11.66.08 23.33-.02 34.99-.01 1.59-.33 3.03-2.03 3.69 2.13.29 1.99 2 2.03 3.46.14 4.32.13 8.64 0 12.96-.04 1.41-.11 2.88-1.86 3.38z"
            fill="#ebeeb0" stroke-width="0" />
        <path
            d="M335.56 283.84c7.21-.53 14.43-.14 21.64-.19 1.26-.01 1.61.49 1.74 1.68.68 6.25.39 6.61-5.8 6.61-5.82 0-11.64.01-17.46-.01-1.15 0-2.39.31-3.41-.57-2.03-2.14-.78-3.93.71-5.58.71-.79 1.83-1.13 2.58-1.93z"
            fill="#4abf58" stroke-width="0" />
        <path
            d="M84.77 246.05c-3.84 0-6.96-2.06-10.47-3.92.18 2.77 2.58 3.51 3.68 5.17-1.81 3.08-1.56 6.42.32 8.71 1.06 1.3 4.34 2.68.47 4.68-.51.27.09.93.44 1.31 1.57 1.73 1.6 3.55.34 5.45-.95-.25-1.78-.44-2.55-1.35-3.3-3.88-4.78-8.37-4.85-13.34-.09-6.45-.02-12.9-.02-19.73 3.46 3.69 7.28 6.62 12.11 7.92-.02 1.82 1.63 3.19 1.32 5.08-.01.07-.15.14-.24.19-.18.09-.36.03-.54-.14z"
            fill="#e9e7c6" stroke-width="0" />
        <path class="prefix__cls-169"
            d="M278.88 273c-1.23-2.02-3.57-.34-5.1-1.34.31-1.43 1.77-.5 2.37-1.53-.72-.05-1.34-.1-1.95-.15.4-.12.81-.35 1.22-.36 14.78-.26 29.55-.18 44.33.34 2.18.15 4.34 1.58 6.53.05 1.08 0 2.16.01 3.24.02 6.88.73 13.79.13 20.68.32 1.08.03 2.16-.01 3.24.01.76.02 1.63 0 1.55 1.1-.05.76-.7 1.05-1.38 1.08-2.05.1-4.1.12-6.15-.04-2.54-.21-5.1-.6-7.62.23-.36 0-.73-.02-1.09-.02-1.46-.86-3.05-.16-4.55-.43 1.5.22 3.07-.41 4.52.44-6.96.65-13.92.42-20.89.32-1.7-.78-3.46-.43-5.2-.24l-4.61.17c-1.48.05-2.96-.49-4.45-.07-.87.02-1.75.04-2.62.05-3.95-.55-7.89-.46-11.84-.05h-1.78c-2.59.07-5.18-.68-7.76.09h-.68z" />
        <path
            d="M452.08 78.61c-.59.22-1.24.73-1.76.62-10.38-2.16-20.83-.72-31.24-.7-2.16 0-4.31-.04-6.47-.07-.23-5.32-.99-4.6 4.07-4.65 9.4-.08 18.8-.44 28.2.22 3.29.23 5.75 1.55 7.21 4.57z"
            fill="#ebe7bb" stroke-width="0" />
        <path
            d="M447.31 214.05c2.87 3.65 2.94 9.47 10.24 7.64-3.69 4.18-7.82 7.2-4.46 12.97-4.1-3.56-7.74-3.52-11.67-.19 1.82-5.12.47-8.94-4.02-12.08 6.46.95 8.04-3.52 9.91-8.33z"
            fill="#f3df02" stroke-width="0" />
        <path
            d="M8.73 169.95c5.36-.7 8.36-3.54 9.25-9.14 2.89 3.73 3.39 9.37 9.91 8.04-3.03 3.77-7.15 6.76-3.83 12.37-3.62-2.6-6.93-3.13-10.52.06 1.69-5.26-.11-8.75-4.81-11.34z"
            fill="#f5df03" stroke-width="0" />
        <g id="prefix__Battery" stroke-width="0">
            <path
                d="M445.58 197.34c.05-24.42.11-48.84.15-73.26 0-5.62-.2-11.24 0-16.86.11-3.24-1.17-4.03-4.18-3.96-8.64.2-17.29.14-25.94.17-1.5 0-3.12.26-3.05-2.17.07-2.34 1.7-1.82 2.99-1.82 9.08-.01 18.16-.01 27.24.05 4.35.03 6.14 1.83 6.14 6.08 0 29.61-.03 59.22-.08 88.83 0 2.44.3 5.1-2.52 6.51-1.22-.98-1.03-2.26-.75-3.56z"
                fill="#dc2829" />
            <path
                d="M426.75 192.82c-3.77 0-7.54-.09-11.3.03-2.94.09-2.93-1.77-2.93-3.84 0-2-.27-3.91 2.79-3.87 7.53.09 15.07.02 22.6-.06 3.27-.04 2.8 2.42 2.89 4.3.1 1.95-.43 3.57-3.07 3.46-3.65-.15-7.32-.04-10.98-.04v.02z"
                fill="#e72620" />
            <path
                d="M426.19 181.15c-3.56 0-7.13-.07-10.69.02-2.58.06-2.95-1.38-3-3.51-.06-2.14.5-3.14 2.85-3.15 7.34-.02 14.68-.15 22.02-.36 2.64-.07 3.25 1.2 3.27 3.55.03 2.51-.93 3.52-3.44 3.45-3.67-.11-7.34-.03-11.01-.03v.03z"
                fill="#e42723" />
            <path
                d="M427.05 162.86c3.56 0 7.12.08 10.67-.03 2.67-.08 2.93 1.52 2.86 3.56-.07 1.9.45 3.98-2.67 3.98-7.53 0-15.06.16-22.6.27-2.07.03-2.92-1-2.74-3.02.16-1.91-.76-4.47 2.52-4.54 3.99-.09 7.98-.02 11.96-.02v-.2z"
                fill="#e92220" />
            <path
                d="M426.01 159.09c-3.55 0-7.11-.12-10.65.04-2.54.12-2.78-1.28-2.73-3.22.04-1.76-.25-3.45 2.47-3.47 7.53-.04 15.06-.17 22.59-.42 2.75-.09 2.78 1.48 2.87 3.48.1 2.19-.43 3.56-2.92 3.53-3.87-.04-7.75-.01-11.62-.01v.06z"
                fill="#e82121" />
            <path
                d="M426.09 148.04c-3.66 0-7.32-.06-10.98.02-1.84.04-2.59-.76-2.41-2.51.18-1.66-.72-4 2.25-4.08 7.75-.19 15.5-.32 23.24-.51 2.18-.05 2.45 1.29 2.35 2.96-.1 1.59.65 3.7-2.19 3.69-4.09-.02-8.17 0-12.26 0v.42z"
                fill="#e32524" />
            <path
                d="M426.53 136.98c-3.78 0-7.57-.09-11.34.03-2.71.08-2.56-1.66-2.51-3.45.05-1.67-.45-3.58 2.36-3.57 7.67.02 15.34-.03 23.01-.15 3.04-.05 2.35 2.09 2.47 3.81.14 1.94-.13 3.4-2.66 3.33-3.78-.1-7.56-.03-11.34-.03v.02z"
                fill="#e7271f" />
            <path
                d="M426.83 118.87c3.78 0 7.56.08 11.34-.03 2.44-.07 2.52 1.42 2.45 3.17-.07 1.7.31 3.5-2.47 3.49-7.23-.01-14.46.24-21.68.24-3.25 0-4.86-2.67-3.72-5.7.47-1.24 1.48-1.09 2.42-1.09 3.89-.03 7.78-.01 11.66-.01v-.07z"
                fill="#ea2120" />
            <path
                d="M426.68 107.77c3.78 0 7.56.13 11.33-.04 2.94-.13 2.6 1.79 2.7 3.62.11 1.92-.03 3.38-2.59 3.37-7.44-.02-14.88.06-22.31.19-2.88.05-3.25-1.55-3.33-3.93-.08-2.47.83-3.21 3.18-3.11 3.66.15 7.34.04 11.01.04v-.14z"
                fill="#e92721" />
            <path
                d="M445.58 198.34c1.26.97 1.29 2.21.75 3.56-4.08 1.46-8.31.76-12.48.85-6.24.13-12.48.04-18.72.11-1.72.02-2.52-.49-2.58-2.37-.06-2.08 1.03-2.23 2.62-2.22 10.14.05 20.27.06 30.41.08z"
                fill="#e7261d" />
        </g>
        <path
            d="M347 241.66c-1.05 1.2-2.46.64-3.68.64-35.76-.02-71.52-.11-107.29-.14-28.65-.03-57.29.02-85.94-.04-4.03 0-8.09 1.18-12.1-.13 2.59-1.02 5.3-.47 7.95-.47 58.16-.03 116.33-.01 174.49.01 8.86 0 17.71.08 26.57.13z"
            fill="#5ca96c" stroke-width="0" />
        <path
            d="M19.9 18.8c3.87 0 7.75-.03 11.62.02 1.26.02 2.71-.04 2.8 1.87.1 1.9-1.07 2.42-2.65 2.44-7.75.1-15.5.18-23.25.24-1.61.01-2.66-.67-2.7-2.48-.05-2.16 1.46-2.04 2.87-2.04 3.77-.01 7.53 0 11.3 0v-.04z"
            fill="#f1d905" stroke-width="0" />
        <path
            d="M441.11 28.29c-3.45 0-6.9-.04-10.34.02-1.96.04-3.64-.5-3.62-2.67.02-2.17 2-1.88 3.44-1.89 6.79-.05 13.58-.07 20.36-.02 1.56.01 3.64-.15 3.64 2.16 0 2.41-1.99 2.35-3.78 2.33-3.23-.04-6.47-.01-9.7-.01v.09z"
            fill="#f2dc05" stroke-width="0" />
        <path
            d="M449.64 282.06c-1.14-4.51-4.62-6.4-9.04-8.75 5.72-1.07 7.72-5 9.64-8.86 1.43.83 1.41 2.07 1.72 3.02.71 2.2 1.88 3.76 4.12 4.56 1.67.59 2.46 1.67.31 2.62-3.26 1.44-5.3 3.87-6.75 7.4z"
            fill="#ebe1c3" stroke-width="0" />
        <path
            d="M292.47 283.8c-1.08.72-2.3.49-3.47.5-35.84.01-71.68 0-107.52 0-1.07 0-2.17.2-3.14-.48 20.64-.05 41.28-.14 61.92-.15 17.4 0 34.8.08 52.2.13z"
            fill="#67b16f" stroke-width="0" />
        <path class="prefix__cls-106"
            d="M339.84 272.74c2.05-1.46 4.37-.51 6.56-.74 2.57-.27 5.22.43 7.96-.47-1.01-1.25-2.15-.81-3.12-.81-6.12-.05-12.23-.01-18.35-.03-1.16 0-2.38.25-3.38-.64 10.41-.03 20.82-.07 31.22-.08 3.33 0 6.59-.33 9.7-1.63l4.65-2.46c-1.01 2.2-2.48 3.93-4.57 5.07-1.91-.84-3.58 1.68-5.51.32.64.51 1.81-.09 2.04 1.13-1.95.36-3.88.9-5.89.58-4.81-.18-9.62.32-14.42-.28-2.29.33-4.59.26-6.88.05z" />
        <path
            d="M120.13 283.81c1.28-.05 2.57-.13 3.85-.13 5.22 0 5.09.01 5.15 5.36.02 2.17-.8 2.86-2.75 2.83-1.5-.02-3.02-.11-4.49.08-1.56.19-2.03-.78-2.52-1.87.13-2.1 1.2-4.09.76-6.27z"
            fill="#53be55" stroke-width="0" />
        <path
            d="M393.74 18.94c-.19.09-.48.31-.57.25-2.03-1.38-4.25-1.29-6.51-.9-3.43-.54-5.24-2.32-4.57-5.99.83-2.34 2.54-2.43 4.38-1.49 2.58 1.32 5.03 2.87 6.69 5.37.51.85 1.22 1.66.59 2.76z"
            fill="#6ac65e" stroke-width="0" />
        <path
            d="M84.77 246.05c.82-1.81-2.4-3.2-.54-5.12 8.13 1.1 16.29.42 24.44.56 8.81.14 17.63 0 26.45.02.82 0 1.74-.29 2.41.51-7.74.05-15.47.17-23.21.11-2.79-.02-5.57.63-8.37.05-.85-.18-1.73.01-2.22.94-.29.55-.75.78-1.32.44-5.01-3.03-10.49-.67-15.7-1.37-1.25-.17-1.39.57-.99 1.65.68 1.84 2.1 2.3 3.84 2.3-1.61.94-3.2.71-4.79-.07z"
            fill="#5da567" stroke-width="0" />
        <path
            d="M120.13 283.81c2.77 2.56 2.75 2.73-.76 6.27.07 2.19-1.65 1.55-2.74 1.59-1.59.06-1.01-1.27-1.09-2.12-.04-.42 0-.86 0-1.29q.05-4.5 4.59-4.45z"
            fill="#e1e3ba" stroke-width="0" />
        <path
            d="M335.56 283.84c.27 1.48.27 2.5-1.7 3.04-2.13.59-1.16 2.92-1.59 4.47-2.88 1.07-3.77.55-3.93-2.31q-.3-5.33 7.21-5.21z"
            fill="#e6e1c3" stroke-width="0" />
        <path
            d="M392.52 16.93c-1.68-1.96-3.85-3.33-5.95-4.76-1.39-.95-3.05-1.67-4.48.14-.08-.89.24-1.67.59-2.46.88-2 1.88-2.82 4.1-1.37 2.88 1.89 5.78 3.69 7.8 6.56-.2 1.16-.42 2.29-2.06 1.89z"
            fill="#dde2c2" stroke-width="0" />
        <path
            d="M64.9 113.68c0 1.18-.04 2.36.01 3.53.05 1.2-.35 1.74-1.65 1.67-1.15-.06-2.16-.02-2.17-1.59-.01-2.36-.02-4.72-.15-7.07-.08-1.51.49-2.07 2.01-2.15 1.62-.08 2.09.63 2.05 2.07-.04 1.18 0 2.36 0 3.54h-.09z"
            fill="#e2e1c0" stroke-width="0" />
        <path d="M139.59 283.98c4.9.3 5.91 1.93 4.21 6.67-.28.78-.9.81-1.49.98-3.13-1.94-3.9-4.11-2.72-7.65z"
            fill="#dfe1bb" stroke-width="0" />
        <path
            d="M392.52 16.93c.69-.63 1.37-1.26 2.06-1.89 1.52 1.21 2.3 2.93 3.11 4.62-1.99 3.46-2.93 1.2-3.95-.71-.41-.67-.81-1.34-1.22-2.01z"
            fill="#abd898" stroke-width="0" />
        <path class="prefix__cls-106"
            d="M289.1 272.91c-.1-.26-.2-.52-.31-.78 3.93-.05 7.87-.6 11.77.33.16.04.26.33.38.5-3.95.29-7.9.31-11.84-.05z" />
        <path
            d="M402.09 35.9c-.63.39-.35 1.62-1.31 1.59-.77-.02-.8-.9-1.02-1.44-.99-2.33-.8-4.32 1.82-5.47 1.05 1.69.5 3.53.51 5.32z"
            fill="#408c42" stroke-width="0" />
        <path
            d="M41.52 203.6c1.13-.18.25-2.94 2.37-1.83v16.29c-1.11-3.44-.57-7.06-.69-10.55-.06-1.88-.64-2.81-1.68-3.91z"
            fill="#78cf71" stroke-width="0" />
        <path class="prefix__cls-169"
            d="M367.03 272.39c-1.58-.91-3.56.09-5.13-1.24 2.92.54 5.67-1.85 8.61-.22-1.04.77-2.22 1.19-3.47 1.45zM346.72 272.69c4.81.08 9.63-.44 14.42.28-4.81.12-9.63.45-14.42-.28z" />
        <path class="prefix__cls-106" d="M279.55 273c2.57-1.83 5.16-.88 7.76-.09-2.58.36-5.17.35-7.76.09z" />
        <path d="M73.18 289.56l.06-2.69c1.5.91 3.31 1.58 3.1 3.87-1.14-.15-2.27-.34-3.15-1.18z" fill="#cce27f"
            stroke-width="0" />
        <path class="prefix__cls-106"
            d="M312.62 272.8c1.82-1.75 3.55-1.53 5.2.24-1.75.16-3.49.39-5.2-.24zM303.56 272.9c1.5-1.34 2.98-.6 4.45.07-1.49.27-2.97.38-4.45-.07z" />
        <path class="prefix__cls-20"
            d="M127.3 97.22c3.98 3.93 4.98 13.52 1.92 18.17-.54.83-1.05 1.63-2.22 1.58-1.56-.08-2.16-1.22-2.73-2.4-2.41-4.99-.96-13.24 3.03-17.35zM141.96 144.2c-.13 1.28-.81 1.93-2.13 1.84-2.78-.17-6.2-4.59-5.59-7.26.22-.99.7-1.81.99-1.8 2.76.18 6.93 5.33 6.73 7.22zM143.64 82.97c-1.22.89-2.76 1.66-4.01.03-1.25-1.62-.61-3.05.87-4.17 2.49-1.88 5.19-3.36 8.97-4.18-1.48 3.64-3.15 6.37-5.83 8.32zM158.27 161.68h6.25c-2.47 1.35-4.37.79-6.25 0zM155.75 159.32c-1.74-.61-1.7-1.64-1.3-2.98 1.23-4.16 4.87-4.3 8.24-4.91l.76-.03c2.66-.2 5.26-1.15 7.98-.66-1.5 7.02-8.4 11.1-15.68 8.58zM173.35 134.64c-6.87 3.37-13.88 2.73-19.89-1.8-8.02-6.06-10.37-14.77-8.6-24.32 1.61-8.7 7.49-13.89 16.03-15.84 12.34-2.82 23.83 6.69 24.57 20.16.04.76 0 1.51 0 2.27-.36 8.78-4.11 15.6-12.11 19.53zM195.42 89.93c-3.78-1.51-7.09-3.64-8.56-7.69-.77-2.11-.12-3.28 1.54-3.2 2.98.16 8.96 6.54 8.78 9.4-.07 1.09-.43 2.03-1.76 1.49zM193.91 135.92c.91-4.32 2.02-8.52 6.21-11.13 1.28-.8 2.96.49 3.96-1.24.4 5.97-1.26 10.87-5.68 14.62-.89.75-1.88 1.65-3.16 1.09-1.42-.63-1.59-2.09-1.33-3.34z" />
        <path class="prefix__cls-20"
            d="M219.82 113.75c.08 29.35-19.78 53.7-48.82 57.93-22.58 3.3-40.8-5.86-54.87-23.54-.12-.15-.1-.41-.14-.62-2.74-3.06-4.46-6.68-5.75-10.53-5.36-11.76-6.15-23.98-2.53-36.22 6.48-21.95 21.03-35.98 43.14-42.07.82-.22 1.71-.2 2.57-.29 3.46-.91 6.97-1.32 10.55-.98 4.9-.24 9.65.75 14.37 1.89 1.74 1.42 4.05 1.03 5.96 1.94 19.53 9.31 31.74 24.21 35.09 45.88.15.95.62 2.22-.61 2.43-1.28.23-.85-1.22-.98-1.93-4.36-23.17-17.28-38.93-39.95-46.28-.09-.03-.15-.15-.23-.22-4.86-.77-9.73-1.51-14.68-1.24-1.59.52-3.08 2.42-4.83-.01-.43-.59-.15 1.47-1.25 1.18-3.61 1.1-7.61 1.56-10.76 3.43-9.68 5.76-20.5 10.5-24.26 22.67-.08.25-.35.43-.54.64.08.21.05.4-.1.57-.89 3.33-1.64 6.7-3.33 9.75.47 2.6-.9 5.05-.63 7.63-.99.91-.37 4.39-3.51 1.98-.81-.62.08 2.87-2.15 2.09-.47 3-.78 6.02-.64 9.07 2.75 15.95 9.31 29.69 23.06 39.1 7.37 5.05 15.49 8.15 24.31 10.19 22.68 5.26 51.87-11.62 58.26-41.57.9-4.23 1.42-8.5 1.39-12.84 0-.98-.25-2.59 1.25-2.47 1.21.1.61 1.59.61 2.44z" />
        <path class="prefix__cls-20"
            d="M231.83 97.66c-.62-2.14-1.06-4.09.47-5.98-.15-.42-.34-.75-.58-.98-.22-.23-.49-.37-.79-.44-.36-.08-.78-.04-1.26.11-1.25.32-1.28-.89-1.66-1.47-4.67-7.31-9.87-14.14-16.52-19.82-17.87-15.27-38.31-21.6-61.27-15.83-37.8 9.51-62.18 49.88-44.66 89.14 8.89 19.92 23.62 34.34 44.7 40.12 24.2 6.65 46.25.5 65.42-15.73.79-.67 1.33-2.19 2.85-1.15.31-.14.6-.3.85-.5a4.09 4.09 0 001.25-1.54c-.73-1.26.28-1.94.89-2.8 3.03-4.19 6.02-8.42 8.06-13.21 6.99-16.35 7.16-33.04 2.25-49.92zm-9.34 59.2c-1.37 1.95-3.18 3.81-2.77 6.52-1.04-.16-1.63.16-1.47 1.24-1.49-.31-2.69.52-3.79 1.54-7.36 6.86-16.09 11.18-25.65 14.01-10.89 3.23-21.91 4.88-33.22 2.44-16.21-3.5-29.22-12.22-39.36-25.07-12.21-15.49-17.57-33.03-13.9-52.77 2.87-15.4 10.81-27.86 22.97-37.6 16.07-12.87 34.45-17.37 54.47-13.03 16.85 3.65 30.31 13.22 40.97 26.72 2.01 2.55 3.68 5.33 5.58 7.95.87 1.2 1.63 2.66 3.55 2.23.14-.08.27-.17.4-.26h.01c.31.22.61.43.94.6-.04.04-.07.09-.1.13-1.9 2.4-1.02 4.93-.27 7.41 3.22 10.53 3.25 21.28 2 32.06-1.1 9.53-4.85 18.06-10.36 25.88z" />
        <path
            d="M324.99 181.22c6.97-7.26 15.28-10.33 25.29-8.07.63.14 1.26.23 1.9.34.78-.18 1.51-.22 1.86.72.33.54.89.47 1.4.51 4.43.53 9.48 4.45 10.09 7.82 4.57 5.69 6.99 12.17 7.12 19.48-.6 5.19-2.01 10.07-4.86 14.54-3.76 5.89-9.04 8.98-15.95 9.67-11.26 1.13-20.62-2.18-27.66-11.29-.47-1.66-1.73-2.48-3.23-3.03-.59-.37-1.18-.74-1.76-1.11-.19-1.75-2.99-1.65-2.67-3.76 3.11.13 1.39-2.3 1.88-3.55-.32-.93-.31-1.85.24-3.2 1.22 3.21 4.14 3.58 6.65 4.63.76.39 1.21 1.03 1.51 1.8.11.3.16.61.17.93.16 4.09 1.25 5.21 4.94 5.05 1.22.04 2.35.43 3.39.99 7.28 3.87 16.66.21 20.95-6.24 4.49-6.76 3.54-15.95-2.64-21.34-.3-.26-.56-.55-.84-.83 7.14 5.97 7.55 14.61 4.52 20.3-3.07 5.76-7.88 9.09-14.48 9.27-6.92.19-11.39-3.82-14.81-9.33-5.16-10.71-.37-20.06 13.17-25.3-3.09-.05-5.44 1.21-7.72 2.6-1.1.67-2.14 1.45-3.51 1.47-1.65-1.01-4.19-.61-4.96-3.07z"
            fill="#23161a" stroke-width="0" />
        <path
            d="M75.28 103.49c.37-6.56.9-13.08 0-19.7-.27-2.03.11-4.46.22-6.71.57-11.81.17-23.62.18-35.42.09-5.07 1.98-9.35 5.53-13.12-2.43 17.09-.87 34.02-.97 50.9-.22 37.93-.1 75.86-.07 113.8 0 8.95.17 17.9.26 26.84.61.99 1.93-.27 2.52.8.62.97.68 2.04.61 3.15-5.5-3.48-7.27-9.36-7.52-14.97-.67-15.37-.43-30.77-.5-46.16-.05-11.1.03-22.2 0-33.3-.03-8.7-.16-17.4-.25-26.1z"
            fill="#5eb95e" stroke-width="0" />
        <path
            d="M146.45 25.43c4.76-.92 9.56-.33 14.34-.31 7.61.02 15.21.1 22.82.19.85 0 1.69.21 2.54.32 2.15 1.41 4.36.14 6.54.14 6.42 0 12.85.23 19.27-.18 2.64-.17 5.28.03 7.91-.16.19-.02.39-.02.58-.03-.08 3.41-1.92 4.77-7.08 5.24-.71-1.06-1.36-2.99-2.85-1.01-1.42 1.88-2.61 1.14-4.01.28-.47 0-1.26-.43-.81.68 1.84.79 3.37 1.47 4.88-.92 1.17-1.85 2.06-.04 2.76 1 .04 3.94-3.67 1.79-5.19 3.19-.86 1.47-2.32 1.42-3.71 1.42-20.03 0-40.06.23-60.08-.12-3.23-.06-6.45.42-9.67.01-1.08-.16-1.83-.89-2.63-1.56-.98-.82-2.03-1.52-3.35-.64-2.21.46-3.66 3.1-6.34 2.2-.96.06-1.59 1.8-2.8.57-1.05-1.08.53-1.37.65-2.08.54-3.31-2.06-2.69-4.16-3.12 2.69-.05 0-5.18 4.02-3.74 1.43.95 1.12-.92 1.84-1.13 5.62-1.04 11.31-.7 16.96-.56 2.52.06 5.13-.67 7.62.32.36.42.14 1.02.43 1.46-.3-.44-.05-1.06-.48-1.45z"
            fill="#47c25a" stroke-width="0" />
        <path class="prefix__cls-138"
            d="M319.84 210.18c-.14.21-.36.42-.66.64-14.67-.97-29.36-.37-44.04-.42-7.84-.03-14.05-2.5-19.58-8.17-11.14-11.42-22.75-22.39-34.15-33.55-1-.98-1.92-2.03-2.88-3.05a4.75 4.75 0 01-.28-1.01c-.16-1.08.43-1.4 1.47-1.24.27.04.58.11.91.21 7.64 6.19 14.1 13.61 21.17 20.4 6.23 5.97 12.36 12.06 18.38 18.25 4.1 4.21 9.22 4.52 14.55 4.54 13.93.06 27.85.18 41.78.28.53.24 1.09.44 1.62.69.3.13.6.27.89.44.99.58 1.33 1.26.82 1.99z" />
        <path
            d="M133.56 33.74c3.07-.31 6.33 1.24 9.2-.95.65.93 1.53 1.15 2.66 1.15 20.91-.06 41.82-.07 62.72-.1 2.14.22 4.3-.02 6.41.64 3.59 1.12 5.95 4.29 5.8 7.99-.04 1.02-.09 2.06-1.32 2.26-1.47.24-.99-1.07-1.2-1.77-1.31-4.29-3.11-5.71-7.78-5.7-19 .06-38 .21-57 .26-5.94.02-11.87-.21-17.81-.28-4.69-.05-8.88.75-10.08 6.34-.21.98-.62 1.95-1.99 1.32a2.87 2.87 0 01-.7-.85c-1.08-6.79 1.97-10.53 9.01-11.04.72.14 1.38.47 2.06.72z"
            fill="#2e211e" stroke-width="0" />
        <path
            d="M158 203.3c0-3.02.16-6.05-.06-9.06-.13-1.71.46-2.07 1.93-2.04 3.34.08 6.69.03 10.03.14 2.39.08 4.07 1.47 5.02 3.53 1.14 2.47.76 5.2-1.07 6.94-2.25 2.14-1.74 3.98-.66 6.21.61 1.25 1.1 2.58 1.47 3.92.29 1.03 1.13 2.56-.53 2.95-1.41.34-3.29.86-4.21-1.22-.83-1.86-1.85-3.65-2.53-5.56-.52-1.46-1.55-1.71-2.75-1.64-1.88.11-.81 1.63-1 2.49-.21.93.1 2.01-.22 2.88-.36 1.01 1.31 2.97-1.25 3-2.14.03-4.31.31-3.93-3.17.33-3.09.07-6.25.07-9.39h-.32z"
            fill="#261b1b" stroke-width="0" />
        <path
            d="M277.99 26.31c-.28.81-.94 1.58-1.06 2.4-1.85 6.13-6.18 10.74-9.8 15.76-10.63 14.74-21.37 29.4-32.1 44.07-.81 1.12-1.82 2.1-2.73 3.14-.4-.02-.75-.14-1.08-.3-.33-.17-.63-.38-.94-.6h-.01c-.19-.14-.39-.28-.6-.41 10.59-14.51 21.34-28.89 31.69-43.56 4.06-5.76 8.95-11.05 11.58-17.76v-.03c.04-.72.07-1.44.1-2.16l.09-1.99.03-.73c.41-.25.88-1.14 1.23-.61.89 1.37 1 .9 1.78-.15.89-1.19.69.72 1.27.79.08.08.15.16.22.24.56.68.55 1.3.33 1.9z"
            fill="#282618" stroke-width="0" />
        <path
            d="M100.89 204.13c0-3.02.04-6.05-.01-9.07-.03-2.02.78-2.97 2.89-2.9 2.8.1 5.62-.07 8.42.09 3.14.18 4.67 2.51 5.69 5.07 1.19 3-.04 7.2-2.48 9.1-1.85 1.43-3.77 2.65-6.34 1.68-2.35-.89-3.07.24-2.81 2.49.11.96.02 1.95-.08 2.91-.14 1.42-.27 2.74-2.37 2.67-1.9-.06-2.8-.7-2.79-2.64.01-1.62-.14-3.24-.17-4.86-.03-1.51 0-3.02 0-4.53h.05z"
            fill="#261c1a" stroke-width="0" />
        <path
            d="M120.61 194.86c.59-2.08 2-2.83 4.11-2.74 2.91.12 5.82.09 8.74.11 1.19 0 2.62-.25 2.44 1.6-.14 1.45-.23 3.19-2.34 3.23-1.93.04-3.89.08-5.8-.14-1.86-.22-1.97.75-1.83 2.09.12 1.21-.86 3.03 1.68 2.89 1.29-.07 2.59.1 3.88.02 1.74-.11 2.85.1 2.77 2.36-.08 2.11-.79 2.99-2.91 2.74-.96-.11-1.95.07-2.91-.05-1.65-.2-2.78-.36-2.76 2.09.02 2.36.99 2.68 2.89 2.54 1.28-.09 2.59-.08 3.86.1 1.08.15 3.02-.83 2.9 1.37-.1 1.7-.21 3.84-2.98 3.59s-5.56.29-8.36-.26c-1.49-.29-2.62-.81-3.31-2.17-.93-3.13-.37-6.34-.39-9.51-.02-3.29-.47-6.61.31-9.87z"
            fill="#261a18" stroke-width="0" />
        <path
            d="M139.3 204.42c0-2.91-.06-5.83.02-8.74.06-2.29 1.14-3.52 3.66-3.41 2.99.12 6 .13 8.99-.09 1.8-.13 2.22.62 2.42 2.14.23 1.76-.42 2.72-2.15 2.82-2.05.13-4.11.27-6.15.15-2.04-.12-1.89 1.07-1.95 2.44-.07 1.52.11 2.56 2.02 2.35 1.07-.12 2.16.07 3.23-.05 1.47-.15 2.5-.14 2.41 1.88-.09 1.82-.55 2.91-2.58 2.75-.86-.07-1.72-.03-2.58-.13-1.58-.17-2.68-.09-2.6 2.08.08 1.96.48 3.09 2.71 2.94 1.39-.1 2.81-.03 4.2.12.98.1 2.71-.82 2.59 1.25-.09 1.58-.37 3.34-2.61 3.37-3.02.04-6.04.02-9.06.1-1.64.04-2.19-.84-2.57-2.28-.85-3.24-.04-6.45 0-9.67z"
            fill="#251819" stroke-width="0" />
        <path
            d="M225.44 25.35c4.31-.61 8.63-.15 12.95-.14 7.44.02 14.87-.15 22.31-.25.68 4.26-1.87 6.38-5.26 7.94-1.32.77-2.49.14-3.68-.36-3.61-2.03-3.63-2.01-6.59.9-.97.95-1.66 2.34-3.3 2.39-.27-.69-.49-1.41-.84-2.06-.18-.33-.58-.67-.92-.73-.54-.09-.71.43-.7.87.08 3.22-2.98 1.78-4.41 2.7-.92.59-1.79-1.61-2.62-3.07 1.91-.22 3.86.11 4.06-2.31.12-1.36 1.7-3.22-.59-3.73-1.38-.31-3.98-.64-3.68 2.52.04.41-.47 2.11-1.61.72-.84-1.03-1.54.19-2.29-.07-.79-.46-1.38-1.05-1.29-2.06.44-1.54.27-2.79-1.55-3.26z"
            fill="#56c35d" stroke-width="0" />
        <path
            d="M252.16 31.26c1.1.55 2.19 1.09 3.29 1.64 3.11 4.21 3.01 7.4-.4 10.25-2.23 1.86-4.63 2.57-7.22.63-2.23-.12-2.79-1.93-3.56-3.52-.06-1.57-.54-3.12.12-4.72 1.44-3.53 3.47-4.7 7.79-4.28z"
            fill="#24171a" stroke-width="0" />
        <path
            d="M99.8 35.37c2.58 1.54 4.86 3.39 4.32 6.78-.45 2.82-2.49 4.51-5.17 5.1-3.84.85-5.86-1.71-7.64-4.52-1.93-2.92-.33-5.72 1.91-7.21 2.08-1.39 4.34-2.6 6.59-.15z"
            fill="#251917" stroke-width="0" />
        <path
            d="M99.8 35.37c-5.54-.57-8.28 1.8-8.49 7.36-2.34-1.42-3.79-2.99-1.9-5.91 2.22-3.42 6.23-5.66 8.69-4.55 1.34.6 1.91 1.63 1.7 3.09z"
            fill="#e0e0c7" stroke-width="0" />
        <path
            d="M131.51 33.78c-6.46 1.56-8.01 3.45-8.46 10.32-1.83.16-1.63-1.63-2.4-2.49-.35-2.4.75-4.41 1.72-6.46 1.77-1.41 3.58-2.74 5.9-3.09 1.03.67 3.04-.52 3.24 1.72z"
            fill="#d5dabc" stroke-width="0" />
        <path
            d="M252.16 31.26c-5.34 1.01-7.24 3.53-6.85 9.09-1.16.87-1.77-.5-2.67-.67-.26-1.28-.51-2.56-.77-3.84.41-.74.77-1.52 1.25-2.21 2.9-4.16 4.18-4.48 9.04-2.37z"
            fill="#e9ebcf" stroke-width="0" />
        <path
            d="M120.61 194.86c.02 6.46.05 12.92.07 19.38-.96-.83-.74-1.96-.75-3.02-.01-4.85-.02-9.7.04-14.54 0-.61-.57-1.58.64-1.83z"
            fill="#61d978" stroke-width="0" />
        <path class="prefix__cls-99"
            d="M82.95 220.88c-.88-.13-2.04.63-2.52-.8 2.45 0 3.15-.95 1.67-3.08-.12-.17-.27-.32-.4-.49-.79-.99-.89-2.18.24-2.71 1.67-.78.59 1.43 1.49 1.67.1 1.82.74 3.69-.48 5.4z" />
        <path
            d="M242.64 39.68c1.11-.64 1.77.48 2.67.67.83 1.14 1.67 2.29 2.51 3.43-1.54 1.81-2.08-.3-2.88-.84-1.12-.76-2.02-1.83-2.3-3.26z"
            fill="#c0e5a4" stroke-width="0" />
        <path
            d="M121.92 25.66c-.02.99 1.99 1.39.81 2.67-.33.36-.94.78-1.34.71-1.19-.22-1.22-1.29-1.32-2.25.41-.24.57-.58.46-1.05.44-.36.9-.41 1.38-.08z"
            fill="#516745" stroke-width="0" />
        <path
            d="M86.53 138.14c-.91-.28-1.44-.76-1.3-1.62.09-.56.09-1.38.99-1.31.88.07 1.22.68 1.24 1.52.02.75-.52 1.04-.93 1.41z"
            fill="#284421" stroke-width="0" />
        <path class="prefix__cls-138" d="M320.95 211.93c2.12-.1 3.28.98 3.23 3.03-1.08-1.01-2.15-2.02-3.23-3.03z" />
        <path d="M226.99 28.61c.84.43 1.38 1.05 1.29 2.06-.87.39-1.89.95-2.48-.2-.52-1.01.48-1.43 1.19-1.86z"
            fill="#3a472e" stroke-width="0" />
        <path
            d="M84.22 102.61a1.14 1.14 0 010-.58c.88.02 1.28-1.79 2.39-.67.45.46.57 1.29.17 1.8-1.12 1.42-1.47-1.34-2.55-.54z"
            fill="#294e27" stroke-width="0" />
        <path d="M120.64 41.61c1.19.45 1.78 1.49 2.4 2.49.05.27.09.54.14.81-2.5.18-2.51-1.57-2.54-3.29z" fill="#88cf82"
            stroke-width="0" />
        <path
            d="M185.94 212.54c-.07.61-.38 1.03-1.01.97-.67-.06-1.32-.36-1.22-1.16.09-.73.82-1.08 1.42-1.04.5.03.81.63.82 1.23z"
            fill="#32532b" stroke-width="0" />
        <path d="M84.12 198.02c-.51-1.28-1.98-2.56 0-3.84.51 1.28 1.33 2.56 0 3.84z" fill="#366828" stroke-width="0" />
        <path d="M87.44 80.61c0 2.02-.89 2.8-2.14 4.16.24-1.95.64-3.04 2.14-4.16z" fill="#305e30" stroke-width="0" />
        <path class="prefix__cls-128"
            d="M254.76 97.47c-2.39 6.29-3.59 12.83-4.06 19.52l.03 3.1.39 5.86c.41 2.62.82 5.24 1.23 7.85-.84-2.6-2.15-5.07-2.31-7.88.07-1.88-.12-3.73-.5-5.57 0-1.12.03-2.25-.02-3.37.29-1.83.5-3.68.72-5.53.2-1.75.4-3.49.69-5.23.19-1.2.42-2.4.71-3.59.43-1.74.97-3.46 1.88-5.02.01-.03.03-.07.05-.1l.18-.45c4.48-11.43 12.55-19.86 22.72-26.44 4.34-2.81 8.99-5.1 14.08-6.3h.04c.38-.14.75-.28 1.13-.4 4.08-1.4 8.3-1.98 12.62-1.93.36.01.7-.08 1.04-.19.25-.07.49-.15.74-.21.03-.01.05-.01.08-.02 2.94.08 5.71.89 8.39 2.02l-8.36-.93c-5.16 1.14-10.53 1.15-15.62 2.76-16.35 5.77-28.66 16.05-35.85 32.06z" />
        <path class="prefix__cls-128"
            d="M268.34 112.48c-1.16-4.21-.43-8.11 2.39-11.5.73-.88 1.64-2.1 2.95-1.42 1.17.62 1.63 1.97 1.58 3.32-.04 1.4-.23 2.79-.35 4.18h.18v4.54c.01 2.16-1.21 3.61-3.15 3.91-2.02.32-3.11-1.28-3.6-3.04zM276.68 133.44c.6 1.71-.31 3.28-1.8 4.08-1.66.89-2.45-.54-3.32-1.88 1-.31 1.73-.43 2.36-.76.68-.35 1.22-.93 1.05-1.81-.17-.85-.98-.9-1.53-.77-1.06.26-2.73-1.7-3.21.82-.01.05-.4.09-.58.03-.54-.19-.45-.67-.36-1.07.43-1.92 2.1-1.97 3.53-2.14 2.52-.31 3.25 1.75 3.86 3.5zM283.85 143.98c.54.62 1.44 1.25 1.02 2.19-.45 1.01-1.64.84-2.45 1.09-2 .05-5.27-2.92-5.26-4.69.01-1.29 2.58-2.47 3.78-1.57 1.1.82 2 1.93 2.91 2.98zM281.81 89.99c.27-1.76 1.07-3.58 3.45-3.64 1.75-.04 2.71.87 2.63 2.53-.11 2.17-1.61 3.11-2.79 3.39-2.46.12-3.49-1.01-3.29-2.28zM298.47 152.77c2.27-.17 4.2-.31 6.13-.46-1.23 2.12-2.98 2.32-6.13.46zM300.13 83.15c.12-1.99 1.42-2.79 3.28-2.7 1.85.08 3.53.56 3.36 2.91-.15 2.06-1.57 2.87-3.31 3.07-2.11-.26-3.45-1.13-3.33-3.28zM319.41 101.18c10.43 10.55 8.2 25.36-.2 32.8-7.22 6.4-18.25 6.89-25.49 1.15-5.07-3.23-8.78-7.45-9.82-13.6-1.69-6.72.67-12.37 4.67-17.59 6.78-9.98 22.42-11.27 30.84-2.76zM332.77 95.91c-.12 1.46-.83 2.88-3.03 2.85-2-.03-4.1-2.43-4.03-4.64.06-1.98.97-3.2 3.16-3.17 2.35.04 3.9 1.78 3.9 4.96zM332.76 141.14c.07 2.1-1.12 3.1-3.1 3.47-1.57-.11-2.64-.98-2.58-2.61.07-1.73.89-3.1 2.91-3.19 1.61-.07 2.72.51 2.77 2.33zM336.42 110.44c0-1.72.93-2.92 2.73-3.01 2.06-.1 2.82 1.24 2.96 3.3-.03 1.4-.58 2.46-2.46 2.43-1.88-.03-3.23-.66-3.23-2.72zM342.13 125.66c.15 2.09-1.05 3.25-3.04 3.27-1.64.02-2.97-.88-3.02-2.66-.06-2.04 1.36-2.95 2.84-3.38 2.16.03 3.11 1.05 3.22 2.77z" />
        <path class="prefix__cls-128"
            d="M335.36 82.94c-15.97-15.05-38.13-17.35-55.78-5.83-1.1.72-2.2 1.45-3.3 2.17-13 8.88-18.97 21.45-19.4 36.93-.32 3.27.26 6.48.77 9.68.67 3.4 1.22 6.83 3.07 9.85.07.32.07.66.2.95 7.87 18.04 27.53 29.49 47.14 28.64 19.44-.85 42.82-18.55 43.41-45.65.31-14.59-5.54-26.79-16.11-36.74zm-26.49 78.61c-16.56 1.5-34.51-6.59-43.26-23.04-.9-1.7-1.54-3.61-3.34-4.68-.06-.02-.12-.03-.18-.05.81-3.79-.4-7.05-2.9-9.99-.04 0-.09-.01-.13-.01 1.57-2.67 1.51-5.11-.18-7.3.18-.11.37-.27.54-.5.29-.46.49-.97.56-1.51 1.56-12.06 6.99-22.12 15.8-30.41.76-.71 1.48-1.45 1.66-2.51 1.19.3 1.83-.26 2.13-1.36 1.61.41 2.79-.59 4.07-1.29 7.36-4.07 15.25-6.55 23.63-5.53 27.32 3.34 45.04 28.79 39.42 54.59-4.07 18.64-19.04 31.89-37.82 33.59z" />
        <path
            d="M291.97 63.32c-.05.21-.14.4-.25.59-.3.52-.77.98-1.11 1.5-16.35 5.77-28.66 16.05-35.85 32.06-.48.08-.89.13-1.24.14-1.74.04-2.14-.85-1.9-3.41 7.88-16.87 20.71-27.83 38.8-32.53 1.63-.5 1.89.4 1.55 1.65z"
            fill="#eee3cf" stroke-width="0" />
        <path class="prefix__cls-138"
            d="M324.99 181.22c1.36 1.17 4.07.03 4.56 2.68.53 1.41-.23 2.49-.95 3.55-3.05 4.43-4.41 9.19-3.03 14.55.31 1.21.67 2.53-.28 3.69-1.37-.15-2.55-.62-4.17-.24-3.26.76-1.29-2.51-2.36-3.92-.14.75-.25 1.37-.36 1.99-1.26-8.45.47-16.02 6.59-22.29z" />
        <path
            d="M252.35 133.8c-7.28-9.73-6.43-20.33-3.35-31.18 1.18 1.05 1.72 2.29 1.93 3.6.19 1.23.1 2.51-.02 3.77-.22 2.34-.23 4.67-.21 7l.03 3.1c.15 1.95-.62 3.97.39 5.86.41 2.62.82 5.24 1.23 7.85z"
            fill="#f4e756" stroke-width="0" />
        <path class="prefix__cls-132"
            d="M254.76 97.47c-2.39 6.29-3.59 12.83-4.06 19.52-.14-1.85-.28-3.69-.46-5.54-.29-2.96-.67-5.9-1.24-8.83-.51-3.23 1.16-5.79 2.62-8.42.34 1.31 1.03 2.28 2.13 2.86.31.17.64.31 1.01.41z" />
        <path
            d="M306.23 62.65c-5.16 1.14-10.53 1.15-15.62 2.76-.26-.35-.21-.72-.06-1.09.35-.9 1.28-1.84-.13-2.65 4.44-2.02 9.01-2.34 13.72-1.13.87.13 1.67.34 1.98 1.04.12.27.17.62.11 1.07z"
            fill="#efea96" stroke-width="0" />
        <path class="prefix__cls-70"
            d="M365.53 182.55c-3.01-3.06-6.32-5.73-10.09-7.82 3.38-1.91 5.72.85 7.98 2.29 1.23.79 3.47 1.4 3.62 3.97.1 1.7-.61 1.44-1.51 1.56z" />
        <path
            d="M314.59 63.58l-8.36-.93c-.28-.29-.56-.57-.85-.86-.41-.42-.83-.84-1.24-1.25 2.1-1.55 4.98-1.19 6.73.47 1.07 1.02 2.71 1.37 3.72 2.57z"
            stroke-width="0" fill="#f3f139" />
        <path d="M276.93 28.71l.51-4.54c.29-.61.04-1.45.79-1.86 1.59.81 3.69.76 4.59 2.73-1.71 1.63-4.4 1.68-5.89 3.67z"
            fill="#e7e883" stroke-width="0" />
        <path class="prefix__cls-70"
            d="M354.04 174.22c-.64-.18-1.41-.04-1.86-.72.13-1.45-.54-3.69 2.33-2.52 1.22.5 1.54-1.7 2.86-.73-.24 2.04-2.58 2.37-3.33 3.97z" />
        <path
            d="M311.86 42.36c.81.52 1.84.94 1.98 2.11.03.26-.58.88-.7.83-1-.4-1.72-1.17-2.1-2.16-.17-.44.27-.72.82-.78z"
            fill="#9c760f" stroke-width="0" />
        <path
            d="M107.1 250.46c9.03.05 18.05.11 27.08.16-.6.2-1.2.58-1.79.58-8.53.02-17.06 0-25.59-.04-.26 0-.52-.15-.77-.24.36-.16.72-.32 1.08-.47z"
            fill="#6dcd76" stroke-width="0" />
        <path
            d="M395.21 275.26c.27-.41.54-.82.89-1.36.81 1.94-.04 3.14-1.61 3.56-1.45.39-2.8-.36-3.29-1.88-.52-1.6.2-2.93 1.43-3.97.49-.42 1.06-.29 1.32.3.35.79-.68.59-.85 1.03-.27.95-1.16 1.97-.11 2.85.79.67 1.53-.14 2.23-.53z"
            fill="#1b2a0d" stroke-width="0" />
        <path d="M395.26 67.88c-1.79-5.85-1.6-6.33 2.47-6.04-1.62 1.77-2.26 3.79-2.47 6.04z" fill="#406f3b"
            stroke-width="0" />
        <path
            d="M399.7 85.38c-.11 1.11-.69 1.81-1.83 1.73-.98-.07-1.5-.76-1.45-1.74.05-1.07.65-1.91 1.71-1.95 1.18-.05 1.55.89 1.57 1.96z"
            fill="#2a321f" stroke-width="0" />
        <path d="M395.21 275.26c-.6 1.39-1.75 1.67-2.76.81-1.39-1.18-.32-2.23.64-3.13-.24 1.64.04 2.8 2.12 2.32z"
            fill="#8ea684" stroke-width="0" />
        <path
            d="M393.99 135.45c-.31-.28-.81-.56-1.03-.99-.34-.69.24-.97.79-1.01.62-.05 1 .36 1.07.96.06.48-.2.81-.84 1.04z"
            fill="#367637" stroke-width="0" />
        <path d="M93.91 4.61c.86-.9 1.77-.91 2.71-.13-.17.77.71 2.02-.98 2.11-1.45.08-1.8-.76-1.73-1.98z" fill="#3e6035"
            stroke-width="0" />
        <path d="M165.67 9.02c.99-1.04 1.97-2.16 3.48-1.29.19.11.36.65.26.8-1.02 1.5-2.52-.4-3.74.49z" fill="#406832"
            stroke-width="0" />
        <path d="M353.59 4.11c1.09-.24 2.17-.29 3.24.12-.06.43 1.07 1.08-.23 1.27-1.3.19-2.61.38-3-1.39z" fill="#347442"
            stroke-width="0" />
        <path d="M121.41 4.26c.34 1.56 1.45 2.12.6 3.04-.13.15-.66.13-.86-.01-1.06-.76-.11-1.48.25-3.02z" fill="#2a572e"
            stroke-width="0" />
        <path d="M182.44 8.07c.44.06.88.19.79.73-.12.73-.68 1.03-1.37 1.03-.4 0-.93-.05-.81-.65.15-.7.76-.94 1.38-1.11z"
            fill="#345026" stroke-width="0" />
        <path
            d="M60.51 140.03c-.19.86-.46 1.93-1.48 1.6-.54-.17-2.15.17-1.68-1.56.27-1.01.13-2.25 1.59-2.15 1.15.08 1.32 1.2 1.58 2.12z"
            fill="#488343" stroke-width="0" />
        <path
            d="M55.15 154.65c.01-.26.03-.53.04-.79.73-.95 1.55-1.47 2.59-.42.53.53.56 1.08-.03 1.62-1.05.96-1.87.62-2.6-.41z"
            fill="#468a47" stroke-width="0" />
        <path d="M57.22 271.46c-.27-.94-.55-1.87-.82-2.81.76.25 1.9-.07 2.16.91.25.93-.76 1.35-1.34 1.91z"
            fill="#2d4728" stroke-width="0" />
        <path class="prefix__cls-96"
            d="M219.87 25.42c-2.85 1.27-5.87.45-8.79.6-5.68.3-11.39 0-17.07.15-1.3.03-3.79-1.28-3.54 2.05.06.75-1.03.37-1.49-.02-.98-.82-1.89-1.72-2.83-2.59 6.96-.85 13.95-.16 20.92-.34 4.26-.11 8.54-.77 12.79.14z" />
        <path
            d="M18.86 77.17c.21-3.18 2.98-5.82 5.94-5.65 3.22.18 6.23 3.58 6.04 6.82-.17 3.03-3.18 5.67-6.16 5.41-3.38-.3-6.04-3.3-5.82-6.58z"
            fill="#231818" stroke-width="0" />
        <path d="M27.63 70.52c1.87.65 2.87 1 4.67 1.63-2.33.83-3.31.25-4.67-1.63z" fill="#a99214" stroke-width="0" />
        <path class="prefix__cls-106"
            d="M326.27 270.02c-1.1.71-.48 3.3-2.87 2.62-.62-.18-.62-.48.25-1.69-1.27-.6-2.9.2-3.9-.98 2.18.02 4.35.03 6.53.05z" />
        <path
            d="M30.47 220.2c.42-1.97.79-3.96 2.42-5.39.41.09.82.19 1.23.28-.84 1.64-.01 3.59-.76 5.1-.47.95-1.89.05-2.88 0z"
            fill="#4d903c" stroke-width="0" />
        <path d="M38.76 205.12c1.25.1 3.24.03 3.39 1.03.25 1.64-.97.93-1.73.31-.55-.45-1.11-.89-1.66-1.33z"
            fill="#2d7b34" stroke-width="0" />
        <path
            d="M444.24 83.23c1.09-2 2.77-2.51 4.46-1.08 1.75 1.48 2.95 3.42.87 5.66-.13-.07-.27-.13-.4-.19-1.35-.97-.34-4.1-3.3-3.59-.71.08-1.58.48-1.63-.79z"
            fill="#182f13" stroke-width="0" />
        <path class="prefix__cls-7"
            d="M444.24 83.23c.5.75.92-.14 1.39-.07.15.04.29.07.44.11 1.4 1.05 1.35 2.59 1.37 4.1-.13.28-.32.5-.59.66-1.3.26-1.84-.74-2.51-1.52-.82-1.07-.81-2.17-.09-3.29z" />
        <path
            d="M440.3 83.09c-.29 1.35-1.06 1.25-1.79 1.25-.56 0-1.21-.14-1.12-.75.16-1.04 1.06-1.11 1.93-1.03.52.05 1.06.13.99.53z"
            fill="#1b3323" stroke-width="0" />
        <path d="M444.33 86.52c1 .13 1.32 1.56 2.51 1.33.9-.32 1.77-1.2 2.72-.09v.05c-2.27 1.93-3.41 1.65-5.24-1.29z"
            fill="#0a2b08" stroke-width="0" />
        <path class="prefix__cls-106" d="M338.71 272.72h-5.48c1.86-.54 3.73-1.27 5.51 0h-.03z" />
        <path
            d="M185.46 115.11c-.36 8.78-4.11 15.6-12.11 19.53-6.87 3.37-13.88 2.73-19.89-1.8-8.02-6.06-10.37-14.77-8.6-24.32 1.61-8.7 7.49-13.89 16.03-15.84 12.34-2.82 23.83 6.69 24.57 20.16.04.76 0 1.51 0 2.27z"
            fill="#4dbd59" stroke-width="0" />
        <path
            d="M219.82 113.75c.08 29.35-19.78 53.7-48.82 57.93-22.58 3.3-40.8-5.86-54.87-23.54-.12-.15-.1-.41-.14-.62-1.94-3.17-3.06-6.68-4.36-10.11-.07-.2-.15-.4-.23-.59-.14-.38-.29-.76-.44-1.13-2.05-4.86-2.27-10.06-2.74-15.2-.07-.76-.04-1.52.02-2.27.1-1.11.38-2.56 1.52-2.53 1.25.03.74 1.5.78 2.39 0 .36.17.59.4.82 2.75 15.95 9.31 29.69 23.06 39.1 7.37 5.05 15.49 8.15 24.31 10.19 22.68 5.26 51.87-11.62 58.26-41.57.9-4.23 1.42-8.5 1.39-12.84 0-.98-.25-2.59 1.25-2.47 1.21.1.61 1.59.61 2.44z"
            fill="#47ba58" stroke-width="0" />
        <path
            d="M156.86 61.07c-3.61 1.1-7.61 1.56-10.76 3.43-9.68 5.76-20.5 10.5-24.26 22.67-.08.25-.35.43-.54.64.08.21.05.4-.1.57-1.93.73-2.33 2.73-3.43 4.16-.13.19-.29.36-.46.53-.01.01-.01.02-.02.03-1.48 2.15-1.92 4.71-2.48 7.14-.76 3.33-1.86 6.49-3.23 9.59-.47 3-.78 6.02-.64 9.07-1.08-.52-.49-1.72-1.21-2.84-.5 6.97.77 13.34 2.43 19.67.26 1.22 0 1.66-.53 1.68-.36.02-.85-.16-1.39-.42-5.36-11.76-6.15-23.98-2.53-36.22 6.48-21.95 21.03-35.98 43.14-42.07.82-.22 1.71-.2 2.57-.29 2.04-.27 3.49.22 3.44 2.66z"
            fill="#e5e4c6" stroke-width="0" />
        <path
            d="M218.78 109.57c-1.28.23-.85-1.22-.98-1.93-4.36-23.17-17.28-38.93-39.95-46.28-.09-.03-.15-.15-.23-.22-.28-.54-1.53-.13-1.25-1.1.25-.84 1.14-.4 1.75-.61 0 0 .01 0 .02-.01.07-.02.14-.05.2-.1 1.74 1.42 4.05 1.03 5.96 1.94 19.53 9.31 31.74 24.21 35.09 45.88.15.95.62 2.22-.61 2.43z"
            fill="#44be57" stroke-width="0" />
        <path
            d="M129.22 115.39c-.54.83-1.05 1.63-2.22 1.58-1.56-.08-2.16-1.22-2.73-2.4-2.41-4.99-.96-13.24 3.03-17.35 3.98 3.93 4.98 13.52 1.92 18.17z"
            fill="#e9dfc0" stroke-width="0" />
        <path
            d="M171.43 150.74c-1.5 7.02-8.4 11.1-15.68 8.58-1.74-.61-1.7-1.64-1.3-2.98 1.23-4.16 4.87-4.3 8.24-4.91.38.14.35.72.82.77-.2-.25-.29-.51-.06-.8 2.66-.2 5.26-1.15 7.98-.66z"
            fill="#e4dabf" stroke-width="0" />
        <path
            d="M198.4 138.17c-.89.75-1.88 1.65-3.16 1.09-1.42-.63-1.59-2.09-1.33-3.34.91-4.32 2.02-8.52 6.21-11.13 1.28-.8 2.96.49 3.96-1.24.4 5.97-1.26 10.87-5.68 14.62z"
            fill="#eae3bd" stroke-width="0" />
        <path
            d="M197.18 88.44c-.07 1.09-.43 2.03-1.76 1.49-3.78-1.51-7.09-3.64-8.56-7.69-.77-2.11-.12-3.28 1.54-3.2 2.98.16 8.96 6.54 8.78 9.4z"
            fill="#44c158" stroke-width="0" />
        <path
            d="M118.34 94.87c-.14 1.06-.83 1.92-.97 2.97 0 .1-.01.19-.02.29-.01.09-.01.18-.02.27-.23 2.45-1.03 4.9-.09 7.36-.99.91-.37 4.39-3.51 1.98-.81-.62.08 2.87-2.15 2.09.43-6.22 2.15-12.06 5.09-17.55.48.01.84.11 1.1.26.72.43.7 1.33.57 2.33z"
            fill="#433227" stroke-width="0" />
        <path
            d="M149.47 74.65c-1.48 3.64-3.15 6.37-5.83 8.32-1.22.89-2.76 1.66-4.01.03-1.25-1.62-.61-3.05.87-4.17 2.49-1.88 5.19-3.36 8.97-4.18z"
            fill="#4ebb52" stroke-width="0" />
        <path
            d="M141.96 144.2c-.13 1.28-.81 1.93-2.13 1.84-2.78-.17-6.2-4.59-5.59-7.26.22-.99.7-1.81.99-1.8 2.76.18 6.93 5.33 6.73 7.22z"
            fill="#47bd59" stroke-width="0" />
        <path
            d="M178.34 59.32c-.07.03-.14.07-.2.1-.01.01-.02.01-.02.01-.69.37-1.13.82-.5 1.71-4.86-.77-9.73-1.51-14.68-1.24-1.23-1.47-.01-1.93 1.03-2.47 4.9-.24 9.65.75 14.37 1.89z"
            fill="#66c565" stroke-width="0" />
        <path
            d="M162.94 59.9c-1.59.52-3.08 2.42-4.83-.01-.43-.59-.15 1.47-1.25 1.18-.78-1.37-1.86-2.34-3.44-2.66 3.46-.91 6.97-1.32 10.55-.98-.57.73-1.16 1.45-1.03 2.47z"
            fill="#c4d19c" stroke-width="0" />
        <path
            d="M121.2 88.38c-.89 3.33-1.64 6.7-3.33 9.75-.18.19-.36.28-.54.27-.16-.01-.33-.1-.49-.27-.51-1.66 1.23-3.38.45-5.03a2.65 2.65 0 00-.62-.82c1.39-1.44.91-5.05 4.53-3.9z"
            fill="#b5a78c" stroke-width="0" />
        <path
            d="M115.99 147.52c-2.74-3.06-4.46-6.68-5.75-10.53.45.04.84-.01 1.16-.17.37-.19.63-.53.76-1.09 1.8 3.75 2.53 7.86 3.83 11.79z"
            fill="#b3e1a5" stroke-width="0" />
        <path d="M117.24 105.76c-1.65-2.46-1.19-5.04-.4-7.63h1.03c.47 2.6-.9 5.05-.63 7.63z" fill="#b9ae96"
            stroke-width="0" />
        <path d="M164.41 154.55c-1.86-.67-1.49-2.03-1.72-3.12l.76-.03c2.04.63.55 1.96.96 3.15z" fill="#a59682"
            stroke-width="0" />
        <path d="M164.52 161.68c-2.47 1.35-4.37.79-6.25 0h6.25z" fill="#aaa39f" stroke-width="0" />
        <path
            d="M341.56 205.9c-4.54-.01-8.19-3.67-8.19-8.19 0-4.54 3.8-8.57 8.01-8.5 4.74.08 8.97 4.14 8.85 8.49-.13 4.48-4.07 8.21-8.67 8.2z"
            fill="#dc2e20" stroke-width="0" />
        <path
            d="M326.32 207.73c-.05-.17-.09-.34-.12-.52.35-1.47.87-2.71 2.79-1.99 3.19 4.17 6.62 8.03 12.36 8.4 6.28.4 12.28-3.12 15.05-8.74 2.85-5.78 1.86-12.4-2.75-17.39-1.51-1.63-3.29-3.02-5.18-4.73 1.99-.49 3.16.55 4.32 1.35 7.35 5.08 9.43 15.38 4.78 23.37-4.66 8-14.55 11.31-22.64 7.66-1.15-.52-2.07-1.61-3.49-1.52-3.33-.56-4.54-2.95-5.12-5.9z"
            fill="#43b757" stroke-width="0" />
        <path
            d="M328.99 205.22c-1.24.23-1.8 1.41-2.79 1.99-.84-.19-.4-1.15-.92-1.53-3.28-8.18-1.45-15.37 4.26-21.79 2.97-2.31 6.05-4.4 9.87-5.03 2.8-.46 4.28.37 4.85 2.75-13.02.64-19.53 10.68-15.29 23.61z"
            fill="#d8dcc4" stroke-width="0" />
        <path class="prefix__cls-138"
            d="M326.32 207.73c1.77 1.91 2.55 4.68 5.12 5.9-2.07 1.19-3.47-.22-4.18-1.66-.6-1.21-3.07-2.34-.94-4.24z" />
        <path class="prefix__cls-96"
            d="M213.34 30.65c-.96-.48-1.51-1.85-2.64.42-1.44 2.88-4.21 1.29-6.45.31.34-1.36 1.49-1.96 2.53-2.66 1.4 1 2.81 1.78 4.01-.22.48-.8.67-1.97 1.98-1.52 1.52.52.79 1.71.65 2.7-.04.32-.04.64-.05.96l-.03.03z" />
        <path d="M206.79 28.72c.41 2.08-1.07 2.35-2.53 2.66-.77-.39-1.67-.84-.9-1.84.86-1.12 1.94-2.05 3.43-.81z"
            fill="#263615" stroke-width="0" />
        <path d="M131.51 33.78c-.89-.94-2.81.07-3.24-1.72 2.39-1.42 3.9-.04 5.3 1.68-.69.01-1.37.02-2.06.04z"
            fill="#8bd47e" stroke-width="0" />
        <path
            d="M146.45 25.43c.09.06.21.09.27.17.7 1 1.89 1.87.96 3.34-.32.5-.79.86-1.28.38-1.05-1.03-.06-2.19-.09-3.3 0-.2.12-.4.19-.6h-.05z"
            fill="#809c81" stroke-width="0" />
        <path
            d="M155.88 26.88c.91.09 1.25.79 1.34 1.5.1.85-.63 1-1.27.92-.73-.09-1.54-.3-1.38-1.29.11-.64.59-1.09 1.31-1.13z"
            fill="#4c7147" stroke-width="0" />
        <path
            d="M167.82 27.06c.43.57 1.14 1.16 1.33 1.89.19.75-.66 1.04-1.28.89-.88-.2-1.45-.87-1.35-1.83.06-.54.53-.87 1.3-.96z"
            fill="#414e3e" stroke-width="0" />
        <path
            d="M169.19 197.49c1.17 1.47 1.28 3.05-.22 4.2-1.62 1.24-3.8 1.42-5.46.45-1.19-.7-.47-2.56-.47-3.91 1.95-1.06 4.14-.11 6.14-.73z"
            fill="#2ea64e" stroke-width="0" />
        <path d="M169.19 197.49c-1.98.86-4.08.62-6.14.73 1.86-1.82 4.09-.5 6.14-.73z" fill="#5dbe79" stroke-width="0" />
        <path
            d="M110.81 197.52c.61 0 1.04.28 1.34.79.49 3.45-1.41 5.06-4.58 3.9-1.47-.54-.82-1.78-.92-2.75-.1-.92.1-1.71 1.3-1.75.96-.04 1.93.13 2.87-.19z"
            fill="#2fad51" stroke-width="0" />
        <path
            d="M110.81 197.52c-.29.14-.56.37-.86.4-1.47.15-3.15-.09-3.03 2.26.08 1.47.95 1.71 2.15 1.74 1.86.05 3.2-.44 3.08-2.65-.02-.32 0-.64 0-.96.97 1.38 1.3 2.86-.34 3.84-1.61.96-3.73 1.04-5.2.19-1.03-.59-.36-2.57-.31-3.92.05-1.35 1.18-.94 1.95-.97.85-.04 1.71.05 2.57.08z"
            fill="#58cc82" stroke-width="0" />
        <path
            d="M351.47 119.68c-.59 27.1-23.97 44.8-43.41 45.65-19.61.85-39.27-10.6-47.14-28.64-.13-.29-.13-.63-.2-.95-.54-1.38-.44-2.26 1-2.03.11.01.24.04.37.07.06.02.12.03.18.05 1.8 1.07 2.44 2.98 3.34 4.68 8.75 16.45 26.7 24.54 43.26 23.04 18.78-1.7 33.75-14.95 37.82-33.59 5.62-25.8-12.1-51.25-39.42-54.59-8.38-1.02-16.27 1.46-23.63 5.53-1.28.7-2.46 1.7-4.07 1.29-.04 0-.08-.02-.12-.03-.09-.07-.17-.14-.24-.22-1.01-.99-.57-1.92.37-2.83 17.65-11.52 39.81-9.22 55.78 5.83 10.57 9.95 16.42 22.15 16.11 36.74z"
            fill="#dfcb0a" stroke-width="0" />
        <path
            d="M277.47 81.39s-.01.11-.03.16c-.18 1.06-.9 1.8-1.66 2.51-8.81 8.29-14.24 18.35-15.8 30.41-.07.54-.27 1.05-.56 1.51-.17.23-.36.39-.54.5-.08.06-.16.1-.24.13-.55.22-1.14.03-1.76-.4.43-15.48 6.4-28.05 19.4-36.93.76.38 1.09 1.01 1.17 1.77.01.11.02.23.02.34z"
            fill="#d9dbc5" stroke-width="0" />
        <path
            d="M262.09 133.78c-.04.22-.1.45-.16.68-1.43-.54-1.09.58-1.21 1.28-1.85-3.02-2.4-6.45-3.07-9.85.33-.78-.17-2.18 1.33-2.11.02-.01.05 0 .08 0 .04 0 .09.01.13.01 2.5 2.94 3.71 6.2 2.9 9.99z"
            fill="#cbd029" stroke-width="0" />
        <path
            d="M259.06 123.78s-.05.08-.07.12c-.44.66-.89 1.33-1.34 1.99-.51-3.2-1.09-6.41-.77-9.68l1.74-.06c.09.11.18.22.26.33 1.69 2.19 1.75 4.63.18 7.3z"
            fill="#dae363" stroke-width="0" />
        <path
            d="M279.69 79.64c-.03.2-.07.38-.12.55-.3 1.1-.94 1.66-2.13 1.36-.16-.04-.34-.1-.52-.17-.66-.56-.57-1.36-.64-2.1 1.1-.72 2.2-1.45 3.3-2.17-.33.86-.42 1.71.11 2.53z"
            fill="#d5d55a" stroke-width="0" />
        <path class="prefix__cls-132" d="M251.12 125.95c-1.55-1.86-.77-3.87-.39-5.86l.39 5.86z" />
        <path class="prefix__cls-7"
            d="M449.56 87.76c-.92-.44-1.77 1.31-2.72.09l.1-.12c.13-1.63.7-3.37-1.19-4.47l-.14-.1c2.27-1.15 3.66-.84 3.61 2.09-.01.84.21 1.68.33 2.51z" />
        <path d="M445.76 83.27c4.22.47 1.69 2.74 1.19 4.47-.4-1.49-.79-2.98-1.19-4.47z" fill="#212c12"
            stroke-width="0" />
        <path class="prefix__cls-77"
            d="M164.36 105.91c4.57.01 8.76 4.49 8.62 9.2-.13 4.45-4.11 8.19-8.75 8.23-4.4.04-8.53-4.04-8.55-8.44-.03-5.03 3.8-9 8.68-8.98z" />
        <path d="M121.31 87.8c-1.1.15-1.93-.23-2.25-1.32-.17-.57.36-.7.79-.7 1.46 0 1.3 1.13 1.42 2.06l.03-.04z"
            fill="#a3957b" stroke-width="0" />
        <path
            d="M337.68 194.79c-.15 2.18.12 4.09 2.21 5.29.3.17.41.73.91.43 1.17-.7 1.98-.25 1.95.94-.03.96-1.1 1.14-2 1.17-1.46.05-2.94-.19-3.64-1.55-1.08-2.09-.74-4.23.57-6.29z"
            fill="#50131a" stroke-width="0" />
        <path
            d="M344.05 196.28c-.17 1.42-1.27 1.54-2.32 1.64-.97.09-1.36-.54-1.25-1.39.15-1.11.71-2.12 1.9-2.2 1.21-.08 1.47.98 1.66 1.95z"
            fill="#491c1d" stroke-width="0" />
        <path class="prefix__cls-20"
            d="M268.34 112.48c-1.16-4.21-.43-8.11 2.39-11.5.73-.88 1.64-2.1 2.95-1.42 1.17.62 1.63 1.97 1.58 3.32-.04 1.4-.23 2.79-.35 4.18h.18v4.54c.01 2.16-1.21 3.61-3.15 3.91-2.02.32-3.11-1.28-3.6-3.04zM276.68 133.44c.6 1.71-.31 3.28-1.8 4.08-1.66.89-2.45-.54-3.32-1.88 1-.31 1.73-.43 2.36-.76.68-.35 1.22-.93 1.05-1.81-.17-.85-.98-.9-1.53-.77-1.06.26-2.73-1.7-3.21.82-.01.05-.4.09-.58.03-.54-.19-.45-.67-.36-1.07.43-1.92 2.1-1.97 3.53-2.14 2.52-.31 3.25 1.75 3.86 3.5zM283.85 143.98c.54.62 1.44 1.25 1.02 2.19-.45 1.01-1.64.84-2.45 1.09-2 .05-5.27-2.92-5.26-4.69.01-1.29 2.58-2.47 3.78-1.57 1.1.82 2 1.93 2.91 2.98zM281.81 89.99c.27-1.76 1.07-3.58 3.45-3.64 1.75-.04 2.71.87 2.63 2.53-.11 2.17-1.61 3.11-2.79 3.39-2.46.12-3.49-1.01-3.29-2.28zM298.47 152.77c2.27-.17 4.2-.31 6.13-.46-1.23 2.12-2.98 2.32-6.13.46zM300.13 83.15c.12-1.99 1.42-2.79 3.28-2.7 1.85.08 3.53.56 3.36 2.91-.15 2.06-1.57 2.87-3.31 3.07-2.11-.26-3.45-1.13-3.33-3.28zM319.41 101.18c10.43 10.55 8.2 25.36-.2 32.8-7.22 6.4-18.25 6.89-25.49 1.15-5.07-3.23-8.78-7.45-9.82-13.6-1.69-6.72.67-12.37 4.67-17.59 6.78-9.98 22.42-11.27 30.84-2.76zM332.77 95.91c-.12 1.46-.83 2.88-3.03 2.85-2-.03-4.1-2.43-4.03-4.64.06-1.98.97-3.2 3.16-3.17 2.35.04 3.9 1.78 3.9 4.96zM332.76 141.14c.07 2.1-1.12 3.1-3.1 3.47-1.57-.11-2.64-.98-2.58-2.61.07-1.73.89-3.1 2.91-3.19 1.61-.07 2.72.51 2.77 2.33zM336.42 110.44c0-1.72.93-2.92 2.73-3.01 2.06-.1 2.82 1.24 2.96 3.3-.03 1.4-.58 2.46-2.46 2.43-1.88-.03-3.23-.66-3.23-2.72zM336.07 126.27c-.06-2.04 1.36-2.95 2.84-3.38 2.16.03 3.11 1.05 3.22 2.77.15 2.09-1.05 3.25-3.04 3.27-1.64.02-2.97-.88-3.02-2.66z" />
        <path class="prefix__cls-20"
            d="M348.91 113.74c-3.53-31.81-39.41-54.21-69.22-34.1l-.48.3c-.59.37-1.17.74-1.76 1.11-.18.11-.35.22-.53.33-.54.5-1.08 1-1.63 1.5-9.86 8.93-15.77 19.84-16.67 33.27.01.15.02.31.02.46.12 2.39.23 4.77.34 7.17v.12l2.73 9.81.21.75c.41.75.84 1.5 1.22 2.27 8.71 17.44 23.03 26.16 42.32 26.18 26.27.03 46.33-23.04 43.44-49.17zm-2.22 14.22c-4.07 18.64-19.04 31.89-37.82 33.59-16.56 1.5-34.51-6.59-43.26-23.04-.9-1.7-1.54-3.61-3.34-4.68-.06-.02-.12-.03-.18-.05.81-3.79-.4-7.05-2.9-9.99-.04 0-.09-.01-.13-.01 1.57-2.67 1.51-5.11-.18-7.3.18-.11.37-.27.54-.5.29-.46.49-.97.56-1.51 1.56-12.06 6.99-22.12 15.8-30.41.76-.71 1.48-1.45 1.66-2.51 1.19.3 1.83-.26 2.13-1.36 1.61.41 2.79-.59 4.07-1.29 7.36-4.07 15.25-6.55 23.63-5.53 27.32 3.34 45.04 28.79 39.42 54.59z" />
        <path
            d="M319.21 133.98c-7.22 6.4-18.25 6.89-25.49 1.15-.08-1.16-1.96-1.53-1.34-3 .02-.08.05-.16.08-.23.06-.17.14-.32.23-.46.43-.68 1.14-1.07 1.81-1.5.2-.13.4-.26.58-.41.06-.09.12-.17.17-.25.33-.52.42-.98-.21-1.59-.74-.72-.69-1.68-.34-2.67.28-.79 1.93-.96 1.5-1.19-2.03-1.11-1.23-4.88-4.49-4.64l-.02-.02-.3-.3c-1.06-1.07-1.97-2.16.04-3.44.19-.12.5-.21.34-.32-2.44-1.77-.02-5.37-2.73-7.07-1.73-1.09.16-2.78-.47-4.1 6.78-9.98 22.42-11.27 30.84-2.76 10.43 10.55 8.2 25.36-.2 32.8z"
            fill="#eee3c2" stroke-width="0" />
        <path
            d="M274.91 107.06h.18v4.54c.01 2.16-1.21 3.61-3.15 3.91-2.02.32-3.11-1.28-3.6-3.04-1.16-4.21-.43-8.11 2.39-11.5.73-.88 1.64-2.1 2.95-1.42 1.17.62 1.63 1.97 1.58 3.32-.04 1.4-.23 2.79-.35 4.18z"
            fill="#e6dbc0" stroke-width="0" />
        <path
            d="M292.72 116.16c-3.45.06-.11 1.97-.79 2.7-.07.12-.15.22-.24.31-.27.27-.6.42-.97.48-.15.03-.31.04-.47.04-.19-.04-.37-.09-.53-.14-1.61-.54-1.94-1.85-1.54-3.47.33-1.34.38-2.52-.84-3.56-1.2 2.57-.8 5.4-1.43 8.05-.02.03-.04.05-.05.08-.15.2-.29.4-.45.57-.36.4-.81.63-1.51.31-1.69-6.72.67-12.37 4.67-17.59.73.45 1.51.74 2.44.47.02 1.64-1.77.8-1.98 2.03.09.11.23.45.46.52 2.34.8 2.69 2.52 2.25 4.64-.2.96-.44 1.58 1.09 1.98 1.33.35.14 2.58-.11 2.58z"
            fill="#bfb7a5" stroke-width="0" />
        <path
            d="M284.87 146.17c-.45 1.01-1.64.84-2.45 1.09-2 .05-5.27-2.92-5.26-4.69.01-1.29 2.58-2.47 3.78-1.57 1.1.82 2 1.93 2.91 2.98.54.62 1.44 1.25 1.02 2.19z"
            fill="#37ab66" stroke-width="0" />
        <path
            d="M306.77 83.36c-.15 2.06-1.57 2.87-3.31 3.07-2.11-.26-3.45-1.13-3.33-3.28.12-1.99 1.42-2.79 3.28-2.7 1.85.08 3.53.56 3.36 2.91z"
            fill="#ead606" stroke-width="0" />
        <path
            d="M342.13 125.66c.15 2.09-1.05 3.25-3.04 3.27-1.64.02-2.97-.88-3.02-2.66-.06-2.04 1.36-2.95 2.84-3.38 2.16.03 3.11 1.05 3.22 2.77z"
            fill="#e6c410" stroke-width="0" />
        <path
            d="M293.72 135.13c-5.07-3.23-8.78-7.45-9.82-13.6.43-.44.86-.88 1.29-1.33.22.04.5.08.57.24.03.07.06.14.1.21 1.77 3.92 4.52 7.21 6.83 10.79.21.32.41.64.61.96-.33.99 2.17 1.53.42 2.73z"
            fill="#d6d0bd" stroke-width="0" />
        <path
            d="M287.89 88.88c-.11 2.17-1.61 3.11-2.79 3.39-2.46.12-3.49-1.01-3.29-2.28.27-1.76 1.07-3.58 3.45-3.64 1.75-.04 2.71.87 2.63 2.53z"
            fill="#e1cf0b" stroke-width="0" />
        <path
            d="M332.77 95.91c-.12 1.46-.83 2.88-3.03 2.85-2-.03-4.1-2.43-4.03-4.64.06-1.98.97-3.2 3.16-3.17 2.35.04 3.9 1.78 3.9 4.96z"
            fill="#dadcbe" stroke-width="0" />
        <path
            d="M274.88 137.52c-1.66.89-2.45-.54-3.32-1.88 1-.31 1.73-.43 2.36-.76.68-.35 1.22-.93 1.05-1.81-.17-.85-.98-.9-1.53-.77-1.06.26-2.73-1.7-3.21.82-.01.05-.4.09-.58.03-.54-.19-.45-.67-.36-1.07.43-1.92 2.1-1.97 3.53-2.14 2.52-.31 3.25 1.75 3.86 3.5.6 1.71-.31 3.28-1.8 4.08z"
            fill="#d4cfa2" stroke-width="0" />
        <path
            d="M332.76 141.14c.07 2.1-1.12 3.1-3.1 3.47-1.57-.11-2.64-.98-2.58-2.61.07-1.73.89-3.1 2.91-3.19 1.61-.07 2.72.51 2.77 2.33z"
            fill="#e7d10b" stroke-width="0" />
        <path
            d="M342.11 110.73c-.03 1.4-.58 2.46-2.46 2.43-1.88-.03-3.23-.66-3.23-2.72 0-1.72.93-2.92 2.73-3.01 2.06-.1 2.82 1.24 2.96 3.3z"
            fill="#ecd512" stroke-width="0" />
        <path d="M304.6 152.31c-1.23 2.12-2.98 2.32-6.13.46 2.27-.17 4.2-.31 6.13-.46z" fill="#d8d0c7"
            stroke-width="0" />
        <path class="prefix__cls-77"
            d="M306.14 124.74c-4.09-.01-7.56-3.6-7.6-7.88-.05-4.34 3.2-7.69 7.41-7.64 3.74.04 7.33 3.99 7.3 8.02-.03 4.26-3.11 7.51-7.1 7.5z" />
        <path
            d="M293.31 132.4c-4.84-2.65-7.07-7.03-8.11-12.2-.27-3.39-.44-6.76 1.74-9.65.74.71 1.35 1.5 2.15 2 1.47.92 2.06 1.71.55 3.22-.87.88-1.54 2.2.2 3.13.8.57 1.57 1.22 1.62 2.25.21 3.88 2.7 6.56 4.8 9.46-.46 1.45-2.24.73-2.94 1.79z"
            fill="#392d23" stroke-width="0" />
        <path
            d="M296.25 130.61c-4.77-1.22-5.29-5.44-6.14-9.21-.15-.65-.6-1.64-.28-2.5.7-.01 1.4-.03 2.1-.04.57-.3 1.18-.55 1.7-.91 1.73-1.21 2.09-.32 1.93 1.26-.16 1.54-.92 3.25 1.71 3.54.4.04.99 1.27.92 1.9-.06.57-.74 1.37-1.71.79-.36-.21-.88-.55-1.01.04-.13.58-.04 1.7.23 1.79 2.45.82.83 2.18.54 3.36z"
            fill="#d4caad" stroke-width="0" />
        <path
            d="M329.27 96.86c-1.53-.02-2.11-1.19-2.13-2.31-.02-1.48 1.24-2.2 2.6-2.2 1.48 0 1.91 1.1 1.77 2.42-.15 1.3-.74 2.2-2.24 2.1z"
            fill="#211d18" stroke-width="0" />
    </g>
</svg>