<svg xmlns="http://www.w3.org/2000/svg" xmlns:xlink="http://www.w3.org/1999/xlink" version="1.1" x="0px" y="0px" viewBox="0 0 100 125" style="enable-background:new 0 0 100 100;" xml:space="preserve"><g><path d="M86.104,26.865L70,20C70,10,60,5,60,5V0H15v5c0,0-9.99,5-9.99,15L5,40c0,0,0,10,10,10c0,5,5,10,10,10h6.602   c1.873,2.869,5.135,5,8.398,5c1.992,0,5.01,0,5.01,0v25c0,5.518,4.473,10,10,10c5.518,0,9.99-4.482,9.99-10V45.01l15.342,4.629   c6.309,1.592,12.85-2.182,14.297-8.506C96.341,33.694,91.773,28.835,86.104,26.865z M89.888,39.445   c-0.55-0.606-1.738-0.395-1.81,0.682c0.016,0.761,0.631,1.117,1.189,1.047c-0.932,1.864-2.383,3.099-4.055,3.611   c-0.289-1.09-1.959-1.029-2.045,0.251c0,0.003,0.002,0.007,0.002,0.01c-0.457-0.017-0.918-0.082-1.383-0.198l-4.426-1.335   c0.296-0.159,0.519-0.468,0.527-0.938c-0.086-1.339-1.993-1.365-2.084,0.006c0.004,0.193,0.049,0.357,0.119,0.498l-6.313-1.904   c0.468-0.05,0.9-0.395,0.914-1.055c-0.087-1.339-1.994-1.365-2.085,0.006c0.007,0.358,0.149,0.625,0.353,0.802l-3.201-0.966   c-0.172-0.907-1.246-1.096-1.773-0.534L60,38.276v0.888c-0.583-0.191-1.322,0.122-1.378,0.963c0.018,0.849,0.78,1.193,1.378,1.007   v2.94c-0.583-0.191-1.322,0.121-1.378,0.962c0.018,0.848,0.78,1.193,1.378,1.006v2.94c-0.583-0.191-1.322,0.122-1.378,0.963   c0.018,0.848,0.78,1.192,1.378,1.006v2.94c-0.583-0.191-1.322,0.122-1.378,0.963c0.018,0.848,0.78,1.193,1.378,1.007v2.94   c-0.583-0.191-1.322,0.121-1.378,0.963c0.018,0.848,0.78,1.192,1.378,1.006v2.94c-0.583-0.191-1.322,0.121-1.378,0.962   c0.018,0.849,0.78,1.193,1.378,1.007v2.94c-0.583-0.191-1.322,0.122-1.378,0.963c0.018,0.848,0.78,1.193,1.378,1.007v2.94   c-0.583-0.191-1.322,0.121-1.378,0.963c0.018,0.848,0.78,1.192,1.378,1.006v2.94c-0.583-0.191-1.322,0.122-1.378,0.963   c0.018,0.849,0.78,1.192,1.378,1.007v2.939c-0.583-0.191-1.322,0.122-1.378,0.963c0.018,0.848,0.78,1.193,1.378,1.007v2.94   c-0.583-0.191-1.322,0.121-1.378,0.963c0.018,0.842,0.771,1.188,1.366,1.01c-0.116,2.517-2.1,4.555-4.592,4.748   c0.229-0.174,0.393-0.455,0.4-0.855c-0.086-1.338-1.993-1.363-2.084,0.007c0.007,0.337,0.133,0.594,0.318,0.771   c-2.205-0.439-3.885-2.336-4.008-4.635c0.449-0.068,0.852-0.414,0.865-1.052c-0.039-0.597-0.439-0.931-0.879-0.998l-0.001-2.859   c0.454-0.063,0.866-0.407,0.88-1.052c-0.039-0.598-0.439-0.932-0.881-0.998v-2.859c0.455-0.063,0.867-0.407,0.881-1.053   c-0.039-0.598-0.441-0.932-0.881-0.998l-0.001-2.858c0.455-0.063,0.868-0.407,0.882-1.053c-0.039-0.598-0.441-0.933-0.883-0.999   v-2.857c0.455-0.062,0.869-0.406,0.883-1.053c-0.039-0.599-0.441-0.933-0.883-0.999l-0.001-2.858   c0.456-0.061,0.87-0.406,0.884-1.053c-0.039-0.599-0.443-0.933-0.885-0.999v-2.857c0.456-0.061,0.871-0.405,0.885-1.053   c-0.039-0.6-0.443-0.934-0.886-0.999l-0.001-2.857c0.457-0.061,0.873-0.405,0.887-1.053c-0.039-0.601-0.443-0.935-0.887-0.999   v-2.858c0.457-0.06,0.873-0.404,0.887-1.052c-0.039-0.601-0.444-0.935-0.888-0.999L50,46.083c0.458-0.059,0.875-0.404,0.889-1.053   c-0.086-1.326-1.955-1.361-2.08-0.03h-2.834c-0.115-1.307-1.99-1.323-2.08,0.037c0.015,0.723,0.571,1.079,1.105,1.054v2.842   c-0.519-0.032-1.059,0.3-1.105,1.014C43.909,50.669,44.466,51.024,45,51v2.842c-0.519-0.031-1.059,0.3-1.105,1.014   c0.015,0.723,0.571,1.078,1.105,1.054v2.843c-0.519-0.032-1.059,0.3-1.105,1.014c0.002,0.083,0.012,0.16,0.026,0.234h-2.878   c0.016-0.075,0.025-0.155,0.027-0.241c-0.088-1.339-1.994-1.364-2.086,0.007c0.001,0.023,0.007,0.043,0.008,0.066   c-1.676-0.531-3.367-2.246-3.854-3.92c0.508-0.004,1.008-0.352,1.021-1.063c-0.047-0.724-0.625-1.061-1.16-1.004v-2.853   c0.551,0.063,1.145-0.276,1.16-1.053c-0.047-0.723-0.625-1.06-1.16-1.003v-2.853c0.551,0.064,1.145-0.276,1.16-1.053   c-0.086-1.326-1.954-1.361-2.078-0.03h-2.836c-0.115-1.307-1.988-1.323-2.08,0.037c0.014,0.6,0.398,0.948,0.834,1.035v2.876   c-0.42,0.081-0.795,0.41-0.834,0.998c0.014,0.6,0.398,0.947,0.834,1.035V55h-3.674c0.006-0.05,0.016-0.098,0.016-0.15   c-0.086-1.339-1.993-1.365-2.084,0.006c0,0.025,0.006,0.048,0.008,0.072c-1.756-0.377-3.584-2.18-4.113-3.954   c0.58,0.133,1.264-0.2,1.28-1.034C21.377,49.091,20.592,48.772,20,49v-2.981c0.605,0.236,1.415-0.081,1.433-0.989   c-0.056-0.849-0.841-1.167-1.433-0.939v-2.981c0.605,0.236,1.415-0.08,1.433-0.988c-0.084-1.295-1.864-1.357-2.064-0.121h-2.863   c-0.193-1.214-1.978-1.2-2.065,0.127c0.01,0.469,0.248,0.781,0.561,0.938V45c-3.404,0-4.583-1.966-4.902-3.931   c0.611,0.302,1.498,0.003,1.517-0.948c-0.062-0.94-1.017-1.23-1.614-0.847l0.002-3.166c0.609,0.386,1.592,0.105,1.612-0.897   c-0.062-0.938-1.015-1.229-1.611-0.848l0.001-3.163c0.609,0.384,1.59,0.103,1.61-0.898c-0.062-0.937-1.012-1.228-1.608-0.85   l0.001-3.159c0.609,0.381,1.587,0.099,1.607-0.901c-0.062-0.936-1.009-1.228-1.606-0.852l0.002-3.155   c0.609,0.379,1.584,0.096,1.604-0.902c-0.061-0.928-0.994-1.224-1.593-0.862c0.043-1.064,0.259-2.061,0.606-2.986   c0.495-0.02,0.973-0.365,0.986-1.061c-0.016-0.238-0.091-0.433-0.2-0.587c0.242-0.415,0.512-0.811,0.799-1.191   c0.537,0.674,1.834,0.476,1.856-0.677c-0.027-0.418-0.231-0.708-0.503-0.867c0.344-0.341,0.698-0.663,1.06-0.966   c0.507,0.74,1.874,0.562,1.897-0.621c-0.017-0.26-0.103-0.468-0.229-0.628c1.403-0.939,2.755-1.593,3.706-1.95V5h4.603   c-0.188,0.17-0.323,0.422-0.345,0.761c0.029,1.388,2.057,1.436,2.084-0.007C26.32,5.421,26.186,5.169,25.995,5h3.517   c-0.189,0.17-0.322,0.422-0.346,0.761c0.029,1.388,2.057,1.436,2.086-0.007C31.229,5.421,31.096,5.169,30.904,5h3.518   c-0.189,0.17-0.323,0.422-0.346,0.761c0.029,1.388,2.057,1.436,2.084-0.007C36.139,5.421,36.004,5.169,35.813,5h3.517   c-0.189,0.17-0.322,0.422-0.346,0.761c0.029,1.388,2.057,1.436,2.086-0.007C41.048,5.421,40.914,5.169,40.723,5h3.518   c-0.189,0.17-0.323,0.422-0.346,0.761c0.029,1.388,2.057,1.436,2.084-0.007C45.957,5.421,45.822,5.169,45.632,5h3.517   c-0.188,0.17-0.322,0.422-0.345,0.761c0.029,1.388,2.056,1.436,2.085-0.007C50.867,5.421,50.732,5.169,50.541,5H55v3.057   c1.376,0.693,2.631,1.392,3.754,2.132c-0.07,0.135-0.119,0.294-0.132,0.481c0.022,1.077,1.243,1.343,1.806,0.738   c0.365,0.298,0.711,0.605,1.037,0.923c-0.211,0.169-0.363,0.431-0.389,0.793c0.022,1.05,1.188,1.331,1.766,0.782   c0.291,0.398,0.555,0.814,0.791,1.25c-0.054,0.122-0.091,0.261-0.102,0.421c0.012,0.561,0.35,0.898,0.75,1.013   c0.332,0.898,0.563,1.877,0.688,2.956c-0.592-0.234-1.38,0.072-1.438,0.942c0.02,0.929,0.932,1.254,1.543,0.938   c0.003,0.598-0.02,1.22-0.074,1.874l3.623,1.534c-0.1,0.15-0.168,0.336-0.183,0.563c0.027,1.307,1.824,1.425,2.059,0.23   l5.308,2.248c0.041,1.035,1.2,1.306,1.771,0.75l1.59,0.673c-0.451,0.054-0.867,0.385-0.908,1.008   c0.028,1.388,2.056,1.436,2.084-0.006c-0.016-0.239-0.091-0.435-0.201-0.59l4.691,1.987c0.35,0.125,0.69,0.267,1.021,0.425   c-0.128,0.161-0.215,0.373-0.232,0.638c0.025,1.218,1.588,1.404,1.99,0.458c0.399,0.322,0.762,0.678,1.076,1.07   c-0.322,0.141-0.58,0.446-0.611,0.928c0.02,0.971,1.016,1.283,1.623,0.892C90.033,37.083,90.123,38.194,89.888,39.445z    M23.888,8.209c-0.028,1.442-2.056,1.395-2.085,0.006C21.895,6.845,23.801,6.87,23.888,8.209z M28.797,8.209   c-0.028,1.442-2.056,1.395-2.084,0.006C26.803,6.845,28.71,6.87,28.797,8.209z M33.706,8.209c-0.028,1.442-2.056,1.395-2.085,0.006   C31.713,6.845,33.619,6.87,33.706,8.209z M38.615,8.209c-0.028,1.442-2.056,1.395-2.084,0.006   C36.622,6.845,38.528,6.87,38.615,8.209z M43.524,8.209c-0.028,1.442-2.056,1.395-2.085,0.006   C41.531,6.845,43.438,6.87,43.524,8.209z M48.434,8.209c-0.027,1.442-2.055,1.395-2.084,0.006   C46.44,6.845,48.348,6.87,48.434,8.209z M53.343,8.209c-0.028,1.442-2.056,1.395-2.085,0.006C51.35,6.845,53.256,6.87,53.343,8.209   z M21.433,10.664c-0.028,1.442-2.056,1.395-2.085,0.006C19.439,9.299,21.346,9.325,21.433,10.664z M26.342,10.664   c-0.027,1.442-2.055,1.395-2.084,0.006C24.349,9.299,26.256,9.325,26.342,10.664z M31.252,10.664   c-0.029,1.442-2.057,1.395-2.086,0.006C29.258,9.299,31.164,9.325,31.252,10.664z M36.16,10.664   c-0.027,1.442-2.055,1.395-2.084,0.006C34.167,9.299,36.074,9.325,36.16,10.664z M41.07,10.664   c-0.029,1.442-2.057,1.395-2.086,0.006C39.076,9.299,40.982,9.325,41.07,10.664z M45.979,10.664   c-0.027,1.442-2.055,1.395-2.084,0.006C43.986,9.299,45.893,9.325,45.979,10.664z M50.889,10.664   c-0.029,1.442-2.056,1.395-2.085,0.006C48.895,9.299,50.801,9.325,50.889,10.664z M55.797,10.664   c-0.027,1.442-2.055,1.395-2.084,0.006C53.804,9.299,55.711,9.325,55.797,10.664z M18.979,13.118   c-0.029,1.442-2.057,1.395-2.085,0.007C16.984,11.754,18.891,11.779,18.979,13.118z M23.888,13.118   c-0.028,1.442-2.056,1.395-2.085,0.007C21.895,11.754,23.801,11.779,23.888,13.118z M28.797,13.118   c-0.028,1.442-2.056,1.395-2.084,0.007C26.803,11.754,28.71,11.779,28.797,13.118z M33.706,13.118   c-0.028,1.442-2.056,1.395-2.085,0.007C31.713,11.754,33.619,11.779,33.706,13.118z M38.615,13.118   c-0.028,1.442-2.056,1.395-2.084,0.007C36.622,11.754,38.528,11.779,38.615,13.118z M43.524,13.118   c-0.028,1.442-2.056,1.395-2.085,0.007C41.531,11.754,43.438,11.779,43.524,13.118z M48.434,13.118   c-0.027,1.442-2.055,1.395-2.084,0.007C46.44,11.754,48.348,11.779,48.434,13.118z M53.343,13.118   c-0.028,1.442-2.056,1.395-2.085,0.007C51.35,11.754,53.256,11.779,53.343,13.118z M58.252,13.118   c-0.027,1.442-2.055,1.395-2.084,0.007C56.259,11.754,58.166,11.779,58.252,13.118z M16.523,15.573   c-0.028,1.442-2.056,1.395-2.084,0.006C14.53,14.209,16.438,14.234,16.523,15.573z M21.433,15.573   c-0.028,1.442-2.056,1.395-2.085,0.006C19.439,14.209,21.346,14.234,21.433,15.573z M26.342,15.573   c-0.027,1.442-2.055,1.395-2.084,0.006C24.349,14.209,26.256,14.234,26.342,15.573z M31.252,15.573   c-0.029,1.442-2.057,1.395-2.086,0.006C29.258,14.209,31.164,14.234,31.252,15.573z M36.16,15.573   c-0.027,1.442-2.055,1.395-2.084,0.006C34.167,14.209,36.074,14.234,36.16,15.573z M41.07,15.573   c-0.029,1.442-2.057,1.395-2.086,0.006C39.076,14.209,40.982,14.234,41.07,15.573z M45.979,15.573   c-0.027,1.442-2.055,1.395-2.084,0.006C43.986,14.209,45.893,14.234,45.979,15.573z M50.889,15.573   c-0.029,1.442-2.056,1.395-2.085,0.006C48.895,14.209,50.801,14.234,50.889,15.573z M55.797,15.573   c-0.027,1.442-2.055,1.395-2.084,0.006C53.804,14.209,55.711,14.234,55.797,15.573z M60.707,15.573   c-0.029,1.442-2.056,1.395-2.085,0.006C58.713,14.209,60.62,14.234,60.707,15.573z M14.069,18.028   c-0.028,1.442-2.056,1.395-2.085,0.006C12.076,16.664,13.982,16.689,14.069,18.028z M18.979,18.028   c-0.029,1.442-2.057,1.395-2.085,0.006C16.984,16.664,18.891,16.689,18.979,18.028z M23.888,18.028   c-0.028,1.442-2.056,1.395-2.085,0.006C21.895,16.664,23.801,16.689,23.888,18.028z M28.797,18.028   c-0.028,1.442-2.056,1.395-2.084,0.006C26.803,16.664,28.71,16.689,28.797,18.028z M33.706,18.028   c-0.028,1.442-2.056,1.395-2.085,0.006C31.713,16.664,33.619,16.689,33.706,18.028z M38.615,18.028   c-0.028,1.442-2.056,1.395-2.084,0.006C36.622,16.664,38.528,16.689,38.615,18.028z M43.524,18.028   c-0.028,1.442-2.056,1.395-2.085,0.006C41.531,16.664,43.438,16.689,43.524,18.028z M48.434,18.028   c-0.027,1.442-2.055,1.395-2.084,0.006C46.44,16.664,48.348,16.689,48.434,18.028z M53.343,18.028   c-0.028,1.442-2.056,1.395-2.085,0.006C51.35,16.664,53.256,16.689,53.343,18.028z M58.252,18.028   c-0.027,1.442-2.055,1.395-2.084,0.006C56.259,16.664,58.166,16.689,58.252,18.028z M63.161,18.028   c-0.028,1.442-2.056,1.395-2.085,0.006C61.168,16.664,63.074,16.689,63.161,18.028z M16.523,20.482   c-0.028,1.442-2.056,1.395-2.084,0.007C14.53,19.118,16.438,19.144,16.523,20.482z M21.433,20.482   c-0.028,1.442-2.056,1.395-2.085,0.007C19.439,19.118,21.346,19.144,21.433,20.482z M26.342,20.482   c-0.027,1.442-2.055,1.395-2.084,0.007C24.349,19.118,26.256,19.144,26.342,20.482z M31.252,20.482   c-0.029,1.442-2.057,1.395-2.086,0.007C29.258,19.118,31.164,19.144,31.252,20.482z M36.16,20.482   c-0.027,1.442-2.055,1.395-2.084,0.007C34.167,19.118,36.074,19.144,36.16,20.482z M41.07,20.482   c-0.029,1.442-2.057,1.395-2.086,0.007C39.076,19.118,40.982,19.144,41.07,20.482z M45.979,20.482   c-0.027,1.442-2.055,1.395-2.084,0.007C43.986,19.118,45.893,19.144,45.979,20.482z M50.889,20.482   c-0.029,1.442-2.056,1.395-2.085,0.007C48.895,19.118,50.801,19.144,50.889,20.482z M55.797,20.482   c-0.027,1.442-2.055,1.395-2.084,0.007C53.804,19.118,55.711,19.144,55.797,20.482z M60.707,20.482   c-0.029,1.442-2.056,1.395-2.085,0.007C58.713,19.118,60.62,19.144,60.707,20.482z M14.069,22.938   c-0.028,1.442-2.056,1.395-2.085,0.006C12.076,21.573,13.982,21.599,14.069,22.938z M18.979,22.938   c-0.029,1.442-2.057,1.395-2.085,0.006C16.984,21.573,18.891,21.599,18.979,22.938z M23.888,22.938   c-0.028,1.442-2.056,1.395-2.085,0.006C21.895,21.573,23.801,21.599,23.888,22.938z M28.797,22.938   c-0.028,1.442-2.056,1.395-2.084,0.006C26.803,21.573,28.71,21.599,28.797,22.938z M33.706,22.938   c-0.028,1.442-2.056,1.395-2.085,0.006C31.713,21.573,33.619,21.599,33.706,22.938z M38.615,22.938   c-0.028,1.442-2.056,1.395-2.084,0.006C36.622,21.573,38.528,21.599,38.615,22.938z M43.524,22.938   c-0.028,1.442-2.056,1.395-2.085,0.006C41.531,21.573,43.438,21.599,43.524,22.938z M48.434,22.938   c-0.027,1.442-2.055,1.395-2.084,0.006C46.44,21.573,48.348,21.599,48.434,22.938z M53.343,22.938   c-0.028,1.442-2.056,1.395-2.085,0.006C51.35,21.573,53.256,21.599,53.343,22.938z M58.252,22.938   c-0.027,1.442-2.055,1.395-2.084,0.006C56.259,21.573,58.166,21.599,58.252,22.938z M63.161,22.938   c-0.028,1.442-2.056,1.395-2.085,0.006C61.168,21.573,63.074,21.599,63.161,22.938z M16.523,25.392   c-0.028,1.442-2.056,1.395-2.084,0.006C14.53,24.028,16.438,24.054,16.523,25.392z M21.433,25.392   c-0.028,1.442-2.056,1.395-2.085,0.006C19.439,24.028,21.346,24.054,21.433,25.392z M26.342,25.392   c-0.027,1.442-2.055,1.395-2.084,0.006C24.349,24.028,26.256,24.054,26.342,25.392z M31.252,25.392   c-0.029,1.442-2.057,1.395-2.086,0.006C29.258,24.028,31.164,24.054,31.252,25.392z M36.16,25.392   c-0.027,1.442-2.055,1.395-2.084,0.006C34.167,24.028,36.074,24.054,36.16,25.392z M41.07,25.392   c-0.029,1.442-2.057,1.395-2.086,0.006C39.076,24.028,40.982,24.054,41.07,25.392z M45.979,25.392   c-0.027,1.442-2.055,1.395-2.084,0.006C43.986,24.028,45.893,24.054,45.979,25.392z M50.889,25.392   c-0.029,1.442-2.056,1.395-2.085,0.006C48.895,24.028,50.801,24.054,50.889,25.392z M55.797,25.392   c-0.027,1.442-2.055,1.395-2.084,0.006C53.804,24.028,55.711,24.054,55.797,25.392z M60.707,25.392   c-0.029,1.442-2.056,1.395-2.085,0.006C58.713,24.028,60.62,24.054,60.707,25.392z M65.615,25.392   c-0.027,1.442-2.055,1.395-2.084,0.006C63.622,24.028,65.529,24.054,65.615,25.392z M14.069,27.847   c-0.028,1.442-2.056,1.395-2.085,0.007C12.076,26.482,13.982,26.508,14.069,27.847z M18.979,27.847   c-0.029,1.442-2.057,1.395-2.085,0.007C16.984,26.482,18.891,26.508,18.979,27.847z M23.888,27.847   c-0.028,1.442-2.056,1.395-2.085,0.007C21.895,26.482,23.801,26.508,23.888,27.847z M28.797,27.847   c-0.028,1.442-2.056,1.395-2.084,0.007C26.803,26.482,28.71,26.508,28.797,27.847z M33.706,27.847   c-0.028,1.442-2.056,1.395-2.085,0.007C31.713,26.482,33.619,26.508,33.706,27.847z M38.615,27.847   c-0.028,1.442-2.056,1.395-2.084,0.007C36.622,26.482,38.528,26.508,38.615,27.847z M43.524,27.847   c-0.028,1.442-2.056,1.395-2.085,0.007C41.531,26.482,43.438,26.508,43.524,27.847z M48.434,27.847   c-0.027,1.442-2.055,1.395-2.084,0.007C46.44,26.482,48.348,26.508,48.434,27.847z M53.343,27.847   c-0.028,1.442-2.056,1.395-2.085,0.007C51.35,26.482,53.256,26.508,53.343,27.847z M58.252,27.847   c-0.027,1.442-2.055,1.395-2.084,0.007C56.259,26.482,58.166,26.508,58.252,27.847z M63.161,27.847   c-0.028,1.442-2.056,1.395-2.085,0.007C61.168,26.482,63.074,26.508,63.161,27.847z M68.07,27.847   c-0.027,1.442-2.055,1.395-2.084,0.007C66.078,26.482,67.984,26.508,68.07,27.847z M72.98,27.847   c-0.029,1.442-2.057,1.395-2.086,0.007C70.986,26.482,72.893,26.508,72.98,27.847z M16.523,30.302   c-0.028,1.442-2.056,1.395-2.084,0.006C14.53,28.938,16.438,28.963,16.523,30.302z M21.433,30.302   c-0.028,1.442-2.056,1.395-2.085,0.006C19.439,28.938,21.346,28.963,21.433,30.302z M26.342,30.302   c-0.027,1.442-2.055,1.395-2.084,0.006C24.349,28.938,26.256,28.963,26.342,30.302z M31.252,30.302   c-0.029,1.442-2.057,1.395-2.086,0.006C29.258,28.938,31.164,28.963,31.252,30.302z M36.16,30.302   c-0.027,1.442-2.055,1.395-2.084,0.006C34.167,28.938,36.074,28.963,36.16,30.302z M41.07,30.302   c-0.029,1.442-2.057,1.395-2.086,0.006C39.076,28.938,40.982,28.963,41.07,30.302z M45.979,30.302   c-0.027,1.442-2.055,1.395-2.084,0.006C43.986,28.938,45.893,28.963,45.979,30.302z M50.889,30.302   c-0.029,1.442-2.056,1.395-2.085,0.006C48.895,28.938,50.801,28.963,50.889,30.302z M55.797,30.302   c-0.027,1.442-2.055,1.395-2.084,0.006C53.804,28.938,55.711,28.963,55.797,30.302z M60.707,30.302   c-0.029,1.442-2.056,1.395-2.085,0.006C58.713,28.938,60.62,28.963,60.707,30.302z M65.615,30.302   c-0.027,1.442-2.055,1.395-2.084,0.006C63.622,28.938,65.529,28.963,65.615,30.302z M70.525,30.302   c-0.028,1.442-2.056,1.395-2.085,0.006C68.531,28.938,70.438,28.963,70.525,30.302z M75.435,30.302   c-0.028,1.442-2.056,1.395-2.085,0.006C73.441,28.938,75.348,28.963,75.435,30.302z M14.069,32.757   c-0.028,1.442-2.056,1.395-2.085,0.006C12.076,31.392,13.982,31.418,14.069,32.757z M18.979,32.757   c-0.029,1.442-2.057,1.395-2.085,0.006C16.984,31.392,18.891,31.418,18.979,32.757z M23.888,32.757   c-0.028,1.442-2.056,1.395-2.085,0.006C21.895,31.392,23.801,31.418,23.888,32.757z M28.797,32.757   c-0.028,1.442-2.056,1.395-2.084,0.006C26.803,31.392,28.71,31.418,28.797,32.757z M33.706,32.757   c-0.028,1.442-2.056,1.395-2.085,0.006C31.713,31.392,33.619,31.418,33.706,32.757z M38.615,32.757   c-0.028,1.442-2.056,1.395-2.084,0.006C36.622,31.392,38.528,31.418,38.615,32.757z M43.524,32.757   c-0.028,1.442-2.056,1.395-2.085,0.006C41.531,31.392,43.438,31.418,43.524,32.757z M48.434,32.757   c-0.027,1.442-2.055,1.395-2.084,0.006C46.44,31.392,48.348,31.418,48.434,32.757z M53.343,32.757   c-0.028,1.442-2.056,1.395-2.085,0.006C51.35,31.392,53.256,31.418,53.343,32.757z M58.252,32.757   c-0.027,1.442-2.055,1.395-2.084,0.006C56.259,31.392,58.166,31.418,58.252,32.757z M63.161,32.757   c-0.028,1.442-2.056,1.395-2.085,0.006C61.168,31.392,63.074,31.418,63.161,32.757z M68.07,32.757   c-0.027,1.442-2.055,1.395-2.084,0.006C66.078,31.392,67.984,31.418,68.07,32.757z M72.98,32.757   c-0.029,1.442-2.057,1.395-2.086,0.006C70.986,31.392,72.893,31.418,72.98,32.757z M77.889,32.757   c-0.027,1.442-2.055,1.395-2.084,0.006C75.896,31.392,77.803,31.418,77.889,32.757z M82.799,32.757   c-0.029,1.442-2.057,1.395-2.085,0.006C80.805,31.392,82.711,31.418,82.799,32.757z M16.523,35.211   c-0.028,1.442-2.056,1.395-2.084,0.006C14.53,33.847,16.438,33.873,16.523,35.211z M21.433,35.211   c-0.028,1.442-2.056,1.395-2.085,0.006C19.439,33.847,21.346,33.873,21.433,35.211z M26.342,35.211   c-0.027,1.442-2.055,1.395-2.084,0.006C24.349,33.847,26.256,33.873,26.342,35.211z M31.252,35.211   c-0.029,1.442-2.057,1.395-2.086,0.006C29.258,33.847,31.164,33.873,31.252,35.211z M36.16,35.211   c-0.027,1.442-2.055,1.395-2.084,0.006C34.167,33.847,36.074,33.873,36.16,35.211z M41.07,35.211   c-0.029,1.442-2.057,1.395-2.086,0.006C39.076,33.847,40.982,33.873,41.07,35.211z M45.979,35.211   c-0.027,1.442-2.055,1.395-2.084,0.006C43.986,33.847,45.893,33.873,45.979,35.211z M50.889,35.211   c-0.029,1.442-2.056,1.395-2.085,0.006C48.895,33.847,50.801,33.873,50.889,35.211z M55.797,35.211   c-0.027,1.442-2.055,1.395-2.084,0.006C53.804,33.847,55.711,33.873,55.797,35.211z M60.707,35.211   c-0.029,1.442-2.056,1.395-2.085,0.006C58.713,33.847,60.62,33.873,60.707,35.211z M65.615,35.211   c-0.027,1.442-2.055,1.395-2.084,0.006C63.622,33.847,65.529,33.873,65.615,35.211z M70.525,35.211   c-0.028,1.442-2.056,1.395-2.085,0.006C68.531,33.847,70.438,33.873,70.525,35.211z M75.435,35.211   c-0.028,1.442-2.056,1.395-2.085,0.006C73.441,33.847,75.348,33.873,75.435,35.211z M80.344,35.211   c-0.028,1.442-2.056,1.395-2.084,0.006C78.35,33.847,80.257,33.873,80.344,35.211z M85.253,35.211   c-0.028,1.442-2.056,1.395-2.085,0.006C83.26,33.847,85.166,33.873,85.253,35.211z M14.069,37.666   c-0.028,1.442-2.056,1.395-2.085,0.006C12.076,36.302,13.982,36.327,14.069,37.666z M18.979,37.666   c-0.029,1.442-2.057,1.395-2.085,0.006C16.984,36.302,18.891,36.327,18.979,37.666z M23.888,37.666   c-0.028,1.442-2.056,1.395-2.085,0.006C21.895,36.302,23.801,36.327,23.888,37.666z M28.797,37.666   c-0.028,1.442-2.056,1.395-2.084,0.006C26.803,36.302,28.71,36.327,28.797,37.666z M33.706,37.666   c-0.028,1.442-2.056,1.395-2.085,0.006C31.713,36.302,33.619,36.327,33.706,37.666z M38.615,37.666   c-0.028,1.442-2.056,1.395-2.084,0.006C36.622,36.302,38.528,36.327,38.615,37.666z M43.524,37.666   c-0.028,1.442-2.056,1.395-2.085,0.006C41.531,36.302,43.438,36.327,43.524,37.666z M48.434,37.666   c-0.027,1.442-2.055,1.395-2.084,0.006C46.44,36.302,48.348,36.327,48.434,37.666z M53.343,37.666   c-0.028,1.442-2.056,1.395-2.085,0.006C51.35,36.302,53.256,36.327,53.343,37.666z M58.252,37.666   c-0.027,1.442-2.055,1.395-2.084,0.006C56.259,36.302,58.166,36.327,58.252,37.666z M63.161,37.666   c-0.028,1.442-2.056,1.395-2.085,0.006C61.168,36.302,63.074,36.327,63.161,37.666z M68.07,37.666   c-0.027,1.442-2.055,1.395-2.084,0.006C66.078,36.302,67.984,36.327,68.07,37.666z M72.98,37.666   c-0.029,1.442-2.057,1.395-2.086,0.006C70.986,36.302,72.893,36.327,72.98,37.666z M77.889,37.666   c-0.027,1.442-2.055,1.395-2.084,0.006C75.896,36.302,77.803,36.327,77.889,37.666z M82.799,37.666   c-0.029,1.442-2.057,1.395-2.085,0.006C80.805,36.302,82.711,36.327,82.799,37.666z M87.707,37.666   c-0.027,1.442-2.055,1.395-2.084,0.006C85.714,36.302,87.621,36.327,87.707,37.666z M26.342,40.121   c-0.027,1.442-2.055,1.395-2.084,0.006C24.349,38.756,26.256,38.782,26.342,40.121z M31.252,40.121   c-0.029,1.442-2.057,1.395-2.086,0.006C29.258,38.756,31.164,38.782,31.252,40.121z M36.16,40.121   c-0.027,1.442-2.055,1.395-2.084,0.006C34.167,38.756,36.074,38.782,36.16,40.121z M41.07,40.121   c-0.029,1.442-2.057,1.395-2.086,0.006C39.076,38.756,40.982,38.782,41.07,40.121z M45.979,40.121   c-0.027,1.442-2.055,1.395-2.084,0.006C43.986,38.756,45.893,38.782,45.979,40.121z M50.889,40.121   c-0.029,1.442-2.056,1.395-2.085,0.006C48.895,38.756,50.801,38.782,50.889,40.121z M55.797,40.121   c-0.027,1.442-2.055,1.395-2.084,0.006C53.804,38.756,55.711,38.782,55.797,40.121z M75.435,40.121   c-0.028,1.442-2.056,1.395-2.085,0.006C73.441,38.756,75.348,38.782,75.435,40.121z M80.344,40.121   c-0.028,1.442-2.056,1.395-2.084,0.006C78.35,38.756,80.257,38.782,80.344,40.121z M85.253,40.121   c-0.028,1.442-2.056,1.395-2.085,0.006C83.26,38.756,85.166,38.782,85.253,40.121z M14.069,42.576   c-0.028,1.442-2.056,1.395-2.085,0.006C12.076,41.211,13.982,41.237,14.069,42.576z M23.888,42.576   c-0.028,1.442-2.056,1.395-2.085,0.006C21.895,41.211,23.801,41.237,23.888,42.576z M28.797,42.576   c-0.028,1.442-2.056,1.395-2.084,0.006C26.803,41.211,28.71,41.237,28.797,42.576z M33.706,42.576   c-0.028,1.442-2.056,1.395-2.085,0.006C31.713,41.211,33.619,41.237,33.706,42.576z M38.615,42.576   c-0.028,1.442-2.056,1.395-2.084,0.006C36.622,41.211,38.528,41.237,38.615,42.576z M43.524,42.576   c-0.028,1.442-2.056,1.395-2.085,0.006C41.531,41.211,43.438,41.237,43.524,42.576z M48.434,42.576   c-0.027,1.442-2.055,1.395-2.084,0.006C46.44,41.211,48.348,41.237,48.434,42.576z M53.343,42.576   c-0.028,1.442-2.056,1.395-2.085,0.006C51.35,41.211,53.256,41.237,53.343,42.576z M58.252,42.576   c-0.027,1.442-2.055,1.395-2.084,0.006C56.259,41.211,58.166,41.237,58.252,42.576z M82.799,42.576   c-0.029,1.442-2.057,1.395-2.085,0.006C80.805,41.211,82.711,41.237,82.799,42.576z M87.707,42.576   c-0.027,1.442-2.055,1.395-2.084,0.006C85.714,41.211,87.621,41.237,87.707,42.576z M26.342,45.03   c-0.027,1.442-2.055,1.395-2.084,0.006C24.349,43.666,26.256,43.691,26.342,45.03z M41.07,45.03   c-0.029,1.442-2.057,1.395-2.086,0.006C39.076,43.666,40.982,43.691,41.07,45.03z M55.797,45.03   c-0.027,1.442-2.055,1.395-2.084,0.006C53.804,43.666,55.711,43.691,55.797,45.03z M23.888,47.485   c-0.028,1.442-2.056,1.395-2.085,0.006C21.895,46.121,23.801,46.146,23.888,47.485z M28.797,47.485   c-0.028,1.442-2.056,1.395-2.084,0.006C26.803,46.121,28.71,46.146,28.797,47.485z M38.615,47.485   c-0.028,1.442-2.056,1.395-2.084,0.006C36.622,46.121,38.528,46.146,38.615,47.485z M43.524,47.485   c-0.028,1.442-2.056,1.395-2.085,0.006C41.531,46.121,43.438,46.146,43.524,47.485z M53.343,47.485   c-0.028,1.442-2.056,1.395-2.085,0.006C51.35,46.121,53.256,46.146,53.343,47.485z M58.252,47.485   c-0.027,1.442-2.055,1.395-2.084,0.006C56.259,46.121,58.166,46.146,58.252,47.485z M26.342,49.94   c-0.027,1.442-2.055,1.394-2.084,0.006C24.349,48.575,26.256,48.601,26.342,49.94z M41.07,49.94   c-0.029,1.442-2.057,1.394-2.086,0.006C39.076,48.575,40.982,48.601,41.07,49.94z M55.797,49.94   c-0.027,1.442-2.055,1.394-2.084,0.006C53.804,48.575,55.711,48.601,55.797,49.94z M23.888,52.395   c-0.028,1.442-2.056,1.395-2.085,0.006C21.895,51.03,23.801,51.056,23.888,52.395z M28.797,52.395   c-0.028,1.442-2.056,1.395-2.084,0.006C26.803,51.03,28.71,51.056,28.797,52.395z M38.615,52.395   c-0.028,1.442-2.056,1.395-2.084,0.006C36.622,51.03,38.528,51.056,38.615,52.395z M43.524,52.395   c-0.028,1.442-2.056,1.395-2.085,0.006C41.531,51.03,43.438,51.056,43.524,52.395z M53.343,52.395   c-0.028,1.442-2.056,1.395-2.085,0.006C51.35,51.03,53.256,51.056,53.343,52.395z M58.252,52.395   c-0.027,1.442-2.055,1.395-2.084,0.006C56.259,51.03,58.166,51.056,58.252,52.395z M41.07,54.85   c-0.029,1.441-2.057,1.395-2.086,0.006C39.076,53.484,40.982,53.511,41.07,54.85z M55.797,54.85   c-0.027,1.441-2.055,1.395-2.084,0.006C53.804,53.484,55.711,53.511,55.797,54.85z M38.615,57.304   c-0.028,1.442-2.056,1.396-2.084,0.007C36.622,55.939,38.528,55.965,38.615,57.304z M43.524,57.304   c-0.028,1.442-2.056,1.396-2.085,0.007C41.531,55.939,43.438,55.965,43.524,57.304z M53.343,57.304   c-0.028,1.442-2.056,1.396-2.085,0.007C51.35,55.939,53.256,55.965,53.343,57.304z M58.252,57.304   c-0.027,1.442-2.055,1.396-2.084,0.007C56.259,55.939,58.166,55.965,58.252,57.304z M55.797,59.759   c-0.027,1.442-2.055,1.395-2.084,0.007C53.804,58.395,55.711,58.42,55.797,59.759z M53.343,62.214   c-0.028,1.442-2.056,1.395-2.085,0.006C51.35,60.85,53.256,60.875,53.343,62.214z M58.252,62.214   c-0.027,1.442-2.055,1.395-2.084,0.006C56.259,60.85,58.166,60.875,58.252,62.214z M55.797,64.668   c-0.027,1.442-2.055,1.395-2.084,0.006C53.804,63.304,55.711,63.329,55.797,64.668z M53.343,67.123   c-0.028,1.442-2.056,1.395-2.085,0.006C51.35,65.759,53.256,65.784,53.343,67.123z M58.252,67.123   c-0.027,1.442-2.055,1.395-2.084,0.006C56.259,65.759,58.166,65.784,58.252,67.123z M55.797,69.578   c-0.027,1.442-2.055,1.395-2.084,0.006C53.804,68.213,55.711,68.239,55.797,69.578z M53.343,72.032   c-0.028,1.442-2.056,1.396-2.085,0.007C51.35,70.668,53.256,70.693,53.343,72.032z M58.252,72.032   c-0.027,1.442-2.055,1.396-2.084,0.007C56.259,70.668,58.166,70.693,58.252,72.032z M55.797,74.487   c-0.027,1.442-2.055,1.396-2.084,0.007C53.804,73.123,55.711,73.148,55.797,74.487z M53.343,76.942   c-0.028,1.442-2.056,1.395-2.085,0.007C51.35,75.578,53.256,75.604,53.343,76.942z M58.252,76.942   c-0.027,1.442-2.055,1.395-2.084,0.007C56.259,75.578,58.166,75.604,58.252,76.942z M55.797,79.396   c-0.027,1.442-2.055,1.395-2.084,0.007C53.804,78.032,55.711,78.059,55.797,79.396z M53.343,81.852   c-0.028,1.442-2.056,1.395-2.085,0.006C51.35,80.487,53.256,80.513,53.343,81.852z M58.252,81.852   c-0.027,1.442-2.055,1.395-2.084,0.006C56.259,80.487,58.166,80.513,58.252,81.852z M55.797,84.307   c-0.027,1.442-2.055,1.395-2.084,0.006C53.804,82.942,55.711,82.968,55.797,84.307z M53.343,86.762   c-0.028,1.441-2.056,1.395-2.085,0.006C51.35,85.396,53.256,85.422,53.343,86.762z M58.252,86.762   c-0.027,1.441-2.055,1.395-2.084,0.006C56.259,85.396,58.166,85.422,58.252,86.762z M55.797,89.216   c-0.027,1.442-2.055,1.395-2.084,0.007C53.804,87.852,55.711,87.877,55.797,89.216z M53.343,91.67   c-0.028,1.443-2.056,1.396-2.085,0.007C51.35,90.307,53.256,90.332,53.343,91.67z M58.252,91.67   c-0.027,1.443-2.055,1.396-2.084,0.007C56.259,90.307,58.166,90.332,58.252,91.67z"/></g></svg>