<svg id="prefix__Layer_2" data-name="Layer 2" xmlns="http://www.w3.org/2000/svg" viewBox="0 0 616.06 616.06"><defs><style>.prefix__cls-106,.prefix__cls-122,.prefix__cls-128,.prefix__cls-132,.prefix__cls-138,.prefix__cls-152,.prefix__cls-169,.prefix__cls-21,.prefix__cls-7,.prefix__cls-70,.prefix__cls-77,.prefix__cls-96,.prefix__cls-99{stroke-width:0}.prefix__cls-7{fill:#6a875c}.prefix__cls-21{fill:#211619}.prefix__cls-70{fill:#e3cc0f}.prefix__cls-77{fill:#231619}.prefix__cls-96{fill:#4db959}.prefix__cls-99{fill:#e9ebbf}.prefix__cls-106{fill:#3eba58}.prefix__cls-122{fill:#f5de04}.prefix__cls-128{fill:#22171a}.prefix__cls-132{fill:#efe3aa}.prefix__cls-138{fill:#281e1a}.prefix__cls-152{fill:#201518}.prefix__cls-169{fill:#3bbb52}</style></defs><g id="prefix__Layer_1-2" data-name="Layer 1"><circle cx="308.03" cy="308.03" r="308.03" fill="#25181b" stroke-width="0"/><path class="prefix__cls-152" d="M187.5 299.71c-32.38-77.16 97.98-114.02 109.15-29.84-6.04-9.36-14.52-41.58-41.55-45.78-27.22-7-60.27 13.31-60.6 44.39-2.99 5.74-7.09-.42-6.3 13.14 8.57 67.98 107.6 64.07 108.27-7.6 7.68 62.11-86.95 84.98-108.97 25.68z"/><path class="prefix__cls-152" d="M204.56 259.94c4.13 4.11 6.05 17.11-.3 19.75-6.66-2.95-3.98-15.3.3-19.75zM219.22 306.92c-2.02 6.13-10.91-4.45-6.73-7.22 2.76.18 6.93 5.33 6.73 7.22zM220.9 245.69c-2.9 3.02-6.8-1.95-3.14-4.14 8-6.67 11.07-2.17 3.14 4.14zM235.53 324.4h6.25c-2.47 1.35-4.37.79-6.25 0zM233.01 322.04c-6.02-7.62 10.78-8.88 15.68-8.58-1.5 7.02-8.4 11.1-15.68 8.58zM250.61 297.36c-27.79 13.28-42.01-36.84-12.46-41.96 23.72-5.95 34.45 32.4 12.46 41.96zM272.68 252.65c-3.63-.69-12.77-8.69-7.02-10.89 2.97-.24 12.86 10.23 7.02 10.89zM271.17 298.64c.73-6.32 4.09-10.92 10.17-12.37 2.33 5.63-7.92 22.71-10.17 12.37z"/><path class="prefix__cls-96" d="M246.45 360.21c3.14 3.67-2.69 6.98-5.67 4.87-2.82-4.2 2.07-5.88 5.67-4.87z"/><path class="prefix__cls-96" d="M454.07 365.04c-5.29-4.27-6.09 3.22-7.01 6.78-9.61 27.21-37.27 14.63-51.61.32-44.95 7.57-71.2-13.32-99.93-44.81-63.96 61.16-163.96-38.39-92.95-97.44 31.95-27.52 81.16-13.43 101.02 21.65 1.82 3.98 5.28 1.71 6.89-1.24 8.23-19.81 45.26-43.76 36.67-63.35-18.66-7.3-7.46 22.5-22.66 18.75-5.67.04-2.81-15.08-9.13-9.09-6.71 4.05 3.18-4.64-1.01-6.82-3.13-2.91-5.39 2.49-8.66 2.48.4-4.12-5.03-8.43-8.63-4.12-16.93 14.77-13.99 2.1-1.35 15-12.93-8.09-87.61-9.1-96.04 3.07-1.31-4.09 1.65-8.81-2.03-12.66-3.57-3.4 5.39-8.29-5.15-7.09-53.83-12.78-26.96 55.72-33.03 84.98 1.94 39.98-4.06 81.66 2.82 119.86 46.51-8.76 307.14 29.76 291.79-26.26zm-261.41 4.1c-2.36 4.14-9.8-1.35-9.15 4.17-.9 13.03-7.78.18-5.41-6.46-6.52-20.16 27.39-12.87 14.56 2.29zm10.53-7.41c-1.74 6.22 8.68-.27 8.33 5.26-.08 2.11-.79 2.99-2.91 2.74-2.16.43-5.78-1.67-5.67 2.05-.11 4.21 4.26 1.86 6.75 2.64 9.16 2.24-3.85 7.06-8.44 4.71-7.41-6.55-6.03-29.99 9.47-24.18 1.18 0 2.62-.25 2.44 1.6.87 6.85-10.38-.08-9.97 5.19zm26.3-1.87c-3.95-.95-12.62 1.87-6.07 4.93 1.96.39 5.82-1.48 5.64 1.83.52 5.84-7.86-.35-7.75 4.7.07 1.96.48 3.1 2.71 2.94 4.17-1.29 10.7 2.01 4.18 4.73-14.96 6.05-15.64-19.28-7.96-24.02 3.83-.38 17.07-.34 9.25 4.88zm20.97 11.89c.44 1.94 3.4 5.66.94 6.88-5.14 3.82-8.02-15.61-10.48-5.93-.89 1.95 1.43 5.47-1.47 5.88-8.01-.33-2.25-15.66-4.25-21.62 1.52-4.04 15.13-3.08 16.99 1.63 3.11 5.29-5.25 8.36-1.73 13.16zm-62.39-11.51c-1.4.27-4.15-1.07-4.51.89-3.02 8.51 12.18 3.15 4.51-.89z"/><path class="prefix__cls-122" d="M345.6 275.2c-1.36-4.31.11-12.65 5.34-12.92 4.27 3.4.74 23.72-5.34 12.92zM353.94 296.16c1.17 3.44-3.67 6.27-5.12 2.2 2.32.12 5.35-3.23 1.88-3.34-10.89 1.63 2.21-6.74 3.24 1.14zM361.11 306.7c4.15 5.64-7.26 2.68-6.69-1.41 1.27-3.72 5.31-.95 6.69 1.41zM359.07 252.71c.27-1.76 1.07-3.58 3.45-3.64 7.67 1.18-2.81 10.25-3.45 3.64zM375.73 315.49c2.27-.17 4.2-.31 6.13-.46-1.23 2.12-2.98 2.32-6.13.46zM377.39 245.87c-.1-3.78 7.07-3.71 6.64.21-.11 4.19-7.1 3.86-6.64-.21zM396.67 263.9c19.6 19.17-5.39 49.08-25.69 33.95-26.45-15.14 4.04-54.82 25.69-33.95zM410.03 258.63c-.23 4.94-7.42 2.58-7.06-1.79.13-5.21 7.72-3.61 7.06 1.79zM410.02 303.86c.57 3.66-5.76 4.91-5.68.86-.48-3.35 5.58-4.77 5.68-.86zM413.68 273.16c.68-7.66 10.43 1.3 3.23 2.72-1.88-.03-3.23-.66-3.23-2.72zM419.39 288.38c.66 3.97-5.98 4.51-6.06.61-.23-4.08 6.16-4.42 6.06-.61z"/><path class="prefix__cls-122" d="M412.63 245.66c-35.99-36.26-96.06 9.46-74.44 53.75 30.62 67.83 130.2-.46 74.44-53.75zm-26.49 78.61c-47.51 5.56-67.22-62.66-25.23-82.65 60.2-32.39 92.91 76.09 25.23 82.65z"/><path class="prefix__cls-122" d="M328.39 288.67l-.39-5.86c.15 1.95-.62 3.97.39 5.86zm0 0l-.39-5.86c.15 1.95-.62 3.97.39 5.86zm125.17-94.64c-23.31-16.01-70.81-8.7-98.3-5.01-22.89 34.74-54.66 60.58-45.13 104.68 2.59 13.89-21.44 28.26-8.05 37.91 21.31 22.79 40.5 46.71 74.95 39.49 7.93-.8 22.97 4.13 19.31-8.85 3.58-35.97 51.36-34.35 52.03.34 16.35-31.16 1.58-119.09 5.2-168.56zM392.5 339.02c-76.13 8.74-87.44-111.39-8.99-113.65 67.56.07 78.99 106.52 8.99 113.65zm-64.11-50.35l-.39-5.86c.15 1.95-.62 3.97.39 5.86zm0 0l-.39-5.86c.15 1.95-.62 3.97.39 5.86z"/><path d="M158.87 432.29c-17.21-32.02 6.05-20.6 28.52-19.32 66.2-2.95 132.61-1.25 198.89-1.11 12 3.42 76.47-8.06 65.93 4.66-36.09 9.75-79.94.17-118.48 3.56-38.83 0-228.22-.45-127.49.92 81.84-.27 170.14 1.79 248.35-1.29-82.58 30.83-202.95-2.17-295.72 12.57z" fill="#46bd5a" stroke-width="0"/><path d="M474.95 182.38c11.67 76.2.68 160.74 4.43 239.96 0 2.54-.16 4.09-3.26 4.59-8.76 2.24 3.96 9.34-1.16 14.44-3.78 10.54-27.84 19.46-32.56 9.64 2.2-8.89 21.23-3.65 24.09-17.3 3.54-38.25.15-77.58 1.28-116.19-3.23-43.85 6.6-91.6-4.14-133.59-2.31-7.51 7.95-2.61 11.32-1.56z" fill="#4abc5a" stroke-width="0"/><path d="M192.61 174.6c-127.72-12.98 219.12-8.75 242.31-8.84 86.77 13.71-220.82 8.65-242.31 8.84z" fill="#4dc35b" stroke-width="0"/><path d="M141.86 292.54c9.54 42.42-22.97 133.7 21.94 153.55 7.67 2.74 26.81-5.62 22.37 8.08-62.19 10.94-56.6-41.07-55.33-85.94 4.16-17.54-10.45-74.37 11.02-75.69z" fill="#4dc25b" stroke-width="0"/><path d="M160.84 184.22c48.83 4.54 159.22-15.08 189.37 7.53-36.78-9.34-85.57.86-126.74-2.66-18.38 4.48-53.3-12.48-62.37 7.3-.1 54.99-.82 109.54.27 164.36-2.54 5.05 3.14 25.8-4.6 21.4-1.93-56.13.54-112.43-1.03-168.62-.27-6.03 1.84-24.32-1.6-10.07-11.53 6.17-1.24-18.05 6.68-19.24z" fill="#ece8bd" stroke-width="0"/><path d="M369.73 446.52c86.08 10.49-128.4 8.33-148.3 8.12-2.61-20.55 116.97-1.67 148.3-8.12z" fill="#4bc25a" stroke-width="0"/><path d="M424.26 404.38c109.84 6.35-233.01 12.29-261.97 2.93 80.3-8.03 176.48.2 261.97-2.93z" fill="#43b752" stroke-width="0"/><path d="M101.52 213.18c27.15 25.22 29.29 32.39-1.28 53.03-28.08-23.75-22.77-28.7 1.28-53.03z" fill="#f5dd05" stroke-width="0"/><path d="M455.95 167.87c-96.17.32-202.37-5.77-296.23 2.18 57.38-21.22 164.77-.07 238.38-7.34 12.64 3.26 59.21-7.07 57.86 5.16z" fill="#ecebbe" stroke-width="0"/><path d="M452.83 419.13c-94.46 7.52-196 4.98-292.79.91 88.64-3.19 203.95-.91 292.79-.91z" fill="#2b2018" stroke-width="0"/><path d="M166.81 408.85c94.98-1.62 192.78 5.78 286.69-2.63 23.01 17.2-376.98 2.13-286.69 2.63z" fill="#2d1c16" stroke-width="0"/><path d="M164.28 431.38c80.84-5.11 204.84-4.51 283.41-.34-91.29 5.04-192.22 5.79-283.41.34z" fill="#282418" stroke-width="0"/><path d="M121.16 380.78c-2.87 13.8 5.8 47.37-3.25 51.62-30.4-17.47 2.45-99.04 3.25-51.62z" fill="#4fbd5a" stroke-width="0"/><path d="M141.86 292.54c-23.01 25.01-3.5 77.75-9.49 112-4.16 20.78 5.53 35.67 18.08 47.73-34.65-13.47-18.23-60.46-21.84-89.39 2.31-14-8.86-87.28 13.26-70.34z" fill="#e4e4b3" stroke-width="0"/><path class="prefix__cls-106" d="M164.28 431.38c62.55 6.37 131.69-5.7 191.86 4.34-55.39-4.58-160.85 8.85-191.86-4.34z"/><path d="M529.34 241.33c9.59 21.58-25.13 11.84-36.61 14.33-16.4-19.89 23.31-18.46 36.61-14.33z" fill="#4ebe58" stroke-width="0"/><path class="prefix__cls-99" d="M160.82 386.75c-16.7 18.39-14.22-119.64-8.65-126.52 9.33 39.4-8.7 89.53 8.65 126.52z"/><path d="M355.49 185.03c12.84-5.22 113.9-2.95 92.65 5.85-28.35-11.15-65.13 2.7-92.65-5.85z" fill="#ece7c3" stroke-width="0"/><path d="M107.73 382.92c-5.98 18.98-1.43 37.53 13.49 50.5-6.76 8.11-23.77-27.02-19.9-40.1-4.34-13.05 25.63-46.67 17.48-26.99-6.88.93-7.52 11.94-11.06 16.6z" fill="#e8e6ba" stroke-width="0"/><path d="M152.54 266.22c-.25-10.7-2.7 1.64-2.19 6.29-2.79-22.02-.32-45.06-1.14-67.48 9.24-9.77 5.89 58.23 3.34 61.19z" fill="#ebeeb0" stroke-width="0"/><path d="M412.82 446.56c7.03.72 18.39-2.74 23.38 1.49 5.55 12.22-40.66 8.55-23.38-1.49z" fill="#4abf58" stroke-width="0"/><path d="M162.03 408.78c-5.2.11-15.24-7.51-6.79 1.24-4.39 7.81 4.29 8.41 1.23 14.69-2.6 16.29-10.25-21.02-7.08-28.98 2.87 5.33 16.11 7.3 12.64 13.04z" fill="#e9e7c6" stroke-width="0"/><path class="prefix__cls-169" d="M356.14 435.72c-23.9-5.63 77.44-4.75 74.73-.45-22.44.67-43.08-.08-74.73.45z"/><path d="M529.34 241.33a810.57 810.57 0 00-39.48-.14c-2.32-8.47 36.28-6.9 39.48.14z" fill="#ebe7bb" stroke-width="0"/><path d="M524.57 376.77c2.87 3.65 2.94 9.47 10.24 7.64-3.69 4.18-7.82 7.2-4.46 12.97-16.92-5.35-5.14 1.61-15.68-12.28 6.46.95 8.04-3.51 9.91-8.33z" fill="#f3df02" stroke-width="0"/><path d="M85.99 332.67c5.36-.7 8.36-3.54 9.25-9.14 2.89 3.73 3.39 9.37 9.91 8.04-3.03 3.77-7.15 6.76-3.83 12.37-15.56-3.21-4.63-1.71-15.33-11.28z" fill="#f5df03" stroke-width="0"/><g id="prefix__Battery" stroke-width="0"><path d="M522.84 360.06c.11-30.04.08-60.09.15-90.12-3.48-10.98-27.34 2.19-33.17-5.96 6.98-2.5 34.29-6.57 36.37 4.3-3.42 24.67 6.42 83.43-3.35 91.78z" fill="#dc2829"/><path d="M504.01 355.55c-6.06 1.34-21.53-1.02-11.44-7.68 15.24-3.68 43.49 6.72 11.44 7.68z" fill="#e72620"/><path d="M503.45 343.87c-30.83-.86-2.59-9.92 11.17-6.99 11.02 6-5.71 8.21-11.17 6.99z" fill="#e42723"/><path d="M504.31 325.58c31.46 1.01 2.79 11.13-11.74 7.78-10.26-7.13 6.22-8.44 11.74-7.78z" fill="#e92220"/><path d="M503.27 321.81c-30.8-.91-1.91-9.93 11.67-7.06 10.36 6.65-6.36 7.94-11.67 7.06z" fill="#e82121"/><path d="M503.35 310.76c-37.23-.49 9.72-14.08 14.46-4.11 1.16 7.33-11.3 1.73-14.46 4.11z" fill="#e32524"/><path d="M503.79 299.7c-31.97-.88-3.02-10.38 11.53-7.14 9.42 6.89-5.95 8.04-11.53 7.14z" fill="#e7271f"/><path d="M504.09 281.59c30.42.3 4.01 10.2-10.36 6.87-12.27-5.76 4.74-8.06 10.36-6.87z" fill="#ea2120"/><path d="M503.94 270.49c31.21.55 3.8 10.49-10.87 7.14-11.16-6.46 5.56-7.89 10.87-7.14z" fill="#e92721"/><path d="M522.84 361.06c2.49 7.87-29.21 5.95-33.02 2.15 7.06-5.81 23.06-.4 33.02-2.15z" fill="#e7261d"/></g><path d="M424.26 404.38c-69.03 1.53-139.68.23-209.01.33 69.47-1.33 139.39-.16 209.01-.33z" fill="#5ca96c" stroke-width="0"/><path d="M97.16 181.52c3.63-.33 21.04-.76 11.78 4.33-12.13 2.53-44.58-3.36-11.78-4.33z" fill="#f1d905" stroke-width="0"/><path d="M518.37 191.02c-4.14 1.16-21.38-.99-10.52-4.55 11.21-1.99 42.38 2.99 10.52 4.55z" fill="#f2dc05" stroke-width="0"/><path d="M526.9 444.78c-8.73-12-7.18-5.56.61-17.6 9.22 14.24 7.87 4.38-.61 17.6z" fill="#ebe1c3" stroke-width="0"/><path d="M369.73 446.52c-37.71.97-76.41.92-114.12.02 38.04-.14 76.08-.2 114.12-.02z" fill="#67b16f" stroke-width="0"/><path class="prefix__cls-106" d="M417.1 435.47c2.71-1.57 19.27-.19 11.4-2.03-44.17-2.34 8.04 3.75 23.84-4.84-7.48 11.29-19.98 5.99-35.24 6.87z"/><path d="M197.39 446.54c6.84-2.63 13.61 4.68 6.25 8.06-7.29 1.24-7.15-2.1-6.25-8.06z" fill="#53be55" stroke-width="0"/><path d="M471 181.67c-4.14-1.4-13.11.9-11.65-6.63 2.41-5.56 12.46 2.59 11.65 6.63z" fill="#6ac65e" stroke-width="0"/><path d="M162.03 408.78c2.45-11.07 38.97-2.12 52.76-4.04-17.73.05-33.88.68-50.82.17-4.47 2.12 7.26 6.42-1.94 3.88z" fill="#5da567" stroke-width="0"/><path d="M197.39 446.54c4.22 1.81-.2 8-3.5 7.86-2.46-2.19-1.95-9.56 3.5-7.86z" fill="#e1e3ba" stroke-width="0"/><path d="M412.82 446.56c.71 3.3-4.47 3.38-3.29 7.52-6.32 1.8-6.29-10.46 3.29-7.52z" fill="#e6e1c3" stroke-width="0"/><path d="M469.78 179.65c-2.69-2.1-6.93-7.89-10.43-4.62-1.13-10.89 17.39 2.91 10.43 4.62z" fill="#dde2c2" stroke-width="0"/><path d="M142.16 276.4c.35 10.43-5.72 2.82-3.96-3.45 1.4-5.51 5.56.16 3.96 3.45z" fill="#e2e1c0" stroke-width="0"/><path d="M216.85 446.7c5.39-.59 6.82 5.18 2.72 7.65-3.13-1.94-3.9-4.11-2.72-7.65z" fill="#dfe1bb" stroke-width="0"/><path d="M469.78 179.65c5.12-6.72 6.25 10.94 1.22 2.01-.41-.67-.81-1.34-1.22-2.01z" fill="#abd898" stroke-width="0"/><path class="prefix__cls-106" d="M366.36 435.63c.8-1.82 9.38-1.36 11.84.05-3.95.29-7.9.31-11.84-.05z"/><path d="M479.35 198.62c-.63 1.51-1.9 2.38-2.33.15-2.3-5.84 4.16-6.73 2.33-.15z" fill="#408c42" stroke-width="0"/><path d="M118.78 366.33c4.43-6.11 1.65 10.91 2.37 14.45-1.93-4.55 1.13-10.74-2.37-14.45z" fill="#78cf71" stroke-width="0"/><path class="prefix__cls-169" d="M444.3 435.12c-1.58-.91-3.56.09-5.13-1.24 2.97-.37 12.76-1.47 5.13 1.24zM423.98 435.41c4.81.08 9.63-.44 14.42.28-4.81.12-9.63.45-14.42-.28z"/><path class="prefix__cls-106" d="M356.81 435.72c2.57-1.83 5.16-.88 7.76-.09-2.58.36-5.17.35-7.76.09z"/><path d="M150.44 452.28c-.93-4.2 3.23-1.87 3.15 1.18-1.14-.15-2.27-.34-3.15-1.18z" fill="#cce27f" stroke-width="0"/><path class="prefix__cls-106" d="M389.88 435.52c1.82-1.75 3.55-1.53 5.2.24-1.75.16-3.49.39-5.2-.24zM380.82 435.62c1.5-1.34 2.98-.6 4.45.07-1.49.27-2.97.38-4.45-.07z"/><path class="prefix__cls-21" d="M204.56 259.94c4.13 4.11 6.05 17.11-.3 19.75-6.66-2.95-3.98-15.3.3-19.75zM219.22 306.92c-2.02 6.13-10.91-4.45-6.73-7.22 2.76.18 6.93 5.33 6.73 7.22zM220.9 245.69c-2.9 3.02-6.8-1.95-3.14-4.14 8-6.67 11.07-2.17 3.14 4.14zM235.53 324.4h6.25c-2.47 1.35-4.37.79-6.25 0zM233.01 322.04c-6.02-7.62 10.78-8.88 15.68-8.58-1.5 7.02-8.4 11.1-15.68 8.58zM250.61 297.36c-27.79 13.28-42.01-36.84-12.46-41.96 23.72-5.95 34.45 32.4 12.46 41.96zM272.68 252.65c-3.63-.69-12.77-8.69-7.02-10.89 2.97-.24 12.86 10.23 7.02 10.89zM271.17 298.64c.73-6.32 4.09-10.92 10.17-12.37 2.33 5.63-7.92 22.71-10.17 12.37z"/><path class="prefix__cls-21" d="M297.08 276.47c2.64 55.43-73.86 80.35-103.83 33.77-33.32-43.91 18.24-107.72 68.31-86.26 19.12 9.09 35.17 27.04 34.48 48.31-5.11-29.59-30.19-52.82-60.67-49.68-20.46 5.97-41.05 21.38-40.87 45.87-27.56 63.2 93.73 97 102.58 7.99z"/><path class="prefix__cls-21" d="M309.1 260.38c-23.57-79.44-163.31-44.67-126.27 44.74 30.79 78.87 154.99 36.1 126.27-44.74zm-9.34 59.2c-52.56 76.35-174.14-26.67-97.19-89.7 57.61-47.86 140.46 30.32 97.19 89.7z"/><path d="M402.25 343.94c32.27-34.65 72.53 35.26 26.85 45.03-14.24 2.71-35.7-11.6-33.44-22.74-2.2-5.12 6.48 1.36 8.41 3.23.37 4.03.83 6.42 5.12 5.98 17.76 10.57 37.56-13.6 20.86-27.43 20.56 18.13-13.02 43.28-24.77 20.24-12.03-11.78 20.58-30.86 5.46-22.7-2.46 2.16-6.91 1.5-8.47-1.6z" fill="#23161a" stroke-width="0"/><path d="M152.54 266.22c3.79-24.16-6.62-53.44 5.92-74.95-.46 62.72-5.13 133.51 1.73 192.34-17.73-16.5-2.38-83.84-7.65-117.39z" fill="#5eb95e" stroke-width="0"/><path d="M223.71 188.15c14.45-1.6 101.99.49 60.06 4.47-2.74.33 3.11 3.01 4.07-.24 1.17-1.85 2.06-.04 2.76 1-.79 3.71-6.11 3.46-8.9 4.61-28.36 1.51-59.51-2.48-84.87.45.8-3.33 1.01-5.28-3.52-5.19 3.42-8.93 27.51-4.8 30.4-5.1z" fill="#47c25a" stroke-width="0"/><path class="prefix__cls-138" d="M397.1 372.9c-41.9 8.36-82.63-12.29-100.12-46.81 45.88 47.35 41.03 40.54 100.12 46.81z"/><path d="M210.83 196.47c13.56 3.01 97.26-7.84 84.29 9.23-2.09-9.48-91.05-9.82-92.68.61-7.47 3.78-.09-15.68 8.39-9.84z" fill="#2e211e" stroke-width="0"/><path d="M246.24 364.61c-3.37 2.6-7.38.52-5.93-3.66 2.86-2.63 9.88-.11 5.93 3.66z" fill="#261b1b" stroke-width="0"/><path d="M355.25 189.03c-13.01 20.67-30.21 52.65-48.31 64.07 13.32-22.26 36.78-41.34 43.49-66.23 1.43-1.98 1.84 1.74 3.01-.76.86-1.12 2.31 2.25 1.82 2.93z" fill="#282618" stroke-width="0"/><path d="M189.07 364.87c-3.32 1.83-6.95.56-5.51-3.74 1.5-3.21 9.85.58 5.51 3.74z" fill="#261c1a" stroke-width="0"/><path d="M197.56 367.45c-.02-3.29-.47-6.61.31-9.87.38 7.99-.44 28.41-.31 9.87z" fill="#261a18" stroke-width="0"/><path d="M302.7 188.07c8.16.82 48.01-5.22 30 7.55-11.98-4.74-11.37 6.73-14.42.88-1.28-2.29-5.28 7.98-8.65-.24 8.41 1.2 2.61-12.29-.2-3.52.06 2.39-2.58-.27-3.9.65-2.68-1.11.48-4.7-2.83-5.32z" fill="#56c35d" stroke-width="0"/><path d="M329.42 193.98c10.05 2.66 4.19 17.67-4.34 12.52-7.13-2.14-3.62-14.69 4.34-12.52z" fill="#24171a" stroke-width="0"/><path d="M177.06 198.1c5.91 2.25 5.68 10.79-.85 11.88-11.57 1.93-9.51-18.34.85-11.88z" fill="#251917" stroke-width="0"/><path d="M177.06 198.1c-5.54-.57-8.28 1.8-8.49 7.36-9.2-3.99 8.19-16.84 8.49-7.36z" fill="#e0e0c7" stroke-width="0"/><path d="M208.77 196.5c-6.46 1.56-8.01 3.45-8.46 10.32-7.78-3.12 4.08-16.98 8.46-10.32z" fill="#d5dabc" stroke-width="0"/><path d="M329.42 193.98c-5.34 1.01-7.24 3.53-6.85 9.09-7.83-.6.03-14.98 6.85-9.09z" fill="#e9ebcf" stroke-width="0"/><path d="M197.2 373.95c.59-5.21-1.18-12 .67-16.37-.05 3.75.49 23.63-.67 16.37z" fill="#61d978" stroke-width="0"/><path class="prefix__cls-99" d="M160.21 383.61c-5.69.04 2.84-1.16-1.25-4.36-1.42-6.75 4.35 1.34 1.25 4.36z"/><path d="M319.9 202.4c2.61-.72 3.76 2.48 5.18 4.1-2.11 1.91-4.47-2.35-5.18-4.1z" fill="#c0e5a4" stroke-width="0"/><path d="M199.18 188.38c.81 1.15 1.97 3.03-.53 3.38-2.06-.25-1.35-4.49.53-3.38z" fill="#516745" stroke-width="0"/><path d="M163.79 300.86c-1.57-.17-1.9-2.77-.31-2.93 1.63.1 1.52 2.37.31 2.93z" fill="#284421" stroke-width="0"/><path class="prefix__cls-138" d="M398.21 374.65c2.12-.1 3.28.98 3.23 3.03-1.08-1.01-2.15-2.02-3.23-3.03z"/><path d="M304.25 191.33c2.59.9.37 3.95-1.2 1.86-.52-1.01.48-1.43 1.2-1.86z" fill="#3a472e" stroke-width="0"/><path d="M161.48 265.34c-.01-1.83 3.84-2.05 2.55.54-1.12 1.42-1.47-1.35-2.55-.54z" fill="#294e27" stroke-width="0"/><path d="M197.9 204.34c1.33.6 2.34 1.88 2.54 3.29-2.5.18-2.51-1.57-2.54-3.29z" fill="#88cf82" stroke-width="0"/><path d="M263.2 375.26c.02 1.46-2.42 1.18-2.24-.18.25-1.39 2.34-1.42 2.24.18z" fill="#32532b" stroke-width="0"/><path d="M161.38 360.74c-.51-1.28-1.98-2.56 0-3.84.51 1.28 1.33 2.56 0 3.84z" fill="#366828" stroke-width="0"/><path d="M164.7 243.33c0 2.02-.89 2.8-2.14 4.16.24-1.95.64-3.04 2.14-4.16z" fill="#305e30" stroke-width="0"/><path class="prefix__cls-128" d="M332.02 260.19c-4.53 11.6-4.92 24.23-2.41 36.33-10.73-29.01 10.03-62.61 39.37-69.89 50.5-7.84-33.78 2.26-36.96 33.56z"/><path class="prefix__cls-128" d="M345.6 275.2c-1.36-4.31.11-12.65 5.34-12.92 4.27 3.4.74 23.72-5.34 12.92zM353.94 296.16c1.17 3.44-3.67 6.27-5.12 2.2 2.32.12 5.35-3.23 1.88-3.34-10.89 1.63 2.21-6.74 3.24 1.14zM361.11 306.7c4.15 5.64-7.26 2.68-6.69-1.41 1.27-3.72 5.31-.95 6.69 1.41zM359.07 252.71c.27-1.76 1.07-3.58 3.45-3.64 7.67 1.18-2.81 10.25-3.45 3.64zM375.73 315.49c2.27-.17 4.2-.31 6.13-.46-1.23 2.12-2.98 2.32-6.13.46zM377.39 245.87c-.1-3.78 7.07-3.71 6.64.21-.11 4.19-7.1 3.86-6.64-.21zM396.67 263.9c19.6 19.17-5.39 49.08-25.69 33.95-26.45-15.14 4.04-54.82 25.69-33.95zM410.03 258.63c-.23 4.94-7.42 2.58-7.06-1.79.13-5.21 7.72-3.61 7.06 1.79zM410.02 303.86c.57 3.66-5.76 4.91-5.68.86-.48-3.35 5.58-4.77 5.68-.86zM413.68 273.16c.68-7.66 10.43 1.3 3.23 2.72-1.88-.03-3.23-.66-3.23-2.72zM419.39 288.38c.66 3.97-5.98 4.51-6.06.61-.23-4.08 6.16-4.42 6.06-.61z"/><path class="prefix__cls-128" d="M412.63 245.66c-35.99-36.26-96.06 9.46-74.44 53.75 30.62 67.83 130.2-.46 74.44-53.75zm-26.49 78.61c-47.51 5.56-67.22-62.66-25.23-82.65 60.2-32.39 92.91 76.09 25.23 82.65z"/><path d="M369.23 226.04c-15.84 8.4-29.69 18.37-38.45 34.29-5.18-13.6 26.41-38.67 38.45-34.29z" fill="#eee3cf" stroke-width="0"/><path class="prefix__cls-138" d="M402.25 343.94c11.39 2.27-4.09 13.12.58 20.77-6.99 14.02-11.92-13.16-.58-20.77z"/><path d="M329.61 296.52c-7.33-5.38-6.91-35.35-1.42-27.58-.22 9.3-.75 18.45 1.42 27.58z" fill="#f4e756" stroke-width="0"/><path class="prefix__cls-132" d="M332.02 260.19c-2.97 4.56-4.13 26.54-4.52 13.98-.9-5.66-3.12-21.27 4.52-13.98z"/><path d="M383.49 225.37c-4.45-.03-13.39 3.66-15.68 1.67-.71-5.36 13.6-6.55 15.68-1.67z" fill="#efea96" stroke-width="0"/><path class="prefix__cls-70" d="M442.79 345.27c-6.04-4.52-14.07-12.79-2.11-5.53 1.71.1 6.04 5.21 2.11 5.53z"/><path d="M391.85 226.3c-3.61-.76-8.11.36-10.45-3.04 3.81-2.74 7.45.9 10.45 3.04z" stroke-width="0" fill="#f3f139"/><path d="M354.19 191.43c-.3-4.83 1.94-8.72 5.89-3.67-1.71 1.63-4.4 1.68-5.89 3.67z" fill="#e7e883" stroke-width="0"/><path class="prefix__cls-70" d="M431.3 336.94c-2.5.47-2.93-4.84.47-3.24 5.18-2.21 1.43 1.34-.47 3.24z"/><path d="M389.12 205.08c.81.52 1.84.94 1.98 2.11-.5 2.39-4.42-1.88-1.98-2.11z" fill="#9c760f" stroke-width="0"/><path d="M184.36 413.18c9.03.05 18.05.11 27.08.16-7.18.74-24.15 1.58-27.08-.16z" fill="#6dcd76" stroke-width="0"/><path d="M472.47 437.98c.27-.41.54-.82.89-1.36 1.56 7.31-9.27 1.86-3.47-2.29 3.37-1.54-3.45 7.09 2.58 3.65z" fill="#1b2a0d" stroke-width="0"/><path d="M472.52 230.6c-1.79-5.85-1.6-6.33 2.47-6.04-1.62 1.77-2.26 3.79-2.47 6.04z" fill="#406f3b" stroke-width="0"/><path d="M476.96 248.11c.06 2.29-3.5 2.31-3.28 0-.05-2.49 3.54-2.6 3.28 0z" fill="#2a321f" stroke-width="0"/><path d="M472.47 437.98c-1.61 3.34-5.18-.71-2.12-2.32-.24 1.64.04 2.8 2.12 2.32z" fill="#8ea684" stroke-width="0"/><path d="M471.25 298.17c-.83-.44-1.84-1.91-.24-2 1.17-.09 1.58 1.68.24 2z" fill="#367637" stroke-width="0"/><path d="M171.17 167.33c1.57-2.23 4.5 1.35 1.73 1.98-1.45.08-1.8-.76-1.73-1.98z" fill="#3e6035" stroke-width="0"/><path d="M242.93 171.74c.79-1.2 3.45-2.68 3.74-.49-1.02 1.5-2.52-.4-3.74.49z" fill="#406832" stroke-width="0"/><path d="M430.85 166.83c1.03-.59 5.06.16 3 1.39-1.3.19-2.61.38-3-1.39z" fill="#347442" stroke-width="0"/><path d="M198.68 166.99c.34 1.56 1.45 2.12.6 3.04-1.98.38-1.23-1.39-.6-3.04z" fill="#2a572e" stroke-width="0"/><path d="M259.7 170.8c2.42.38-1.19 3.1-1.38 1.11.15-.7.76-.94 1.38-1.11z" fill="#345026" stroke-width="0"/><path d="M137.77 302.75c-.19.86-.46 1.93-1.48 1.6-4.42.14.57-7.26 1.48-1.6z" fill="#488343" stroke-width="0"/><path d="M132.41 317.37c-.12-1.4 1.5-2.49 2.63-1.21 1.46 1.63-1.87 3.17-2.63 1.21z" fill="#468a47" stroke-width="0"/><path d="M134.48 434.18c-.27-.94-.55-1.87-.82-2.81 2.31-.1 2.91 1.66.82 2.81z" fill="#2d4728" stroke-width="0"/><path class="prefix__cls-96" d="M297.13 188.14c-10.01 2.6-24.14-2.03-30.89 2.79-5.26-6.15 23.79-2.17 30.89-2.79z"/><path d="M96.12 239.89c.68-8.34 12.3-6.41 11.98 1.17-.66 7.86-12.59 6.33-11.98-1.17z" fill="#231818" stroke-width="0"/><path d="M104.89 233.25c1.87.65 2.87 1 4.67 1.63-2.33.83-3.31.25-4.67-1.63z" fill="#a99214" stroke-width="0"/><path class="prefix__cls-106" d="M403.53 432.74c-.12 1.53-4.46 4.81-2.63.93-7-.9-.91-1.1 2.63-.93z"/><path d="M107.73 382.92c.51-1.84.96-6.09 3.65-5.11-1.03 2.55.75 6.92-3.65 5.11z" fill="#4d903c" stroke-width="0"/><path d="M116.02 367.85c1.25.1 3.24.03 3.39 1.03.15 2.54-2.52-.51-3.39-1.03z" fill="#2d7b34" stroke-width="0"/><path d="M521.5 245.95c4.68-7.71 11.35 11.28 1.63.79-.71.08-1.59.48-1.63-.79z" fill="#182f13" stroke-width="0"/><path class="prefix__cls-7" d="M521.5 245.95c2.48-.49 4.31 2.72 2.61 4.81-2.26.18-3.98-3.02-2.61-4.81z"/><path d="M517.57 245.81c-.2 1.7-2.74 1.66-2.92.5.01-1.32 2.65-1.4 2.92-.5z" fill="#1b3323" stroke-width="0"/><path d="M521.59 249.24c1.8 2.16 3.3.13 5.23 1.24-2.13 2.02-3.44 1.7-5.23-1.24z" fill="#0a2b08" stroke-width="0"/><path class="prefix__cls-106" d="M415.97 435.45h-5.48c1.8-.54 3.88-1.26 5.48 0z"/><path d="M262.72 277.83c-.53 32.59-48.67 24-40.6-6.59 4.57-24.79 42.79-19.2 40.6 6.59z" fill="#4dbd59" stroke-width="0"/><path d="M297.08 276.47c4.69 75.15-119.82 76.03-110.06 1.93 12.08 75.83 106.62 62.95 110.06-1.93z" fill="#47ba58" stroke-width="0"/><path d="M234.12 223.79c-35.33 7.5-52.62 48.38-44.7 74.66-22.73-18.08 12.32-86.42 44.7-74.66z" fill="#e5e4c6" stroke-width="0"/><path d="M296.04 272.29c-4.85-23.99-19.01-41.04-42.41-49.53 22.16 1.93 43.25 27.33 42.41 49.53z" fill="#44be57" stroke-width="0"/><path d="M206.48 278.11c-8.39 5.93-7.11-14.94-1.92-18.17 3.98 3.93 4.98 13.52 1.92 18.17z" fill="#e9dfc0" stroke-width="0"/><path d="M248.69 313.46c.06 7.3-15.54 14.19-16.98 5.6 3.55-6.85 10.61-4.73 16.98-5.6z" fill="#e4dabf" stroke-width="0"/><path d="M275.66 300.89c-8.44 4.9-3.23-11.7 1.72-13.38 8.12-3.33 2.6 10.36-1.72 13.38z" fill="#eae3bd" stroke-width="0"/><path d="M274.44 251.16c-1.63 5.77-15.56-7.87-8.78-9.4 2.98.16 8.96 6.54 8.78 9.4z" fill="#44c158" stroke-width="0"/><path d="M195.6 257.59c-3.06 3.32 1.55 15.32-4.61 12.87-5.66 8.99 2.52-23.35 4.61-12.87z" fill="#433227" stroke-width="0"/><path d="M226.73 237.37c-1.81 3.9-5.34 11.47-9.84 8.35-2.42-4.96 5.74-7.01 9.84-8.35z" fill="#4ebb52" stroke-width="0"/><path d="M219.22 306.92c-2.02 6.13-10.91-4.45-6.73-7.22 2.76.18 6.93 5.33 6.73 7.22z" fill="#47bd59" stroke-width="0"/><path d="M255.6 222.04c-2.48 3.56-10.15-.59-15.4.58-.62-5.7 11.73-.83 15.4-.58z" fill="#66c565" stroke-width="0"/><path d="M240.2 222.62c-3.59 2.64-3.65-.7-6.08 1.17-8.26-4.39 9.1-5.78 6.08-1.17z" fill="#c4d19c" stroke-width="0"/><path d="M198.46 251.1c-.74 4.71-5.15 15.57-3.91 4.72-.79-1.39.67-5.91 3.91-4.72z" fill="#b5a78c" stroke-width="0"/><path d="M193.25 310.24c-2.46-3.51-7.55-9.06-3.83-11.79 1.8 3.75 2.53 7.86 3.83 11.79z" fill="#b3e1a5" stroke-width="0"/><path d="M194.5 268.48c-1.35-1.98-2-7.33.63-7.63.47 2.6-.9 5.05-.63 7.63z" fill="#b9ae96" stroke-width="0"/><path d="M241.67 317.27c-1.69-.48-2.37-3.34-.96-3.15 2.04.63.55 1.96.96 3.15z" fill="#a59682" stroke-width="0"/><path d="M241.78 324.4c-2.47 1.35-4.37.79-6.25 0h6.25z" fill="#aaa39f" stroke-width="0"/><path d="M418.82 368.62c-10.76.21-10.35-16.72-.17-16.69 11.36.17 11.41 16.65.17 16.69z" fill="#dc2e20" stroke-width="0"/><path d="M403.58 370.46c1.94-8.01 8.72 8 15.03 5.89 30.94-2.09 6.79-31.86 11.44-29.5 23.59 17.28-14.14 48.05-26.47 23.62z" fill="#43b757" stroke-width="0"/><path d="M406.25 367.94c-15.36 2.79 3.7-37.92 15.29-23.61-13.03.64-19.53 10.68-15.29 23.61z" fill="#d8dcc4" stroke-width="0"/><path class="prefix__cls-138" d="M403.58 370.46c1.77 1.91 2.55 4.68 5.12 5.9-2.85 1.69-7.28-3.51-5.12-5.9z"/><path class="prefix__cls-96" d="M290.6 193.38c-2.62-1.84-4.93 4.71-9.09.72 1.24-4.65 4.55.18 6.54-2.88 1.55-3.63 3.72-.28 2.55 2.15z"/><path d="M284.05 191.45c1.07 2.86-4.74 3.57-3.43.81.86-1.12 1.94-2.05 3.43-.81z" fill="#263615" stroke-width="0"/><path d="M208.77 196.5c-.89-.94-2.81.07-3.24-1.72 2.36-2.1 7.48 2.33 3.24 1.72z" fill="#8bd47e" stroke-width="0"/><path d="M223.71 188.15c1.48.59 2.42 4.62-.06 3.9-1.1-1.16.05-2.77.06-3.9z" fill="#809c81" stroke-width="0"/><path d="M233.14 189.6c1.6.09 1.91 2.85.07 2.42-1.76.14-1.85-2.34-.07-2.42z" fill="#4c7147" stroke-width="0"/><path d="M245.08 189.78c.43.57 1.14 1.16 1.33 1.89-.51 2.91-4.84-1.51-1.33-1.89z" fill="#414e3e" stroke-width="0"/><path d="M246.24 364.61c-3.24 2.48-7.4.76-5.93-3.63 3.09-1.56 9.87-.62 5.93 3.63z" fill="#2ea64e" stroke-width="0"/><path d="M246.45 360.21c-1.97.85-4.08.62-6.14.74 1.86-1.83 4.09-.51 6.14-.74z" fill="#5dbe79" stroke-width="0"/><path d="M184.83 364.93c-2.87-2.68.03-5.16 3.24-4.69 3.6 1.4.16 6.82-3.24 4.69z" fill="#2fad51" stroke-width="0"/><path d="M189.07 364.87c-8.75 4.4-5.65-8.49-1.86-4.22-3.07-.88-4.49 4.06-.87 4 3.27.12 5.26-6.2 2.73.22z" fill="#58cc82" stroke-width="0"/><path d="M428.73 282.4c-.72 55.43-81.28 58.94-89.75 14.03 17.96 37.38 75.61 37.61 84.98-5.75 9.07-38.33-34.52-67.75-67.48-48.01 22.47-27.88 76.23 4.28 72.26 39.74z" fill="#dfcb0a" stroke-width="0"/><path d="M354.73 244.11c-9.55 10.2-15.69 21.45-18.59 35.09-7.13-7.27 9-38.84 18.59-35.09z" fill="#d9dbc5" stroke-width="0"/><path d="M339.35 296.5c-1.98 4.93-6.37-8.28-3.11-10 2.79 2.48 3.86 6.33 3.11 10z" fill="#cbd029" stroke-width="0"/><path d="M336.32 286.5c-1.85 5.97-4.16-8.89-.44-7.63 1.9 2.23 2.11 4.83.44 7.63z" fill="#dae363" stroke-width="0"/><path d="M356.95 242.36c-.13 1.54-1.27 2.48-2.77 1.74-1.94-2.45 3.29-6.03 2.77-1.74z" fill="#d5d55a" stroke-width="0"/><path class="prefix__cls-132" d="M328.38 288.67c-1.55-1.86-.77-3.87-.39-5.86l.39 5.86z"/><path class="prefix__cls-7" d="M526.82 250.49c-4.68 1.9-.71-2.79-3.8-4.5 3.18-2.62 3.6 1.71 3.8 4.5z"/><path d="M523.02 245.99c4.22.47 1.69 2.74 1.19 4.47-.4-1.49-.79-2.98-1.19-4.47z" fill="#212c12" stroke-width="0"/><path class="prefix__cls-77" d="M241.62 268.63c10.86.24 11.41 17.44-.13 17.43-11.14-.06-11.01-17.68.13-17.43z"/><path d="M198.57 250.53c-1.31.59-3.44-1.84-1.45-2.03 1.52-.06 1.24 1.31 1.45 2.03z" fill="#a3957b" stroke-width="0"/><path d="M414.94 357.52c-1.28 4.96 3.66 4.69 5.07 6.66-3.68 4.34-8.71-2.82-5.07-6.66z" fill="#50131a" stroke-width="0"/><path d="M421.31 359c-.17 1.42-1.27 1.54-2.32 1.64-3.95-.8 2.01-6.51 2.32-1.64z" fill="#491c1d" stroke-width="0"/><path class="prefix__cls-21" d="M345.6 275.2c-1.36-4.31.11-12.65 5.34-12.92 4.27 3.4.74 23.72-5.34 12.92zM353.94 296.16c1.17 3.44-3.67 6.27-5.12 2.2 2.32.12 5.35-3.23 1.88-3.34-10.89 1.63 2.21-6.74 3.24 1.14zM361.11 306.7c4.15 5.64-7.26 2.68-6.69-1.41 1.27-3.72 5.31-.95 6.69 1.41zM359.07 252.71c.27-1.76 1.07-3.58 3.45-3.64 7.67 1.18-2.81 10.25-3.45 3.64zM375.73 315.49c2.27-.17 4.2-.31 6.13-.46-1.23 2.12-2.98 2.32-6.13.46zM377.39 245.87c-.1-3.78 7.07-3.71 6.64.21-.11 4.19-7.1 3.86-6.64-.21zM396.67 263.9c19.6 19.17-5.39 49.08-25.69 33.95-26.45-15.14 4.04-54.82 25.69-33.95zM410.03 258.63c-.23 4.94-7.42 2.58-7.06-1.79.13-5.21 7.72-3.61 7.06 1.79zM410.02 303.86c.57 3.66-5.76 4.91-5.68.86-.48-3.35 5.58-4.77 5.68-.86zM413.68 273.16c.68-7.66 10.43 1.3 3.23 2.72-1.88-.03-3.23-.66-3.23-2.72zM413.33 288.99c-.23-4.08 6.16-4.42 6.06-.61.66 3.97-5.98 4.51-6.06.61z"/><path class="prefix__cls-21" d="M426.18 276.46c-6.32-66.59-109.94-43.23-87.19 19.98 17.16 48.13 93.96 31.69 87.19-19.98zm-2.22 14.22c-11.6 53.01-87.9 36.93-87.81-11.48 5.66-62.4 100.13-50.81 87.81 11.48z"/><path d="M396.47 296.7c-6.55 6.73-25.32 7.85-26.52-2.54 3.6-2.07 1.89-3.18 2.01-6.42 2.61-1.34-.69-5.46-3.31-6.15-1.56-1.25-1.43-2.59.38-3.76-2.44-1.77-.02-5.37-2.73-7.07 7.81-33.21 56.92 5.87 30.17 25.94z" fill="#eee3c2" stroke-width="0"/><path d="M352.17 269.78c2.22 4.55-3.53 13.27-6.57 5.42-4.02-8.28 9.04-20.28 6.57-5.42z" fill="#e6dbc0" stroke-width="0"/><path d="M369.98 278.88c-3.45.06-.11 1.97-.79 2.7-5.34 3.46-2.47-4.42-4.59-6.34-1.92 2.45.58 9.15-3.44 9.01-3.76-6.45 6.98-23.6 5.59-14.57 4.43.95.36 5.37 3.34 6.62 1.33.35.14 2.58-.11 2.58z" fill="#bfb7a5" stroke-width="0"/><path d="M362.13 308.89c-2.25 3.01-7.52-.95-7.71-3.6 1.57-4.59 7.66.7 7.71 3.6z" fill="#37ab66" stroke-width="0"/><path d="M384.03 246.08c-.11 4.18-7.1 3.85-6.64-.21-.1-3.78 7.07-3.71 6.64.21z" fill="#ead606" stroke-width="0"/><path d="M419.39 288.38c.66 3.97-5.98 4.51-6.06.61-.23-4.08 6.16-4.42 6.06-.61z" fill="#e6c410" stroke-width="0"/><path d="M370.98 297.85c-3.97-2.26-13.32-11.73-7.96-14.69 1.49 5.23 8.5 9.93 7.96 14.69z" fill="#d6d0bd" stroke-width="0"/><path d="M365.15 251.6c.12 4.27-6.51 4.24-6.08 1.11-.38-3.46 6.1-5.53 6.08-1.11z" fill="#e1cf0b" stroke-width="0"/><path d="M410.03 258.63c-.23 4.94-7.42 2.58-7.06-1.79.13-5.21 7.72-3.61 7.06 1.79z" fill="#dadcbe" stroke-width="0"/><path d="M352.14 300.24c-6.07-.16-.51-2.12.09-4.45-.75-.94-4.31-2.26-4.74.05-3.46-7.03 12.85-.79 4.65 4.4z" fill="#d4cfa2" stroke-width="0"/><path d="M410.02 303.86c.57 3.66-5.76 4.91-5.68.86-.48-3.35 5.58-4.77 5.68-.86z" fill="#e7d10b" stroke-width="0"/><path d="M419.37 273.45c-.03 1.4-.58 2.46-2.46 2.43-8.35-.56 1.62-11.04 2.46-2.43z" fill="#ecd512" stroke-width="0"/><path d="M381.86 315.03c-1.23 2.12-2.98 2.32-6.13.46 2.27-.17 4.2-.31 6.13-.46z" fill="#d8d0c7" stroke-width="0"/><path class="prefix__cls-77" d="M383.4 287.47c-9.53.14-10.14-15.78-.2-15.52 8.97.18 9.81 15.67.2 15.52z"/><path d="M370.57 295.12c-11.64-2.11-7.97-31.14-3.67-16.63-3.05 4.37 10.87 14.48 3.67 16.63z" fill="#392d23" stroke-width="0"/><path d="M373.51 293.34c-8.93-1.68-6.21-17.67-.68-11.41-1.53 3.27 2.22 2.67 2.64 5.44-.06 1.86-2.17.06-2.72.83-.13 2.54 2.76 2.76.76 5.15z" fill="#d4caad" stroke-width="0"/><path d="M406.53 259.58c-6.11-1.29 2.33-8.21 2.24-2.1-.15 1.3-.74 2.2-2.24 2.1z" fill="#211d18" stroke-width="0"/></g></svg>